<svg width="82" height="120" viewBox="0 0 82 120" fill="none" xmlns="http://www.w3.org/2000/svg">
<g clip-path="url(#clip0_20_47)">
<path d="M54.8 13.05C54.8 13.53 54.9401 13.6 55.5201 13.6H57.1301C57.7701 13.6 58.15 13.6001 58.6 11.5901C59.46 12.1801 60.5601 12.8001 62.8101 13.1901C62.1501 15.2201 61.5401 16.3 58.4401 16.3H52.7101C49.6701 16.3 49.67 14.7901 49.67 13.9901V10.86H46.4301L48.5901 11.4601C48.8701 11.5301 49.0301 11.6001 49.0301 11.7801C49.0301 11.9901 48.7001 12.0701 48.2001 12.0701C46.9301 13.5101 44.9101 15.7201 39.3401 16.7101C38.4301 15.5701 37.79 15.0001 36.05 14.1801C41.92 13.5001 43.3 11.55 43.8 10.85H39.3401V0.300049H59.66V10.85H54.8201V13.04L54.8 13.05ZM54.4401 3.28009V2.75006H44.5001V3.28009H54.4401ZM44.5001 5.22003V5.75006H54.4401V5.22003H44.5001ZM44.5001 7.69006V8.22003H54.4401V7.69006H44.5001Z" fill="black"/>
<path d="M67.1901 13.5401H68.42V10.4101H78.5801V13.5401H79.1501V16.5001H78.5801V19.6001H68.6501L68.6901 19.7701C67.7401 20.3501 67.4401 20.6301 66.8101 21.2601C66.8101 21.2301 66.3101 18.9901 66.2801 18.8001V35.8501H62.8401V18.4401C62.6401 20.7101 62.44 22.0701 62.29 23.1501C61.38 22.3801 60.2901 21.9001 60.0601 21.8201C60.3001 20.2401 60.67 17.0601 60.61 14.4901L62.8401 15.0701V10.1201L66.6401 10.2601C66.7401 10.2601 66.98 10.2601 66.98 10.6801C66.98 11.1501 66.64 11.2301 66.29 11.3501V15.2001L67.2001 14.6701V13.5601L67.1901 13.5401ZM68.3401 31.3401V20.1901H78.4401V31.3401H76.72C77.59 31.9201 78.5 32.3901 79.41 32.6701C78.95 33.3301 78.2801 34.5001 77.7701 35.9601C76.1501 35.1601 74.9001 34.3001 73.3201 32.6701L74.11 31.3401H72.05L72.98 32.3901C73.06 32.5001 73.0801 32.6101 73.0801 32.7201C73.0801 33.1101 72.8201 33.1101 72.7401 33.1101C72.6201 33.1101 72.4801 33.0802 72.3201 33.0302C71.8901 33.5002 70.5801 34.8801 68.7801 35.9601C68.0501 34.3501 66.8201 33.3302 66.4901 33.0302C66.9801 32.8102 67.8701 32.4501 69.2601 31.3401H68.3301H68.3401ZM67.7601 16.5001C68.1401 17.7701 68.27 18.2401 68.41 18.7101V16.5001H67.7601ZM72.1501 13.5401V12.6501H71.3801V13.5401H72.1501ZM71.3801 16.5001V17.3901H72.1501V16.5001H71.3801ZM71.7601 23.7501H74.92V22.9701H71.7601V23.7501ZM74.92 25.4201H71.7601V26.1901H74.92V25.4201ZM74.92 27.8501H71.7601V28.6301H74.92V27.8501ZM75.5601 13.5401V12.6501H74.7701V13.5401H75.5601ZM74.7601 16.5001V17.3901H75.55V16.5001H74.7601Z" fill="black"/>
<path d="M56.66 32.38C57.59 31.69 59.25 30.53 61.15 30.53C62.26 30.53 63.96 31.28 63.96 33.68C63.96 34.57 63.47 38.48 63.47 39.28C63.47 39.9 63.69 40.03 64.08 40.03C64.5 40.03 65.25 39.78 66.14 38.91C66.28 40.14 66.83 41.77 66.99 42.18C65.96 43.26 63.95 43.89 62.7 43.89C59.95 43.89 59.89 40.95 59.89 40.58C59.89 39.69 60.01 38.8 60.23 36.86C60.27 36.43 60.41 35.33 60.41 34.94C60.41 34.82 60.41 34.03 59.76 34.03C58.95 34.03 56.89 35.9 55.84 36.97C55.84 40.64 55.86 41.03 55.88 42.01C55.9 42.38 56.08 44.02 56.1 44.36L52.18 44.52C52.3 43.99 52.3 42.69 52.3 42.08C52.3 41.87 52.28 40.98 52.3 40.8C51.57 41.67 51.21 42.19 50.94 42.62L48.27 39.99C50.29 38.44 52.28 36.06 52.4 35.93V35.22C51.77 35.38 50.4 35.63 49.35 35.72L48.82 32.29C49.1 32.31 49.31 32.33 49.77 32.33C50.28 32.33 51.17 32.29 52.46 32.06C52.48 31.28 52.46 29 52.36 28.22L56.2 28.7C56.52 28.74 56.73 28.79 56.73 29.06C56.73 29.22 56.67 29.26 56.2 29.5C56.1 29.82 56 30.21 55.88 31.81L56.67 32.4L56.66 32.38Z" fill="black"/>
<path d="M73.04 36.03C73.26 36.07 73.48 36.08 73.48 36.32C73.48 36.53 73.26 36.57 73.01 36.6C72.91 37.03 72.83 37.29 72.59 38.13C74.53 37.85 75.3 37.61 75.66 37.51L75.8 40.73C75.11 40.93 74.38 41.14 71.75 41.51C70.4 45.66 68.57 49.64 67.02 51.99C65.71 51.15 64.01 50.57 63.26 50.34C65.1 48.05 66.76 44.63 67.61 41.98C66.32 42.07 65.34 42.09 64.53 42.09L64.37 38.67C64.98 38.72 65.44 38.72 65.68 38.72C66.45 38.72 66.89 38.68 68.47 38.58C68.77 37.17 68.83 36.21 68.87 35.48L73.06 36.03H73.04ZM74.82 46.73C74.31 47.26 74.27 47.62 74.27 47.69C74.27 47.97 74.53 48.1 74.82 48.15C75.04 48.19 75.63 48.29 76.88 48.29C77.08 48.29 79.47 48.25 81.21 47.83C81.21 48.26 81.19 48.67 81.19 49.52C81.19 50.3 81.21 50.73 81.21 51.33C80.18 51.51 78.09 51.54 76.96 51.54C72.09 51.54 70.73 50.46 70.73 48.71C70.73 48.62 70.73 47.2 71.76 45.93L74.82 46.71V46.73ZM73.5 41.81C74.92 41.63 76.56 41.6 78.03 41.6C79.79 41.6 80.32 41.65 81 41.72C80.94 42.73 80.88 44.1 80.84 45.1C80.23 44.98 79.46 44.85 77.91 44.85C77.71 44.85 75.54 44.87 73.5 45.1V41.81Z" fill="black"/>
<path d="M19.98 8.22992C20.26 8.25992 20.43 8.43992 20.43 8.72992C20.43 8.96992 20.35 9.11994 19.98 9.49994C19.92 9.99994 19.9 10.24 19.88 10.95C20.71 10.95 24.31 11.0399 25.04 11.0399V16.1099C24.27 16.0499 22.67 15.9 19.84 15.9V18.4799C20.79 18.3899 22.9 18.15 24.41 17.65L24.53 22.7199C23.2 23.1399 20.91 23.2499 19.88 23.3099C19.9 23.6999 20 25.3899 19.98 25.7399C22.23 26.8399 23.66 27.55 25.64 29.27C25.46 29.66 24.41 31.97 23.68 33.96C22.85 32.98 20.89 31.32 19.78 30.7C19.44 34.38 16.68 34.8799 15.13 34.8799C11.1 34.8799 9.72998 31.9399 9.72998 29.6599C9.72998 28.6499 10.03 24.7399 14.93 24.7399C15.13 24.7399 16.1 24.7699 16.29 24.7399C16.27 24.3799 16.27 23.9099 16.25 23.4299C13.8 23.3699 12.85 23.3399 11.54 22.3599C10.53 21.6199 10.43 20.49 10.43 19.9C10.43 18.39 11 17.2599 11.36 16.5499L14.35 16.9299C14.01 17.6399 13.93 17.97 13.93 18.21C13.93 18.8 14.64 18.83 14.8 18.83C15.18 18.83 15.77 18.7699 16.17 18.7399C16.17 17.4099 16.15 17.2599 16.13 16.0099C15.14 16.0699 10.69 16.3399 9.79999 16.4299V11.03C10.79 11.06 15.18 10.9099 16.07 10.9099C16.05 9.83991 15.99 8.76996 15.91 7.70996L19.96 8.20996L19.98 8.22992ZM14.78 28.6299C14.48 28.6299 13.47 28.63 13.47 29.4C13.47 29.99 14.12 30.2899 14.87 30.2899C16.18 30.2899 16.23 29.61 16.29 28.9C16.05 28.81 15.5 28.6299 14.77 28.6299H14.78Z" fill="black"/>
<path d="M35.5599 19.3101C35.8399 19.3501 36.03 19.4001 36.03 19.5801C36.03 19.8101 35.7 19.8501 35.34 19.8801C35.09 20.3601 35.0399 20.4301 34.5599 21.2001C38.6799 20.8801 40.9 20.59 43.33 20.04C43.39 20.8 43.7199 22.6401 43.9399 23.3101C41.9199 23.7201 36.7199 24.3101 32.9799 24.4501C32.0899 25.7701 31.9799 25.9101 31.5699 26.4601C33.1199 25.7501 35.94 25.2101 38.02 25.2101C43.06 25.2101 46.4899 27.1001 46.4899 29.7101C46.4899 30.7901 45.88 32.8601 41.65 34.1201C39.24 34.8501 35.2299 35.0101 32.4899 35.0101C30.2499 35.0101 29.2499 34.9 28.7299 34.85C28.6999 33.87 28.2899 32.2701 27.8699 31.4901C30.1099 31.7601 32.2699 31.7801 33.0699 31.7801C38.7999 31.7801 40.7399 30.71 40.7399 29.61C40.7399 28.4 38.6099 28.4001 37.9399 28.4001C34.3999 28.4001 30.8499 29.5201 28.8599 30.6801L23.8499 29.1901C25.3499 27.6601 26.7299 25.65 27.3099 24.6C25.6999 24.62 24.0999 24.62 22.8499 24.55L22.6599 21.05C24.7599 21.21 26.8099 21.2601 28.9399 21.2601C29.6099 19.6401 29.7399 18.9701 29.7999 18.5901L35.5599 19.3201V19.3101Z" fill="black"/>
<path d="M23.5699 45.05C28.0999 44.55 29.1499 41.81 29.1499 40.09C29.1499 36.74 26.1099 36.32 25.3899 36.23C25.3299 40.23 22.9599 47.15 19.6899 47.15C17.9299 47.15 14.8599 45.18 14.8599 41.1C14.8599 36.6 18.8199 32.99 24.4899 32.99C29.5499 32.99 33.0899 35.73 33.0899 40.05C33.0899 44.84 28.9199 47.65 25.5199 48.22C25.1199 47.53 24.3899 46.3 23.5599 45.05H23.5699ZM18.4499 41.29C18.4499 42.5 19.0399 43.34 19.3799 43.34C19.8699 43.34 21.2199 40.65 21.6699 36.58C20.4999 36.94 18.4499 38.87 18.4499 41.29Z" fill="black"/>
<path d="M29.28 52.71C27.86 51.22 26.51 50.3399 25.21 49.6299L27.4099 47.46C29.3899 48.51 30.8899 49.67 31.8599 50.45L29.2899 52.71H29.28Z" fill="black"/>
<path d="M23.27 82.8402C23.27 84.0502 22.17 84.4602 21.88 84.5502C21.11 84.7802 18.4399 84.7802 17.1599 84.7802V84.7402C16.9799 84.8502 16.7699 85.0102 16.5999 85.1302H25.68L28.02 86.3902C27.4 86.9602 26.24 88.0102 23.13 89.5202C25.83 89.8802 28.14 90.0402 30.25 90.0402C30.87 90.0402 31.3499 90.0202 31.7899 90.0002C29.9799 91.6202 29.54 92.0102 28.88 93.2702C27.57 93.2302 23.51 93.0702 17.7 91.5302C16.6 91.8302 11.5 93.1802 6.00998 93.2002C5.53998 91.9902 4.67997 90.9802 3.18997 90.0902C3.68997 90.1102 3.83997 90.1102 4.40997 90.1102C6.62997 90.1102 10.11 89.7902 12.09 89.5002C11.38 89.1102 10.93 88.8102 10.55 88.5202C10.19 88.6602 8.73997 89.2302 6.68997 89.8202C5.76997 88.8102 4.13997 87.9202 2.71997 87.3302C5.74997 86.7602 7.2 86.1002 9.28 85.1802C8.75 84.7502 8.23997 84.4702 7.46997 84.0602C6.93997 84.4702 6.54997 84.7002 6.18997 84.9302C5.17997 84.2902 4.31997 83.8602 2.71997 83.3302C4.49997 82.2602 5.59998 80.9302 5.91998 80.5402H3.45996V77.7302H14.44V76.6602L20.64 76.7702C20.76 76.7702 21.26 76.7902 21.26 77.0202C21.26 77.2502 20.93 77.3202 20.31 77.4302V77.7302H31.14V80.5402H26.63C29.06 81.6602 30.49 82.7302 31.32 83.3902C30.02 83.8002 28.83 84.2602 27.4 85.1302C26.87 84.6702 25.59 83.5602 23.28 82.3702V82.8302L23.27 82.8402ZM10.28 81.0102C10.52 81.0602 10.81 81.1502 10.81 81.3302C10.81 81.5602 10.39 81.6002 9.94998 81.6302C9.67998 82.0202 9.41996 82.4302 8.61996 83.1402C9.35996 82.9302 11.3799 82.3602 11.9099 80.5402H7.98996L10.27 81.0002L10.28 81.0102ZM17.0999 84.1602C16.9499 83.6602 16.63 83.0002 16.3 82.5602C15.88 83.1502 15.44 83.5002 14.94 83.8902L17.11 84.1602H17.0999ZM15.95 87.5602C16.72 88.0202 17.46 88.2702 17.58 88.3202C18.32 88.0502 18.77 87.8402 19.3 87.5602H15.95ZM17.0999 80.5502C16.9799 81.1002 16.7999 81.6702 16.5399 82.1502C16.9299 82.1702 17.13 82.1902 17.31 82.1902C17.99 82.1902 18.11 82.0502 18.11 81.5302V80.5502H17.0999ZM25.88 80.5502H23.27V81.6502L25.88 80.5502Z" fill="black"/>
<path d="M14.91 98.7599C14.26 99.2899 11.25 101.52 10.64 101.98C10.86 101.87 10.9801 101.84 11.2701 101.84C11.4101 101.84 12.56 101.84 12.56 103.19C12.56 103.48 12.42 104.99 12.42 104.99C12.38 105.45 12.8 105.61 14.04 105.61C15.28 105.61 16.71 105.29 17.66 104.95C17.62 105.32 17.58 105.68 17.58 106.43C17.58 106.91 17.58 107.07 17.66 108.55C16.85 108.73 15.25 109.07 13.01 109.07C9.83004 109.07 8.72003 108.46 8.72003 106.69C8.72003 106.42 8.78003 105.28 8.78003 105.05C8.78003 104.77 8.76004 104.53 8.42004 104.53C7.87004 104.53 5.10003 107.16 3.28003 109.37L0.290039 106.51C0.840039 106.08 3.32003 104.2 3.81003 103.81C4.27003 103.45 7.31003 100.84 7.69003 100.5C5.69003 101.09 3.34003 101.3 2.81003 101.34L2.04004 97.9199C4.45004 98.0299 9.63002 97.44 12.8 96.34L14.92 98.78L14.91 98.7599ZM5.24002 92.6699C5.91002 92.7899 8.52001 93.1699 12.42 93.1299C12.3 94.0399 12.14 95.3699 12.12 96.2599C11.84 96.2999 11.69 96.2999 11.33 96.2999C10.95 96.2999 7.75004 96.2099 4.88004 95.8699L5.24002 92.6699Z" fill="black"/>
<path d="M28.43 96.8799C27.44 97.7599 24.42 100.99 23.7 102.05C24.06 101.84 24.47 101.61 25.42 101.61C28.76 101.61 31.13 104.8 31.13 108.6C31.13 112.61 28.4 116.9 23.56 116.9C23.05 116.9 18.26 116.85 18.26 112.25C18.26 109.11 20.69 108.14 21.98 108.14C23.86 108.14 25.8 109.53 26.39 111.25C26.98 110.94 27.4 109.73 27.4 108.73C27.4 107.52 26.83 105.54 24.3 105.54C21.77 105.54 20.11 107.19 18.58 109.09C17.39 110.56 16.92 111.4 16.62 111.92L14.03 107.86C17.21 104.83 20.12 101.17 21.17 99.4299C20.48 99.6399 18.96 100.07 16.62 100.15L16.17 95.39C16.59 95.44 17.26 95.4699 18.03 95.4699C20.26 95.4699 23.8 95.0599 26.12 93.6699L28.43 96.8799ZM22.14 111.74C21.65 111.74 21.55 112.07 21.55 112.28C21.55 113 22.64 113.13 22.99 113.13C23.33 113.13 23.52 113.05 23.7 113.03C23.5 112.03 22.53 111.74 22.14 111.74Z" fill="black"/>
<path d="M32.6699 116.89C32.6699 118.3 31.38 119.47 29.78 119.47C28.18 119.47 26.9099 118.3 26.9099 116.89C26.9099 115.48 28.2 114.29 29.78 114.29C31.36 114.29 32.6699 115.43 32.6699 116.89ZM28.34 116.89C28.34 117.6 28.99 118.19 29.78 118.19C30.57 118.19 31.2399 117.59 31.2399 116.89C31.2399 116.19 30.61 115.57 29.78 115.57C28.95 115.57 28.34 116.16 28.34 116.89Z" fill="black"/>
<path d="M44.9199 72.9899C44.7999 73.1799 44.6799 73.2399 44.3499 73.2399C43.1599 78.0799 41.2299 80.0799 40.4199 80.9399C39.6499 79.6899 38.4199 78.5299 37.7299 78.1699V80.96H34.21V73.27C33.74 73.85 33.58 74.0199 33.28 74.3499C32.9 72.7699 32.5099 71.4999 31.6799 69.7599C33.9499 67.5999 35.54 64.3899 35.89 63.4999H32.2499V58.9899H34.21V55.2L37.7299 55.34C37.9099 55.34 38.28 55.4 38.28 55.78C38.28 56.11 38.1599 56.2 37.7299 56.53V58.9899H39.2299L40.08 60.2899V55.7199H50.03V71.3599H48.3099V75.8699C48.3099 76.1499 48.3099 76.3699 48.5099 76.3699C48.6899 76.3699 48.73 76.2299 48.77 75.9799C48.89 75.3399 48.93 74.1499 48.95 73.2999C49.56 74.2999 50.3899 75.0199 51.1899 75.2899C50.8499 79.7199 50.5399 80.5999 47.8499 80.5999C45.1599 80.5999 44.9399 79.9599 44.9399 77.6099V72.9899H44.9199ZM40.0699 71.3499V70.7999C39.0599 72.2399 38.8399 72.7399 38.6699 73.1799C38.4299 72.8799 38.2699 72.6799 37.7199 71.8499V77.7999C39.7799 76.1399 40.7999 73.5399 41.1199 71.3499H40.0699ZM40.0699 62.9399C39.4599 64.4899 38.7799 65.8999 38.4699 66.5399C39.0799 67.4499 39.6999 68.23 40.0699 68.64V62.9399ZM44.58 72.2899C44.78 72.3699 44.8199 72.4 44.9199 72.71V71.3499H42.5499L44.59 72.2899H44.58ZM46.3599 60.28V59.45H43.4699V60.28H46.3599ZM43.4799 63.08V63.9099H46.3699V63.08H43.4799ZM43.4799 66.7299V67.5599H46.3699V66.7299H43.4799Z" fill="black"/>
<path d="M58.0099 86.2798C58.4499 87.1298 59.1999 88.6098 59.6199 90.5098C58.0999 90.5298 56.0199 90.7798 54.8599 90.9398C54.7499 89.1598 54.2499 87.8597 54.0599 87.3497C54.0099 87.6197 53.8899 87.7098 53.0399 87.7598C52.7099 88.3298 51.68 89.8898 50.33 91.2498C48.78 90.4298 46.7299 89.8597 46.1799 89.7197C47.3699 88.6397 48.4499 87.2598 49.1099 85.9498L53.3199 86.9797C53.7099 87.0697 53.8499 87.1598 54.0399 87.2798C53.9799 87.1398 53.9299 87.0498 53.7599 86.7598L58.02 86.2798H58.0099ZM71.9299 75.6398V78.5598H61.9399V79.1797H70.6599V85.9197H49.1199V79.1797H56.5099V74.4697L62.3499 74.6097C62.4299 74.6097 62.8199 74.6498 62.8199 74.8798C62.8199 75.1298 62.5399 75.1598 61.9299 75.2698V75.6398H71.9199H71.9299ZM54.3199 81.9598V83.1298H65.4199V81.9598H54.3199ZM64.0099 86.0798C65.1699 87.6498 65.81 88.8598 66.28 90.3298C64.73 90.4198 63.0099 90.6498 61.5499 90.9498C60.8599 88.4898 60.0599 87.3897 59.6699 86.8597L64.02 86.0798H64.0099ZM70.0999 85.9897C71.8199 87.8097 72.5399 88.6597 73.2299 89.9197C71.8499 90.1197 70.57 90.3597 68.77 90.9697C68.35 89.8497 67.16 88.1398 66.03 87.1298L70.0999 85.9897Z" fill="black"/>
<path d="M51.84 94.5997C49.17 95.3697 48.46 95.5998 47.33 96.0198C47.35 96.2998 47.43 97.5098 47.39 98.7598C46.01 98.7798 45.22 98.8298 43.67 98.9398C43.73 98.6198 43.77 98.3698 43.81 97.5698C43.49 97.7498 42.31 98.4197 42.31 98.9797C42.31 99.7097 44.47 99.7098 45.22 99.7098C46.74 99.7098 49.29 99.5498 50.74 99.0898C50.56 100.14 50.58 101.37 50.62 102.38C49.04 102.61 47.26 102.7 45.64 102.7C42.42 102.7 38.44 102.36 38.44 99.4097C38.44 97.1997 41.52 95.5298 43.17 94.7098C42.95 94.5298 42.66 94.4598 42.36 94.4598C40.28 94.4598 38.56 96.5998 37.63 97.9498L34.27 96.1198C35.4 95.0198 36.35 93.9997 37.97 91.7297C36.55 91.7297 36.05 91.6898 35.6 91.6398L35.72 88.4697C36.73 88.6797 37.8 88.6797 39.83 88.6797C40.26 87.8797 40.6 87.2398 40.84 86.5098L44.6 87.0798C44.92 87.1298 45.07 87.1998 45.07 87.3798C45.07 87.6098 44.81 87.6498 44.48 87.6998C44.34 87.8798 44.16 88.1798 43.95 88.5198C46.42 88.2898 46.98 88.2397 48 87.9297L47.86 90.9697C47.33 91.1297 46.54 91.3398 41.93 91.5898C41.59 92.0398 41.46 92.2498 41.12 92.6898C42.25 92.1198 43.55 91.9998 43.97 91.9998C44.64 91.9998 45.75 92.2498 46.54 93.2498C49.7 91.8798 49.84 91.8098 50.46 91.3998L51.86 94.5997H51.84Z" fill="black"/>
</g>
<defs>
<clipPath id="clip0_20_47">
<rect width="82" height="120" fill="white"/>
</clipPath>
</defs>
</svg>
