<svg width="390" height="309" viewBox="0 0 390 309" fill="none" xmlns="http://www.w3.org/2000/svg">
<g clip-path="url(#clip0_20_114)">
<path d="M0.109863 18.55C0.509863 15.69 1.49986 13.97 5.12986 11.31C7.47986 9.58996 8.18986 8.70996 8.18986 7.30996C8.18986 5.78996 7.12986 4.64996 5.67986 4.64996C3.45986 4.64996 3.38986 6.95996 3.36986 8.14996H0.569863C0.609863 6.71996 0.789864 2.20996 5.75986 2.20996C9.05986 2.20996 11.1999 4.49996 11.1999 7.31996C11.1999 9.88996 9.36986 11.35 7.27986 12.8C5.11986 14.3 4.56986 14.91 3.88986 16.25H11.3299V18.56H0.109863V18.55Z" fill="black"/>
<path d="M20.1501 18.86C15.0501 18.86 14.5601 12.88 14.5601 10.81C14.5601 8.16996 15.0201 2.20996 20.1501 2.20996C22.1701 2.20996 23.5201 3.19996 24.3701 4.55996C25.4701 6.31996 25.7301 8.44996 25.7301 10.52C25.7301 12.59 25.4001 18.86 20.1401 18.86H20.1501ZM20.1101 4.57996C18.6401 4.57996 17.5801 5.65996 17.5801 10.52C17.5601 15.6 18.7201 16.48 20.1501 16.48C21.7601 16.48 22.7001 15.25 22.7001 10.52C22.7001 5.43996 21.5601 4.57996 20.1001 4.57996H20.1101Z" fill="black"/>
<path d="M28.9702 18.55C29.3702 15.69 30.3602 13.97 33.9902 11.31C36.3402 9.58996 37.0502 8.70996 37.0502 7.30996C37.0502 5.78996 35.9902 4.64996 34.5402 4.64996C32.3202 4.64996 32.2502 6.95996 32.2302 8.14996H29.4402C29.4802 6.71996 29.6602 2.20996 34.6302 2.20996C37.9302 2.20996 40.0602 4.49996 40.0602 7.31996C40.0602 9.88996 38.2302 11.35 36.1402 12.8C33.9802 14.3 33.4302 14.91 32.7502 16.25H40.1902V18.56H28.9702V18.55Z" fill="black"/>
<path d="M49.15 18.86C44.73 18.86 43.52 14.57 43.52 11.27C43.52 9.57995 43.67 2.19995 49.42 2.19995C50.74 2.19995 51.93 2.65995 52.85 3.53995C53.73 4.37995 53.99 5.07995 54.28 6.52995H51.38C51.29 5.53995 50.59 4.63995 49.36 4.63995C47.01 4.63995 46.65 7.45995 46.39 9.60995C47.23 8.15995 48.79 7.88995 49.67 7.88995C52.35 7.88995 54.53 10.11 54.53 13.08C54.53 15.72 52.68 18.84 49.16 18.84L49.15 18.86ZM49.15 10.32C47.41 10.32 46.51 11.86 46.51 13.36C46.51 15.03 47.54 16.24 49.04 16.24C50.38 16.24 51.53 15.21 51.53 13.34C51.53 11.62 50.61 10.33 49.15 10.33V10.32Z" fill="black"/>
<path d="M71.1099 15.34V19.67H68.3399V15.34H58.9699V13.01H62.1399V7.76999H68.3399V5.12999H63.2799C62.0299 7.12999 61.3399 7.85999 60.8199 8.42999L58.4399 7.17999C60.4899 5.10999 61.9199 2.70999 62.7099 0.48999L65.4199 1.49999C65.5299 1.53999 65.5699 1.62999 65.5699 1.69999C65.5699 1.76999 65.5299 1.84999 65.4599 1.89999C65.3899 1.91999 65.0399 2.00999 64.9999 2.07999C64.9599 2.07999 64.5599 2.82999 64.5199 2.91999H76.7099V5.13999H71.0299V7.77999H74.8599V10.05H71.0299V13.02H77.7599V15.35H71.1099V15.34ZM68.3299 10.03H64.7899V13H68.3299V10.03Z" fill="black"/>
<path d="M110.62 18.55C111.02 15.69 112.01 13.97 115.64 11.31C117.99 9.58996 118.7 8.70996 118.7 7.30996C118.7 5.78996 117.64 4.64996 116.19 4.64996C113.97 4.64996 113.9 6.95996 113.88 8.14996H111.09C111.13 6.71996 111.31 2.20996 116.28 2.20996C119.58 2.20996 121.71 4.49996 121.71 7.31996C121.71 9.88996 119.88 11.35 117.79 12.8C115.63 14.3 115.08 14.91 114.4 16.25H121.84V18.56H110.62V18.55Z" fill="black"/>
<path d="M136.84 19.67L135.76 16.79C136.13 16.86 136.64 16.92 137.5 16.92C138.14 16.92 138.31 16.74 138.31 16.26V12.63H131.69C130.96 15.75 130 17.47 127.47 19.41L125.29 17.61C126.85 16.36 129.38 14.35 129.38 9.44998V1.22998H140.87V17.45C140.87 19.52 139.09 19.67 136.84 19.67ZM138.32 8.02998H132.07C132.07 9.25998 132.03 9.82998 131.98 10.32H138.32V8.02998ZM138.32 3.53998H132.07V5.82998H138.32V3.53998Z" fill="black"/>
<path d="M174.96 18.55C175.36 15.69 176.35 13.97 179.98 11.31C182.33 9.58996 183.04 8.70996 183.04 7.30996C183.04 5.78996 181.98 4.64996 180.53 4.64996C178.31 4.64996 178.24 6.95996 178.22 8.14996H175.43C175.47 6.71996 175.65 2.20996 180.62 2.20996C183.92 2.20996 186.05 4.49996 186.05 7.31996C186.05 9.88996 184.22 11.35 182.13 12.8C179.97 14.3 179.42 14.91 178.74 16.25H186.18V18.56H174.96V18.55Z" fill="black"/>
<path d="M194.92 18.86C193.25 18.86 191.82 18.24 190.85 17.28C190.04 16.44 189.64 15.65 189.44 13.41H192.37C192.46 15.68 193.6 16.42 194.92 16.42C196.46 16.42 197.56 15.36 197.56 13.69C197.56 11.86 196.42 11.16 194.7 11.16H193.47V9.19996H194.7C196.24 9.19996 197.21 8.16996 197.21 6.86996C197.21 6.07996 196.81 4.64996 194.9 4.64996C192.52 4.64996 192.44 6.69996 192.41 7.39996H189.75C189.77 6.60996 189.84 5.65996 190.56 4.51996C191.51 3.04996 193.2 2.20996 195.09 2.20996C197.58 2.20996 200.08 3.72996 200.08 6.40996C200.08 8.64996 198.67 9.44996 198.17 9.72996C199.01 10.28 200.55 11.27 200.55 13.67C200.55 16.9 197.93 18.86 194.92 18.86Z" fill="black"/>
<path d="M216.68 18.8799V17.7399H208.36V18.9899H205.74V1.93994H219.25V18.8799H216.68ZM216.68 4.35994H208.36V8.53994H216.68V4.35994ZM216.68 10.8299H208.36V15.3399H216.68V10.8299Z" fill="black"/>
<path d="M260.57 21.06C259.27 19.48 256.52 16.11 256.52 10.52C256.52 4.93 259.27 1.56 260.57 0L262.24 1.47C261.12 2.86 258.81 5.72 258.81 10.51C258.81 15.3 261.12 18.17 262.24 19.58L260.57 21.05V21.06Z" fill="black"/>
<path d="M277.95 19.67L276.87 16.79C277.24 16.86 277.75 16.92 278.61 16.92C279.25 16.92 279.42 16.74 279.42 16.26V12.63H272.8C272.07 15.75 271.11 17.47 268.58 19.41L266.4 17.61C267.96 16.36 270.49 14.35 270.49 9.44998V1.22998H281.98V17.45C281.98 19.52 280.2 19.67 277.95 19.67ZM279.42 8.02998H273.17C273.17 9.25998 273.13 9.82998 273.08 10.32H279.42V8.02998ZM279.42 3.53998H273.17V5.82998H279.42V3.53998Z" fill="black"/>
<path d="M289.87 21.06L288.2 19.59C289.32 18.18 291.63 15.34 291.63 10.52C291.63 5.70001 289.32 2.86001 288.2 1.48001L289.87 0.0100098C291.17 1.59001 293.92 4.94001 293.92 10.53C293.92 16.12 291.17 19.49 289.87 21.07V21.06Z" fill="black"/>
<path d="M4.76992 40.5502V29.3702H0.419922V27.2802H1.69992C2.86992 27.2802 4.70992 26.5802 5.19992 24.4902H7.57992V40.5502H4.78992H4.76992Z" fill="black"/>
<path d="M17.4199 40.86C15.7499 40.86 14.3199 40.24 13.3499 39.28C12.5399 38.44 12.1399 37.65 11.9399 35.41H14.8699C14.9599 37.68 16.0999 38.42 17.4199 38.42C18.9599 38.42 20.0599 37.36 20.0599 35.69C20.0599 33.86 18.9199 33.16 17.1999 33.16H15.9699V31.2H17.1999C18.7399 31.2 19.7099 30.17 19.7099 28.87C19.7099 28.08 19.3099 26.65 17.3999 26.65C15.0199 26.65 14.9399 28.7 14.9099 29.4H12.2499C12.2699 28.61 12.3399 27.66 13.0599 26.52C14.0099 25.05 15.6999 24.21 17.5899 24.21C20.0799 24.21 22.5799 25.73 22.5799 28.41C22.5799 30.65 21.1699 31.45 20.6699 31.73C21.5099 32.28 23.0499 33.27 23.0499 35.67C23.0499 38.9 20.4299 40.86 17.4199 40.86Z" fill="black"/>
<path d="M27.1899 29.9502V26.9102H30.1599V29.9502H27.1899ZM27.1899 38.7502V35.7102H30.1599V38.7502H27.1899Z" fill="black"/>
<path d="M39.84 40.86C34.74 40.86 34.25 34.88 34.25 32.81C34.25 30.17 34.71 24.21 39.84 24.21C41.86 24.21 43.21 25.2 44.06 26.56C45.16 28.32 45.42 30.45 45.42 32.52C45.42 34.59 45.09 40.86 39.83 40.86H39.84ZM39.8 26.58C38.33 26.58 37.27 27.66 37.27 32.52C37.25 37.6 38.41 38.48 39.84 38.48C41.45 38.48 42.39 37.25 42.39 32.52C42.39 27.44 41.25 26.58 39.79 26.58H39.8Z" fill="black"/>
<path d="M54.2702 40.86C49.1702 40.86 48.6802 34.88 48.6802 32.81C48.6802 30.17 49.1402 24.21 54.2702 24.21C56.2902 24.21 57.6402 25.2 58.4902 26.56C59.5902 28.32 59.8502 30.45 59.8502 32.52C59.8502 34.59 59.5202 40.86 54.2602 40.86H54.2702ZM54.2302 26.58C52.7602 26.58 51.7002 27.66 51.7002 32.52C51.6802 37.6 52.8402 38.48 54.2702 38.48C55.8802 38.48 56.8202 37.25 56.8202 32.52C56.8202 27.44 55.6802 26.58 54.2202 26.58H54.2302Z" fill="black"/>
<path d="M72.1201 33.4901V30.8901H77.6201V33.4901H72.1201Z" fill="black"/>
<path d="M96.7101 40.5502V29.3702H92.3501V27.2802H93.6301C94.8001 27.2802 96.6401 26.5802 97.1301 24.4902H99.5101V40.5502H96.7201H96.7101Z" fill="black"/>
<path d="M111.03 33.3302C109.78 36.4502 109.58 38.6302 109.38 40.5502H106.32C106.43 39.0802 106.56 37.2902 107.84 33.9502C109.34 29.9902 110.79 28.5802 112.44 27.0002L111.45 27.1102H103.57V24.4902H115.32V27.1102C113.98 28.4302 112.35 30.0202 111.03 33.3402V33.3302Z" fill="black"/>
<path d="M119.13 29.9502V26.9102H122.1V29.9502H119.13ZM119.13 38.7502V35.7102H122.1V38.7502H119.13Z" fill="black"/>
<path d="M131.78 40.86C126.68 40.86 126.19 34.88 126.19 32.81C126.19 30.17 126.65 24.21 131.78 24.21C133.8 24.21 135.15 25.2 136 26.56C137.1 28.32 137.36 30.45 137.36 32.52C137.36 34.59 137.03 40.86 131.77 40.86H131.78ZM131.74 26.58C130.27 26.58 129.21 27.66 129.21 32.52C129.19 37.6 130.35 38.48 131.78 38.48C133.39 38.48 134.33 37.25 134.33 32.52C134.33 27.44 133.19 26.58 131.73 26.58H131.74Z" fill="black"/>
<path d="M146.21 40.86C141.11 40.86 140.62 34.88 140.62 32.81C140.62 30.17 141.08 24.21 146.21 24.21C148.23 24.21 149.58 25.2 150.43 26.56C151.53 28.32 151.79 30.45 151.79 32.52C151.79 34.59 151.46 40.86 146.2 40.86H146.21ZM146.17 26.58C144.7 26.58 143.64 27.66 143.64 32.52C143.62 37.6 144.78 38.48 146.21 38.48C147.82 38.48 148.76 37.25 148.76 32.52C148.76 27.44 147.62 26.58 146.16 26.58H146.17Z" fill="black"/>
<path d="M20.04 55.9C20.3 56.12 20.35 56.21 20.35 56.34C20.35 56.6 20.26 56.6 19.45 56.6C19.32 56.6 18.81 57 18.64 57.15C18.53 57.24 18.13 57.52 17.72 57.81C19.02 59.94 20.51 60.85 21.06 61.2L19.23 62.78C16.35 60.62 14.61 57.3 14.17 53.74C13.86 54.03 13.58 54.27 12.83 54.8C14.92 56.71 15.21 59.22 15.21 60.37C15.21 63.16 14.13 63.76 11.78 63.8L10.83 61.8C12.41 61.84 13.16 61.73 13.14 59.97C11.12 61.55 9.29 62.54 7.77 63.27L6.52 61.71C9.62 60.59 11.56 59.11 12.7 58.06C12.59 57.8 12.48 57.58 12.39 57.44C11.03 58.65 9.9 59.44 7.29 60.67L5.86 59.24C6.85 58.89 9.31 58.03 11.51 56.16C11.33 55.98 11.31 55.94 11.22 55.85C9.28 57.02 8.36 57.46 7.39 57.87L5.76 56.29C7.54 55.81 9.26 55.12 11.09 53.67H7.66V50.48C7.66 50.48 7.35 50.74 7.24 50.81L5.92 49.67C5.9 49.85 5.88 49.91 5.61 50.11C5.57 50.15 5.35 50.31 5.35 50.46V63.75H2.89V53.19C2.43 53.87 2.25 54.09 1.94 54.44L0 52.99C1.54 51.19 3.39 48.66 4.07 44.81L6.23 45.12C6.91 45.23 7.07 45.38 7.07 45.56C7.07 45.69 7.03 45.76 6.92 45.85C6.81 45.92 6.46 46.18 6.41 46.22C6.3 46.35 5.44 48.66 5.24 49.12C5.39 49.19 5.46 49.23 5.68 49.34C7.35 47.91 8.41 46.72 9.62 44.48L11.53 44.68C12.15 44.77 12.21 44.86 12.21 45.01C12.21 45.25 11.88 45.38 11.7 45.47L11.61 45.62H16.69L17.46 46.24C16.67 47.36 16.47 47.6 15.52 48.73H19.61V53.68H16.27C16.36 54.58 16.51 55.24 16.82 56.06C17.83 55.27 18.14 54.85 18.38 54.54L20.03 55.9H20.04ZM10.47 47.46C10.03 48.01 9.92 48.19 9.44 48.74H12.83C12.96 48.56 13.6 47.66 13.73 47.46H10.47ZM12.34 52.01V50.4H9.99V52.01H12.34ZM14.81 52.01H17.32V50.4H14.81V52.01Z" fill="black"/>
<path d="M41.74 58.8299C40.09 61.2699 37.8 62.2199 36.61 62.6999L34.98 60.4299C35.97 60.1399 37.6 59.6799 38.94 58.0799C40.28 56.4999 40.52 54.6699 40.52 53.6999C40.52 52.4899 40.17 51.0199 38.94 49.8499C37.55 48.5299 36.01 48.4399 35.2 48.3799C34.5 53.6199 33.2 56.6999 32.47 58.1699C31.81 59.5299 30.8 61.3799 29.65 61.3799C28.86 61.3799 25.25 59.3999 25.25 55.4599C25.25 50.5799 29.28 46.1299 34.95 46.1299C39.53 46.1299 43.14 49.2299 43.14 54.1399C43.14 56.0799 42.55 57.6199 41.73 58.8299H41.74ZM29.9 50.3599C28.34 51.8599 27.7 53.8999 27.7 55.2399C27.7 57.0199 28.71 57.9499 29.11 57.9499C30.25 57.9499 32.15 52.2099 32.59 48.7699C31.95 48.9899 30.96 49.3199 29.91 50.3499L29.9 50.3599Z" fill="black"/>
<path d="M62.6098 60.48V63.6H60.0098V60.48H55.7398C54.7298 63.1 52.1798 63.65 50.8998 63.91L49.3998 61.67C50.8998 61.56 52.1498 61.36 52.8098 60.48H48.3398V58.59H53.5298C53.5698 58.39 53.5998 58.22 53.6398 57.91H49.5898V52.91H66.0498V57.91H62.5998V58.59H67.2398V60.48H62.5998H62.6098ZM50.8198 52.38V45.84H55.2198C55.4598 45.42 55.7498 44.89 55.9498 44.54L58.6798 44.74C58.7698 44.74 59.0998 44.76 59.0998 44.94C59.0998 45.18 58.7698 45.27 58.4598 45.45C58.3498 45.58 58.2598 45.71 58.1498 45.85H64.6398V52.39H50.8198V52.38ZM56.4798 54.21H52.1198V54.85H56.4798V54.21ZM56.4798 55.88H52.1198V56.52H56.4798V55.88ZM62.1998 47.23H53.2898V47.85H62.1998V47.23ZM62.1998 48.82H53.2898V49.44H62.1998V48.82ZM62.1998 50.4H53.2898V51.02H62.1998V50.4ZM60.0198 57.91H56.2598C56.2398 58 56.2398 58.33 56.1898 58.59H60.0198V57.91ZM63.5798 54.21H58.9998V54.85H63.5798V54.21ZM63.5798 55.88H58.9998V56.52H63.5798V55.88Z" fill="black"/>
<path d="M110.77 53.6798C110.75 54.9098 110.68 57.1598 109.38 59.3798C107.91 61.8898 105.71 62.8998 104.5 63.4698L102.34 61.6698C106.74 60.0898 108.1 57.9698 108.22 53.6798H100.83V51.4098H117.44V53.6798H110.77ZM103.82 48.2198V45.8398H114.47V48.2198H103.82Z" fill="black"/>
<path d="M136.67 53.4198C135.83 55.3998 135.02 57.3998 133.04 59.5398C130.8 61.9598 128.38 62.9698 126.92 63.5898L124.87 61.6998C126.19 61.2398 128.65 60.3598 131.03 57.8098C132.88 55.8098 133.52 54.0298 133.82 53.1498H122.4V50.7298H134.88C135.23 50.7298 135.69 50.4698 135.96 50.3098L137.74 52.1998C136.97 52.8198 136.73 53.2998 136.66 53.4298L136.67 53.4198ZM124.61 48.2698V45.7798H135.06V48.2698H124.61Z" fill="black"/>
<path d="M156.97 61.9999C154.97 59.5399 153.41 57.9499 151.6 56.4999C149.84 58.4599 148.21 60.1299 144.08 62.1499L142.14 60.1499C143.57 59.5299 146.36 58.3699 149.16 55.3999C151.54 52.8699 152.39 50.6499 152.9 49.3899H144.52V46.8399H154C154.42 46.8399 154.75 46.6199 155.14 46.3599L156.83 48.2299C156.39 48.5399 155.91 48.9099 155.64 49.5499C154.89 51.3099 154.47 52.3199 153.09 54.4799C155.22 56.0899 157.12 57.9599 158.92 59.9099L156.96 61.9999H156.97Z" fill="black"/>
<path d="M1.22998 70.5299V68.1499H16.72V70.5299H1.22998ZM10.3 75.0399V84.2099H7.65998V75.0399H1.22998V72.6599H16.72V75.0399H10.3Z" fill="black"/>
<path d="M21.0498 84.55C21.4498 81.69 22.4398 79.97 26.0698 77.31C28.4198 75.59 29.1298 74.71 29.1298 73.31C29.1298 71.79 28.0698 70.65 26.6198 70.65C24.3998 70.65 24.3298 72.96 24.3098 74.15H21.5198C21.5598 72.72 21.7398 68.21 26.7098 68.21C30.0098 68.21 32.1498 70.5 32.1498 73.32C32.1498 75.89 30.3198 77.35 28.2298 78.8C26.0698 80.3 25.5198 80.91 24.8398 82.25H32.2798V84.56H21.0598L21.0498 84.55Z" fill="black"/>
<path d="M41.0098 84.86C39.3398 84.86 37.9098 84.24 36.9398 83.28C36.1298 82.44 35.7298 81.65 35.5298 79.41H38.4598C38.5498 81.68 39.6898 82.42 41.0098 82.42C42.5498 82.42 43.6498 81.36 43.6498 79.69C43.6498 77.86 42.5098 77.16 40.7898 77.16H39.5598V75.2H40.7898C42.3298 75.2 43.2998 74.17 43.2998 72.87C43.2998 72.08 42.8998 70.65 40.9898 70.65C38.6098 70.65 38.5298 72.7 38.4998 73.4H35.8398C35.8598 72.61 35.9298 71.66 36.6498 70.52C37.5998 69.05 39.2898 68.21 41.1798 68.21C43.6698 68.21 46.1698 69.73 46.1698 72.41C46.1698 74.65 44.7598 75.45 44.2598 75.73C45.0998 76.28 46.6398 77.27 46.6398 79.67C46.6398 82.9 44.0198 84.86 41.0098 84.86Z" fill="black"/>
<path d="M54.5802 84.5502V73.3702H50.2202V71.2802H51.5002C52.6702 71.2802 54.5102 70.5802 55.0002 68.4902H57.3802V84.5502H54.5902H54.5802Z" fill="black"/>
<path d="M73.3701 77.4901V74.8901H78.8701V77.4901H73.3701Z" fill="black"/>
<path d="M98.9098 84.86C93.8098 84.86 93.3198 78.88 93.3198 76.81C93.3198 74.17 93.7798 68.21 98.9098 68.21C100.93 68.21 102.28 69.2 103.13 70.56C104.23 72.32 104.49 74.45 104.49 76.52C104.49 78.59 104.16 84.86 98.8998 84.86H98.9098ZM98.8698 70.58C97.3998 70.58 96.3398 71.66 96.3398 76.52C96.3198 81.6 97.4798 82.48 98.9098 82.48C100.52 82.48 101.46 81.25 101.46 76.52C101.46 71.44 100.32 70.58 98.8598 70.58H98.8698Z" fill="black"/>
<path d="M113.34 84.86C108.24 84.86 107.75 78.88 107.75 76.81C107.75 74.17 108.21 68.21 113.34 68.21C115.36 68.21 116.71 69.2 117.56 70.56C118.66 72.32 118.92 74.45 118.92 76.52C118.92 78.59 118.59 84.86 113.33 84.86H113.34ZM113.3 70.58C111.83 70.58 110.77 71.66 110.77 76.52C110.75 81.6 111.91 82.48 113.34 82.48C114.95 82.48 115.89 81.25 115.89 76.52C115.89 71.44 114.75 70.58 113.29 70.58H113.3Z" fill="black"/>
<path d="M127.78 84.86C122.68 84.86 122.19 78.88 122.19 76.81C122.19 74.17 122.65 68.21 127.78 68.21C129.8 68.21 131.15 69.2 132 70.56C133.1 72.32 133.36 74.45 133.36 76.52C133.36 78.59 133.03 84.86 127.77 84.86H127.78ZM127.73 70.58C126.26 70.58 125.2 71.66 125.2 76.52C125.18 81.6 126.34 82.48 127.77 82.48C129.38 82.48 130.32 81.25 130.32 76.52C130.32 71.44 129.18 70.58 127.72 70.58H127.73Z" fill="black"/>
<path d="M136.6 84.55C137 81.69 137.99 79.97 141.62 77.31C143.97 75.59 144.68 74.71 144.68 73.31C144.68 71.79 143.62 70.65 142.17 70.65C139.95 70.65 139.88 72.96 139.86 74.15H137.07C137.11 72.72 137.29 68.21 142.26 68.21C145.56 68.21 147.69 70.5 147.69 73.32C147.69 75.89 145.86 77.35 143.77 78.8C141.61 80.3 141.06 80.91 140.38 82.25H147.82V84.56H136.6V84.55Z" fill="black"/>
<path d="M14.7001 95.7701V96.8901H18.9501V104.02H16.0901C17.0401 104.81 18.6001 105.56 19.8501 105.93L18.6201 107.58C17.1501 107.05 15.7201 106.35 14.3501 105.12L15.3801 104.02H11.8201L12.6101 104.79C12.7901 104.97 12.9201 105.12 12.9201 105.25C12.9201 105.4 12.7701 105.4 12.4801 105.4C12.3901 105.4 12.3501 105.42 12.2201 105.53C11.0801 106.56 9.36006 107.44 8.68006 107.73L7.21006 106.12C8.86006 105.59 10.2701 104.78 10.9901 104.01H8.39006V96.8801H12.3901V95.7601H7.46006V94.2201H5.68006V95.4301C5.68006 95.8701 6.45006 97.0101 6.76006 97.4501C7.05006 97.8901 7.40006 98.3301 7.73006 98.7501L6.43006 100.33C5.88006 99.6001 5.77006 99.4101 5.68006 99.2301V107.61H3.50006V100.17C3.19006 100.85 2.71006 101.62 2.20006 102.22L0.310059 101.08C1.76006 99.3901 3.04006 97.0301 3.50006 94.2201H1.21006V92.1301H3.50006V88.8501L5.55006 89.0301C5.70006 89.0501 6.06006 89.0701 6.06006 89.2301C6.06006 89.3001 6.02006 89.3601 5.91006 89.4701C5.71006 89.6501 5.69006 89.6701 5.69006 89.7301V92.1301H7.47006V94.0401H10.2901V92.4301H8.38006V90.7601H10.2901V88.8701L12.4501 89.0201C12.6501 89.0401 12.8701 89.0901 12.8701 89.2401C12.8701 89.3301 12.7801 89.3901 12.6701 89.4601C12.5201 89.5701 12.4701 89.5901 12.4701 89.6601V90.7601H14.4901V88.8501L16.6001 88.9801C16.9701 89.0001 17.0801 89.0701 17.0801 89.2001C17.0801 89.2701 17.0101 89.3101 16.9301 89.3501C16.8601 89.4201 16.7801 89.4601 16.7801 89.5301V90.7601H19.6201V92.4301H16.7801V94.0401H20.1001V95.7601H14.7101L14.7001 95.7701ZM12.3901 98.5001H10.6501V99.7501H12.3901V98.5001ZM12.3901 101.05H10.6501V102.41H12.3901V101.05ZM14.4801 92.4401H12.4601V94.0501H14.4801V92.4401ZM16.6801 98.5001H14.7001V99.7501H16.6801V98.5001ZM16.6801 101.05H14.7001V102.41H16.6801V101.05Z" fill="black"/>
<path d="M28.4201 98.2299C27.7801 97.7899 26.9001 97.1999 24.6401 96.3599L25.8901 94.1799C27.1901 94.6599 28.4401 95.3199 29.5401 96.1599L28.4201 98.2299ZM28.7801 104.24C28.6001 104.64 27.5701 106.59 27.5301 106.79C27.5301 106.86 27.5501 107.14 27.5501 107.21C27.5501 107.25 27.5301 107.47 27.3701 107.47C27.3001 107.47 27.0801 107.38 26.9501 107.29L24.8201 106.01C26.1801 104.14 27.3501 101.98 28.3401 99.4499L30.3401 100.64C29.8601 101.83 29.3301 103.04 28.7801 104.23V104.24ZM29.7201 93.0599C28.4701 92.0699 27.1501 91.4099 26.1601 91.0099L27.5001 88.9599C28.6401 89.4399 29.9201 90.1699 31.0601 91.0299L29.7201 93.0499V93.0599ZM34.6101 101.71L36.5501 103.34C36.6801 103.45 36.8101 103.58 36.8101 103.78C36.8101 104.07 36.3901 104.02 36.0601 104C35.7501 104.35 33.8401 106.35 31.8401 107.63L29.5301 105.89C30.3401 105.52 31.2201 105.12 32.3701 104.15C33.6501 103.07 34.0201 102.37 34.3901 101.71H30.9401V99.3299H32.5201V89.7399C33.4201 89.9599 33.9501 90.0699 34.3701 90.0699C35.1201 90.0699 36.1301 89.9199 36.3301 89.8699C39.5901 89.3399 40.3101 89.0299 41.6501 88.4399L42.9001 90.3999C42.9901 90.5299 43.1401 90.7999 43.1401 90.9499C43.1401 91.0799 42.9901 91.0999 42.8801 91.0999C42.7901 91.0999 42.3701 91.0299 42.2601 91.0299C42.1501 91.0299 40.8101 91.2899 40.6101 91.3399C39.7101 91.5199 36.9801 91.9099 35.0201 91.9599V93.6299H43.6401V95.9399H40.2501V99.3299H44.3201V101.71H34.5901H34.6101ZM37.7801 95.9399H35.0301V99.3299H37.7801V95.9399ZM43.0601 107.65C40.6401 106.22 39.0301 104.5 38.0001 103.23L39.9401 101.8C41.2401 103.56 43.0901 104.81 45.0201 105.8L43.0601 107.65Z" fill="black"/>
<path d="M60.4101 93.5402V95.6302H66.5901V103.35C66.5901 105.35 65.3601 105.84 62.5201 105.88L61.5701 103.42C61.9901 103.46 62.3401 103.46 62.8501 103.46C63.8201 103.46 63.9701 103.31 63.9701 102.6V97.9302H60.4101V108.16H57.6801V97.9302H54.0101V105.9H51.3701V95.6202H57.6801V93.5302H49.5601V91.2002H57.6801V88.7402L60.5201 88.9402C60.6301 88.9402 60.8101 88.9802 60.8101 89.1402C60.8101 89.1802 60.8101 89.2702 60.7001 89.3802C60.4401 89.6402 60.4101 89.6902 60.4101 89.7502V91.2002H68.4901V93.5302H60.4101V93.5402Z" fill="black"/>
<path d="M118.14 102.24V101.36H113.08V107.61H110.55V101.36H105.53V102.33H103V92.45H110.55V88.71L113.3 88.95C113.43 88.97 113.63 88.99 113.63 89.19C113.63 89.34 113.48 89.43 113.39 89.5C113.21 89.61 113.08 89.7 113.08 89.83V92.45H120.67V102.24H118.14ZM110.55 94.84H105.53V98.98H110.55V94.84ZM118.14 94.84H113.08V98.98H118.14V94.84Z" fill="black"/>
<path d="M129.87 106.88V107.52H127.25V89.4102H145.01V91.7402H129.87V104.55H145.12V106.88H129.87ZM141.53 103.91C140.63 102.88 139.66 101.8 137.72 99.9501C135.89 101.69 134.55 102.72 132.57 103.91L130.77 102.04C132.93 101.01 134.44 99.8202 135.92 98.3002C134.45 97.0202 132.86 95.6802 130.95 94.5602L132.36 92.6502C133.83 93.5702 135.11 94.4302 137.57 96.4602C138.54 95.2702 139.4 94.0402 140.25 92.1502L142.58 93.3602C142.76 93.4502 142.82 93.6002 142.82 93.6902C142.82 93.8902 142.62 93.9102 142.49 93.9302C142.09 94.0002 142.07 94.0402 141.87 94.3702C141.25 95.4702 140.7 96.4802 139.43 98.0702C141.3 99.7602 142.31 100.8 143.37 102.01L141.52 103.92L141.53 103.91Z" fill="black"/>
<path d="M181.52 98.8002C180.6 97.9202 179.21 97.0402 178.48 96.6202L179.78 94.7902C180.68 95.2302 181.94 96.0702 182.9 96.8602L181.51 98.8002H181.52ZM180.84 107.38C180.77 107.51 180.77 107.56 180.77 107.86C180.77 107.95 180.75 108.06 180.66 108.06C180.51 108.06 180.29 107.91 180.13 107.77L178.52 106.41C179.82 104.63 180.92 102.74 181.78 100.71L183.56 102.1C182.59 104.26 181.89 105.51 180.83 107.38H180.84ZM182.2 92.8602C181.58 92.2402 180.59 91.3602 179.6 90.6802L181.03 88.9002C181.84 89.4702 182.94 90.3302 183.74 91.0802L182.2 92.8602ZM187.2 92.2902C186.78 92.8602 186.28 93.5002 185.35 94.2502L183.3 93.0402C184.53 91.9202 185.79 90.5802 186.84 88.2402L189.04 88.9902C189.24 89.0602 189.48 89.1702 189.48 89.2802C189.48 89.3702 189.37 89.4602 189.3 89.4802C189.19 89.5002 188.95 89.5702 188.9 89.6102C188.81 89.6802 188.59 90.1402 188.55 90.2302H198.28V92.3002H187.19L187.2 92.2902ZM196.7 100.08C196.66 100.96 196.63 101.33 196.52 102.35H198.04V104.37H196.28C196.04 105.69 195.91 106.24 195.4 106.77C195.09 107.08 194.23 107.8 192.23 107.85L191.11 105.72C193.57 105.74 193.66 105.39 193.88 104.38H187.48C187.35 104.89 187.33 104.95 187.17 105.44L184.95 105.22C185.28 104.03 185.54 102.89 185.85 100.09H184.27V98.1502H186.03C186.12 96.9002 186.18 95.5802 186.12 93.8402H196.86C196.86 95.1602 196.86 95.9102 196.82 98.1502H198.23V100.09H196.71L196.7 100.08ZM188.12 100.08C188.01 101.27 187.9 101.95 187.86 102.35H189.73C189.91 101.51 190.04 100.43 190.08 100.08H188.12ZM188.36 95.8802C188.36 96.8302 188.32 97.7502 188.29 98.1502H190.25C190.32 97.2502 190.38 96.5702 190.36 95.8802H188.36ZM192.32 100.08C192.25 100.85 192.17 101.6 192.03 102.35H194.16C194.25 101.54 194.29 100.79 194.34 100.08H192.32ZM192.59 95.8802C192.59 96.8302 192.55 97.4002 192.5 98.1502H194.44C194.48 96.9402 194.48 96.5202 194.48 95.8802H192.59Z" fill="black"/>
<path d="M207.37 96.9102C207.3 99.9902 207.17 103.89 205.08 107.69L202.48 106.83C203.76 104.65 204.72 101.92 204.72 97.5202C204.72 96.4002 204.68 95.5802 204.63 94.7902H222.19V96.9002H207.36L207.37 96.9102ZM221.19 89.9102C220.95 90.1302 220.86 90.2202 220.86 90.3302V93.7902H205V89.1902L207.6 89.3402C207.91 89.3602 208.19 89.4302 208.19 89.6702C208.19 89.8202 208.04 89.8902 207.95 89.9302C207.71 90.0402 207.69 90.0602 207.69 90.1502V91.6902H211.63V88.6802L214.4 88.8602C214.8 88.8802 214.99 88.9702 214.99 89.1702C214.99 89.2802 214.88 89.3702 214.77 89.4302C214.53 89.5802 214.42 89.6502 214.42 89.7802V91.6902H218.18V89.1202L220.82 89.3002C220.93 89.3002 221.35 89.3702 221.35 89.6302C221.35 89.7402 221.28 89.8302 221.2 89.9202L221.19 89.9102ZM215.71 104.19V107.75H212.89V104.19H207.41V101.92H212.89V100.34H208.45V98.2102H221.06V100.34H215.71V101.92H222.11V104.19H215.71Z" fill="black"/>
<path d="M246.36 107.19H236.55C233.12 107.19 232.04 105.91 231.34 105.03C230.61 105.8 230.15 106.17 229.12 107.03C228.99 107.32 228.9 107.6 228.79 107.6C228.66 107.6 228.59 107.45 228.53 107.34L227.34 105.03C228.18 104.68 229.25 104.11 230.05 103.58V98.8501H227.89V96.6501H232.4V103.01C232.4 105.21 235.55 105.21 237.31 105.21C240.63 105.21 243.95 105.06 247.26 104.75L246.38 107.19H246.36ZM231.29 93.3701C230.7 92.7101 229.66 91.6501 228.25 90.7701L229.72 89.0801C230.86 89.8101 231.81 90.5801 232.82 91.7001L231.28 93.3701H231.29ZM243.59 104.44H242.42L241.65 102.57C243.01 102.59 243.17 102.59 243.17 102.04V101.27H240.95V103.98H238.68V101.27H236.5V104.2H234.21V93.9201H238.72C237.8 93.3901 236.87 92.9101 235.9 92.4701L236.54 91.3301H234.3V89.2201H244.42L245.1 90.0801C244.59 90.6101 243.67 91.5501 241.93 93.1401C242.04 93.1801 242.52 93.4501 242.63 93.5101L242.32 93.9301H245.44V102.6C245.44 103.5 244.8 104.45 243.57 104.45L243.59 104.44ZM238.68 95.7501H236.5V96.8901H238.68V95.7501ZM238.68 98.4301H236.5V99.6201H238.68V98.4301ZM238.19 91.3201C238.48 91.4301 239.69 92.0001 239.95 92.1101C240.3 91.7601 240.52 91.4701 240.63 91.3201H238.19ZM243.17 95.7501H240.95V96.8901H243.17V95.7501ZM243.17 98.4301H240.95V99.6201H243.17V98.4301Z" fill="black"/>
<path d="M284.11 106.55V95.3702H279.75V93.2802H281.03C282.2 93.2802 284.04 92.5802 284.53 90.4902H286.91V106.55H284.12H284.11Z" fill="black"/>
<path d="M302.28 92.0301V104.7C302.28 107.05 301.36 107.6 297.44 107.65L296.36 104.79C296.8 104.88 297.72 105.03 298.52 105.03C299.32 105.03 299.53 104.7 299.53 104.17V92.0201H291.41V89.5801H310.24V92.0201H302.27L302.28 92.0301Z" fill="black"/>
<path d="M324.61 107.34V106.66H316.47V107.41H313.87V89.2402H327.2V107.35H324.6L324.61 107.34ZM324.61 91.5402H316.47V94.2202H324.61V91.5402ZM324.61 96.4902H316.47V99.2402H324.61V96.4902ZM324.61 101.49H316.47V104.35H324.61V101.49Z" fill="black"/>
<path d="M1.27979 134.84H4.02979V141.99L11.0298 134.84H14.4198L8.14979 141.11L14.8598 150.55H11.4298L6.27979 143.05L4.03979 145.27V150.55H1.27979V134.84Z" fill="black"/>
<path d="M22.75 134.84H25.68L31.73 150.55H28.78L27.31 146.39H21.04L19.57 150.55H16.73L22.76 134.84H22.75ZM21.78 144.3H26.58L24.23 137.55H24.16L21.78 144.3Z" fill="black"/>
<path d="M35.3098 134.84H38.2098L45.3798 146.41H45.4198V134.84H48.0398V150.55H45.1398L37.9898 139H37.9198V150.55H35.2998V134.84H35.3098Z" fill="black"/>
<path d="M53.3899 134.84H56.2899L63.4599 146.41H63.4999V134.84H66.1199V150.55H63.2199L56.0699 139H55.9999V150.55H53.3799V134.84H53.3899Z" fill="black"/>
<path d="M75.79 134.84H78.72L84.77 150.55H81.82L80.35 146.39H74.08L72.61 150.55H69.77L75.8 134.84H75.79ZM74.82 144.3H79.62L77.27 137.55H77.2L74.82 144.3Z" fill="black"/>
<path d="M88.46 134.84H91.21V150.55H88.46V134.84Z" fill="black"/>
<path d="M110.49 150.55H108.73L108.31 148.7C106.84 150.37 105.49 150.92 103.58 150.92C98.8701 150.92 96.0601 147.18 96.0601 142.69C96.0601 138.2 98.8801 134.46 103.58 134.46C107.01 134.46 109.89 136.29 110.31 139.83H107.63C107.37 137.76 105.56 136.71 103.58 136.71C100.21 136.71 98.8101 139.68 98.8101 142.69C98.8101 145.7 100.22 148.68 103.58 148.68C106.4 148.72 107.94 147.03 107.98 144.37H103.8V142.28H110.49V150.55Z" fill="black"/>
<path d="M119.88 134.84H122.81L128.86 150.55H125.91L124.44 146.39H118.17L116.7 150.55H113.86L119.89 134.84H119.88ZM118.91 144.3H123.71L121.36 137.55H121.29L118.91 144.3Z" fill="black"/>
<path d="M132.55 134.84H135.3V150.55H132.55V134.84Z" fill="black"/>
<path d="M180.03 142.69C180.03 147.18 177.21 150.92 172.51 150.92C167.81 150.92 164.98 147.18 164.98 142.69C164.98 138.2 167.8 134.46 172.51 134.46C177.22 134.46 180.03 138.2 180.03 142.69ZM167.73 142.69C167.73 145.7 169.14 148.68 172.5 148.68C175.86 148.68 177.27 145.71 177.27 142.69C177.27 139.67 175.86 136.71 172.5 136.71C169.14 136.71 167.73 139.68 167.73 142.69Z" fill="black"/>
<path d="M184.73 134.84H191.66C196.15 134.84 197.01 137.74 197.01 139.7C197.01 141.66 196.15 144.54 191.66 144.52H187.48V150.55H184.73V134.84ZM187.48 142.28H191.51C192.74 142.28 194.26 141.66 194.26 139.68C194.26 137.7 193.01 137.08 191.55 137.08H187.48V142.27V142.28Z" fill="black"/>
<path d="M201.61 134.84H212.92V137.22H204.36V141.33H212.28V143.58H204.36V148.18H213.07V150.56H201.61V134.85V134.84Z" fill="black"/>
<path d="M217.56 134.84H220.46L227.63 146.41H227.67V134.84H230.29V150.55H227.39L220.24 139H220.17V150.55H217.55V134.84H217.56Z" fill="black"/>
<path d="M235.66 147.8H238.61V150.55H235.66V147.8ZM235.77 134.84H238.52V139.37L237.79 146.17H236.49L235.76 139.37V134.84H235.77Z" fill="black"/>
<path d="M268.51 137.7C270.62 137.72 272.62 137 273 135.15H275.05V150.55H272.3V139.68H268.52V137.7H268.51Z" fill="black"/>
<path d="M279.02 135.15H289.56V137.24C286.35 140.87 284.21 144.99 283.82 150.55H281.07C281.4 145.69 283.84 140.96 287.01 137.39H279.02V135.15Z" fill="black"/>
<path d="M1.27979 156.84H12.5898V159.22H4.02979V163.33H11.9498V165.58H4.02979V170.18H12.7398V172.56H1.27979V156.85V156.84Z" fill="black"/>
<path d="M15.9701 156.84H19.2501L22.8101 162.38L26.5301 156.84H29.6101L24.4201 164.41L29.9901 172.55H26.6501L22.7301 166.54L18.7501 172.55H15.6001L21.1701 164.41L15.9801 156.84H15.9701Z" fill="black"/>
<path d="M33.73 156.84H36.48V163.09H43.63V156.84H46.38V172.55H43.63V165.47H36.48V172.55H33.73V156.84Z" fill="black"/>
<path d="M51.8799 156.84H54.6299V172.55H51.8799V156.84Z" fill="black"/>
<path d="M60.1899 156.84H67.8199C70.6399 156.84 72.4899 158.12 72.4899 160.73C72.4899 162.31 71.6799 163.46 70.2499 164.07V164.11C72.1599 164.53 73.1999 166.02 73.1999 168.16C73.1999 170.62 71.4799 172.54 67.4099 172.54H60.1899V156.83V156.84ZM62.9399 163.42H67.4299C68.7499 163.42 69.7399 162.65 69.7399 161.24C69.7399 159.66 68.9299 159.08 67.4299 159.08H62.9399V163.41V163.42ZM62.9399 170.3H67.7999C69.4699 170.3 70.4399 169.4 70.4399 167.81C70.4399 166.22 69.4699 165.39 67.7999 165.39H62.9399V170.3Z" fill="black"/>
<path d="M77.8799 156.84H80.6299V172.55H77.8799V156.84Z" fill="black"/>
<path d="M84.7002 156.84H97.4202V159.22H92.4202V172.55H89.6702V159.22H84.7002V156.84Z" fill="black"/>
<path d="M101.44 156.84H104.19V172.55H101.44V156.84Z" fill="black"/>
<path d="M123.97 164.69C123.97 169.18 121.15 172.92 116.45 172.92C111.75 172.92 108.92 169.18 108.92 164.69C108.92 160.2 111.74 156.46 116.45 156.46C121.16 156.46 123.97 160.2 123.97 164.69ZM111.67 164.69C111.67 167.7 113.08 170.68 116.44 170.68C119.8 170.68 121.21 167.71 121.21 164.69C121.21 161.67 119.8 158.71 116.44 158.71C113.08 158.71 111.67 161.68 111.67 164.69Z" fill="black"/>
<path d="M128.57 156.84H131.47L138.64 168.41H138.68V156.84H141.3V172.55H138.4L131.25 161H131.18V172.55H128.56V156.84H128.57Z" fill="black"/>
<path d="M10.98 194.55H0.459961C0.479961 192.02 1.77996 190.11 3.84996 188.72C5.84996 187.27 8.44996 186.06 8.48996 183.66C8.50996 182.56 8.04996 180.93 5.88996 180.93C3.90996 180.93 3.31996 182.62 3.24996 184.78H0.749961C0.749961 181.37 2.61996 178.84 6.04996 178.84C9.80996 178.84 11 181.59 11 183.57C11 186.01 9.32996 187.53 7.56996 188.76C5.78996 189.99 3.91996 190.94 3.47996 192.3H10.98V194.54V194.55Z" fill="black"/>
<path d="M25.4798 186.85C25.4798 190.35 24.5798 194.86 20.1598 194.86C15.7398 194.86 14.8398 190.35 14.8398 186.85C14.8398 183.35 15.7398 178.84 20.1598 178.84C24.5798 178.84 25.4798 183.35 25.4798 186.85ZM22.9698 186.85C22.9698 183.64 22.3498 180.93 20.1498 180.93C17.9498 180.93 17.3298 183.64 17.3298 186.85C17.3298 190.06 17.9498 192.77 20.1498 192.77C22.3498 192.77 22.9698 190.06 22.9698 186.85Z" fill="black"/>
<path d="M39.8398 194.55H29.3198C29.3398 192.02 30.6398 190.11 32.7098 188.72C34.7098 187.27 37.3098 186.06 37.3498 183.66C37.3698 182.56 36.9098 180.93 34.7498 180.93C32.7698 180.93 32.1798 182.62 32.1098 184.78H29.5998C29.5998 181.37 31.4698 178.84 34.8998 178.84C38.6598 178.84 39.8498 181.59 39.8498 183.57C39.8498 186.01 38.1798 187.53 36.4198 188.76C34.6398 189.99 32.7698 190.94 32.3298 192.3H39.8298V194.54L39.8398 194.55Z" fill="black"/>
<path d="M51.5901 183.04C51.4801 181.79 50.6401 180.93 49.3501 180.93C46.6201 180.93 46.3101 184.19 46.1601 186.21L46.2001 186.25C46.8801 185.04 48.1601 184.42 49.5201 184.42C52.5801 184.42 54.3801 186.64 54.3801 189.59C54.3801 192.54 52.3301 194.85 49.2501 194.85C44.7201 194.85 43.6401 191.29 43.6401 186.8C43.6401 183.13 45.0901 178.84 49.4501 178.84C51.8901 178.84 53.9601 180.53 54.0901 183.04H51.5801H51.5901ZM51.8801 189.55C51.8801 187.9 50.9801 186.4 49.1701 186.4C47.3601 186.4 46.4001 187.85 46.4001 189.55C46.4001 191.25 47.3501 192.76 49.1701 192.76C50.9901 192.76 51.8801 191.2 51.8801 189.55Z" fill="black"/>
<path d="M58.8501 191.58H61.9101V194.55H58.8501V191.58Z" fill="black"/>
<path d="M101.97 194.55H91.4502C91.4702 192.02 92.7702 190.11 94.8402 188.72C96.8402 187.27 99.4402 186.06 99.4802 183.66C99.5002 182.56 99.0402 180.93 96.8802 180.93C94.9002 180.93 94.3102 182.62 94.2402 184.78H91.7302C91.7302 181.37 93.6002 178.84 97.0302 178.84C100.79 178.84 101.98 181.59 101.98 183.57C101.98 186.01 100.31 187.53 98.5502 188.76C96.7702 189.99 94.9002 190.94 94.4602 192.3H101.96V194.54L101.97 194.55Z" fill="black"/>
<path d="M106.55 191.58H109.61V194.55H106.55V191.58Z" fill="black"/>
<path d="M149.67 194.55H139.15C139.17 192.02 140.47 190.11 142.54 188.72C144.54 187.27 147.14 186.06 147.18 183.66C147.2 182.56 146.74 180.93 144.58 180.93C142.6 180.93 142.01 182.62 141.94 184.78H139.43C139.43 181.37 141.3 178.84 144.73 178.84C148.49 178.84 149.68 181.59 149.68 183.57C149.68 186.01 148.01 187.53 146.25 188.76C144.47 189.99 142.6 190.94 142.16 192.3H149.66V194.54L149.67 194.55Z" fill="black"/>
<path d="M157.74 185.53C159.41 185.6 161.15 185 161.15 183.11C161.15 181.81 160.14 180.93 158.75 180.93C157.01 180.93 156.15 182.49 156.2 184.08H153.69C153.82 181.09 155.69 178.84 158.79 178.84C161.19 178.84 163.65 180.23 163.65 182.95C163.65 184.49 162.95 185.72 161.47 186.25V186.29C163.21 186.64 164.26 188.16 164.26 190.14C164.26 193.04 161.75 194.85 158.8 194.85C155.24 194.85 153.45 192.69 153.39 189.48H155.9C155.83 191.35 156.85 192.76 158.8 192.76C160.47 192.76 161.75 191.77 161.75 190.01C161.75 187.61 159.7 187.3 157.72 187.39V185.52L157.74 185.53Z" fill="black"/>
<path d="M196.35 196.95C194.59 194.16 193.18 191.01 193.18 186.81C193.18 183.27 194.35 179.75 196.35 176.67H198.4C196.64 179.82 195.69 183.14 195.69 186.81C195.69 190.48 196.55 193.83 198.4 196.95H196.35Z" fill="black"/>
<path d="M202.05 178.84H205.92L210.25 191.14H210.29L214.51 178.84H218.34V194.55H215.72V182.43H215.68L211.32 194.55H209.05L204.69 182.43H204.65V194.55H202.03V178.84H202.05Z" fill="black"/>
<path d="M238.06 186.69C238.06 191.18 235.24 194.92 230.54 194.92C225.84 194.92 223.01 191.18 223.01 186.69C223.01 182.2 225.83 178.46 230.54 178.46C235.25 178.46 238.06 182.2 238.06 186.69ZM225.76 186.69C225.76 189.7 227.17 192.68 230.53 192.68C233.89 192.68 235.3 189.71 235.3 186.69C235.3 183.67 233.89 180.71 230.53 180.71C227.17 180.71 225.76 183.68 225.76 186.69Z" fill="black"/>
<path d="M242.66 178.84H245.56L252.73 190.41H252.77V178.84H255.39V194.55H252.49L245.34 183H245.27V194.55H242.65V178.84H242.66Z" fill="black"/>
<path d="M261.05 176.67C262.81 179.49 264.22 182.63 264.22 186.84C264.22 190.38 263.05 193.9 261.05 196.96H259C260.76 193.84 261.71 190.51 261.71 186.84C261.71 183.17 260.85 179.82 259 176.67H261.05Z" fill="black"/>
<path d="M0.77002 203.7C2.88002 203.72 4.88002 203 5.26002 201.15H7.31002V216.55H4.56002V205.68H0.77002V203.7Z" fill="black"/>
<path d="M15.5302 207.53C17.2002 207.6 18.9402 207 18.9402 205.11C18.9402 203.81 17.9302 202.93 16.5402 202.93C14.8002 202.93 13.9402 204.49 13.9902 206.08H11.4802C11.6102 203.09 13.4802 200.84 16.5802 200.84C18.9802 200.84 21.4402 202.23 21.4402 204.95C21.4402 206.49 20.7402 207.72 19.2602 208.25V208.29C21.0002 208.64 22.0502 210.16 22.0502 212.14C22.0502 215.04 19.5402 216.85 16.5902 216.85C13.0302 216.85 11.2402 214.69 11.1802 211.48H13.6902C13.6202 213.35 14.6402 214.76 16.5902 214.76C18.2602 214.76 19.5402 213.77 19.5402 212.01C19.5402 209.61 17.4902 209.3 15.5102 209.39V207.52L15.5302 207.53Z" fill="black"/>
<path d="M26.4702 203.62H29.5302V206.59H26.4702V203.62ZM26.4702 211.78H29.5302V214.75H26.4702V211.78Z" fill="black"/>
<path d="M44.7101 208.85C44.7101 212.35 43.8101 216.86 39.3801 216.86C34.9501 216.86 34.0601 212.35 34.0601 208.85C34.0601 205.35 34.9601 200.84 39.3801 200.84C43.8001 200.84 44.7101 205.35 44.7101 208.85ZM42.2001 208.85C42.2001 205.64 41.5801 202.93 39.3801 202.93C37.1801 202.93 36.5601 205.64 36.5601 208.85C36.5601 212.06 37.1801 214.77 39.3801 214.77C41.5801 214.77 42.2001 212.06 42.2001 208.85Z" fill="black"/>
<path d="M59.1402 208.85C59.1402 212.35 58.2402 216.86 53.8102 216.86C49.3802 216.86 48.4902 212.35 48.4902 208.85C48.4902 205.35 49.3902 200.84 53.8102 200.84C58.2302 200.84 59.1402 205.35 59.1402 208.85ZM56.6302 208.85C56.6302 205.64 56.0102 202.93 53.8102 202.93C51.6102 202.93 50.9902 205.64 50.9902 208.85C50.9902 212.06 51.6102 214.77 53.8102 214.77C56.0102 214.77 56.6302 212.06 56.6302 208.85Z" fill="black"/>
<path d="M69.3198 207.58H75.7198V209.96H69.3198V207.58Z" fill="black"/>
<path d="M88.48 203.7C90.59 203.72 92.59 203 92.97 201.15H95.02V216.55H92.27V205.68H88.49V203.7H88.48Z" fill="black"/>
<path d="M99 201.15H109.54V203.24C106.33 206.87 104.19 210.99 103.8 216.55H101.05C101.38 211.69 103.82 206.96 106.99 203.39H99V201.15Z" fill="black"/>
<path d="M114.18 203.62H117.24V206.59H114.18V203.62ZM114.18 211.78H117.24V214.75H114.18V211.78Z" fill="black"/>
<path d="M132.42 208.85C132.42 212.35 131.52 216.86 127.09 216.86C122.66 216.86 121.77 212.35 121.77 208.85C121.77 205.35 122.67 200.84 127.09 200.84C131.51 200.84 132.42 205.35 132.42 208.85ZM129.91 208.85C129.91 205.64 129.29 202.93 127.09 202.93C124.89 202.93 124.27 205.64 124.27 208.85C124.27 212.06 124.89 214.77 127.09 214.77C129.29 214.77 129.91 212.06 129.91 208.85Z" fill="black"/>
<path d="M146.85 208.85C146.85 212.35 145.95 216.86 141.52 216.86C137.09 216.86 136.2 212.35 136.2 208.85C136.2 205.35 137.1 200.84 141.52 200.84C145.94 200.84 146.85 205.35 146.85 208.85ZM144.34 208.85C144.34 205.64 143.72 202.93 141.52 202.93C139.32 202.93 138.7 205.64 138.7 208.85C138.7 212.06 139.32 214.77 141.52 214.77C143.72 214.77 144.34 212.06 144.34 208.85Z" fill="black"/>
<path d="M0.809863 222.84H12.7599V224.93L3.60986 236.17H12.9799V238.55H0.109863V236.31L9.25986 225.22H0.809863V222.84Z" fill="black"/>
<path d="M31.55 230.69C31.55 235.18 28.73 238.92 24.03 238.92C19.33 238.92 16.5 235.18 16.5 230.69C16.5 226.2 19.32 222.46 24.03 222.46C28.74 222.46 31.55 226.2 31.55 230.69ZM19.25 230.69C19.25 233.7 20.66 236.68 24.02 236.68C27.38 236.68 28.79 233.71 28.79 230.69C28.79 227.67 27.38 224.71 24.02 224.71C20.66 224.71 19.25 227.68 19.25 230.69Z" fill="black"/>
<path d="M36.0801 222.84H38.8301V231.99C38.8301 234.1 38.9601 236.54 42.5301 236.54C46.1001 236.54 46.2301 234.1 46.2301 231.99V222.84H48.9801V232.89C48.9801 236.92 46.4101 238.92 42.5301 238.92C38.6501 238.92 36.0801 236.92 36.0801 232.89V222.84Z" fill="black"/>
<path d="M54.2302 222.84H57.1302L64.3002 234.41H64.3402V222.84H66.9602V238.55H64.0602L56.9102 227H56.8402V238.55H54.2202V222.84H54.2302Z" fill="black"/>
<path d="M86.6398 230.69C86.6398 235.18 83.8198 238.92 79.1199 238.92C74.4199 238.92 71.5898 235.18 71.5898 230.69C71.5898 226.2 74.4099 222.46 79.1199 222.46C83.8299 222.46 86.6398 226.2 86.6398 230.69ZM74.3398 230.69C74.3398 233.7 75.7498 236.68 79.1098 236.68C82.4698 236.68 83.8798 233.71 83.8798 230.69C83.8798 227.67 82.4698 224.71 79.1098 224.71C75.7498 224.71 74.3398 227.68 74.3398 230.69Z" fill="black"/>
<path d="M91.2798 222.84H94.0298V229.09H101.18V222.84H103.93V238.55H101.18V231.47H94.0298V238.55H91.2798V222.84Z" fill="black"/>
<path d="M113.63 222.84H116.56L122.61 238.55H119.66L118.19 234.39H111.92L110.45 238.55H107.61L113.64 222.84H113.63ZM112.66 232.3H117.46L115.11 225.55H115.04L112.66 232.3Z" fill="black"/>
<path d="M126.19 222.84H129.09L136.26 234.41H136.3V222.84H138.92V238.55H136.02L128.87 227H128.8V238.55H126.18V222.84H126.19Z" fill="black"/>
<path d="M148.59 222.84H151.52L157.57 238.55H154.62L153.15 234.39H146.88L145.41 238.55H142.57L148.6 222.84H148.59ZM147.62 232.3H152.42L150.07 225.55H150L147.62 232.3Z" fill="black"/>
<path d="M184.71 222.84H197.43V225.22H192.43V238.55H189.68V225.22H184.71V222.84Z" fill="black"/>
<path d="M201.45 222.84H212.76V225.22H204.2V229.33H212.12V231.58H204.2V236.18H212.91V238.56H201.45V222.85V222.84Z" fill="black"/>
<path d="M217.51 222.84H225.01C228.44 222.84 230.2 224.42 230.2 227.09C230.2 230.1 228.11 230.88 227.6 231.05V231.09C228.55 231.22 229.93 231.93 229.93 234.41C229.93 236.24 230.19 237.91 230.79 238.55H227.84C227.42 237.87 227.42 237.01 227.42 236.24C227.42 233.36 226.83 232.08 224.3 232.08H220.25V238.55H217.5V222.84H217.51ZM220.26 229.99H224.77C226.51 229.99 227.45 229.13 227.45 227.48C227.45 225.48 226.15 225.08 224.72 225.08H220.25V229.99H220.26Z" fill="black"/>
<path d="M235.2 222.84H242.7C246.13 222.84 247.89 224.42 247.89 227.09C247.89 230.1 245.8 230.88 245.29 231.05V231.09C246.24 231.22 247.62 231.93 247.62 234.41C247.62 236.24 247.88 237.91 248.48 238.55H245.53C245.11 237.87 245.11 237.01 245.11 236.24C245.11 233.36 244.52 232.08 241.99 232.08H237.94V238.55H235.19V222.84H235.2ZM237.95 229.99H242.46C244.2 229.99 245.14 229.13 245.14 227.48C245.14 225.48 243.84 225.08 242.41 225.08H237.94V229.99H237.95Z" fill="black"/>
<path d="M257.09 222.84H260.02L266.07 238.55H263.12L261.65 234.39H255.38L253.91 238.55H251.07L257.1 222.84H257.09ZM256.12 232.3H260.92L258.57 225.55H258.5L256.12 232.3Z" fill="black"/>
<path d="M280.37 227.83C279.91 226.03 278.74 224.71 276.45 224.71C273.08 224.71 271.68 227.68 271.68 230.69C271.68 233.7 273.09 236.68 276.45 236.68C278.89 236.68 280.23 234.85 280.45 232.56H283.13C282.91 236.32 280.25 238.92 276.44 238.92C271.73 238.92 268.91 235.18 268.91 230.69C268.91 226.2 271.73 222.46 276.44 222.46C279.98 222.48 282.78 224.44 283.11 227.83H280.36H280.37Z" fill="black"/>
<path d="M287.85 222.84H299.16V225.22H290.6V229.33H298.52V231.58H290.6V236.18H299.31V238.56H287.85V222.85V222.84Z" fill="black"/>
<path d="M0.77002 247.7C2.88002 247.72 4.88002 247 5.26002 245.15H7.31002V260.55H4.56002V249.68H0.77002V247.7Z" fill="black"/>
<path d="M15.5498 257.58H18.6098V260.55C18.5898 262.35 17.3798 263.67 15.6398 264.03V262.69C16.6098 262.45 17.0898 261.5 17.0698 260.56H15.5498V257.59V257.58Z" fill="black"/>
<path d="M48.9702 244.84H51.7202V251.99L58.7202 244.84H62.1102L55.8402 251.11L62.5502 260.55H59.1202L53.9702 253.05L51.7302 255.27V260.55H48.9802V244.84H48.9702Z" fill="black"/>
<path d="M70.4399 244.84H73.3699L79.4199 260.55H76.4699L74.9999 256.39H68.7299L67.2599 260.55H64.4199L70.4499 244.84H70.4399ZM69.4799 254.3H74.2799L71.9299 247.55H71.8599L69.4799 254.3Z" fill="black"/>
<path d="M83.1201 244.84H85.8701V260.55H83.1201V244.84Z" fill="black"/>
<path d="M105.14 260.55H103.38L102.96 258.7C101.49 260.37 100.14 260.92 98.23 260.92C93.52 260.92 90.71 257.18 90.71 252.69C90.71 248.2 93.53 244.46 98.23 244.46C101.66 244.46 104.54 246.29 104.96 249.83H102.28C102.02 247.76 100.21 246.71 98.23 246.71C94.86 246.71 93.46 249.68 93.46 252.69C93.46 255.7 94.87 258.68 98.23 258.68C101.05 258.72 102.59 257.03 102.63 254.37H98.45V252.28H105.14V260.55Z" fill="black"/>
<path d="M114.53 244.84H117.46L123.51 260.55H120.56L119.09 256.39H112.82L111.35 260.55H108.51L114.54 244.84H114.53ZM113.56 254.3H118.36L116.01 247.55H115.94L113.56 254.3Z" fill="black"/>
<path d="M127.09 244.84H129.99L137.16 256.41H137.2V244.84H139.82V260.55H136.92L129.77 249H129.7V260.55H127.08V244.84H127.09Z" fill="black"/>
<path d="M145.29 244.84H151.8C156.64 244.84 158.73 248.36 158.73 252.69C158.73 257.02 156.64 260.55 151.8 260.55H145.29V244.84ZM148.04 258.3H150.75C155.06 258.3 155.99 255.84 155.99 252.69C155.99 249.54 155.07 247.08 150.75 247.08H148.04V258.3Z" fill="black"/>
<path d="M177.58 252.69C177.58 257.18 174.76 260.92 170.06 260.92C165.36 260.92 162.53 257.18 162.53 252.69C162.53 248.2 165.35 244.46 170.06 244.46C174.77 244.46 177.58 248.2 177.58 252.69ZM165.29 252.69C165.29 255.7 166.7 258.68 170.06 258.68C173.42 258.68 174.83 255.71 174.83 252.69C174.83 249.67 173.42 246.71 170.06 246.71C166.7 246.71 165.29 249.68 165.29 252.69Z" fill="black"/>
<path d="M182.29 244.84H189.79C193.22 244.84 194.98 246.42 194.98 249.09C194.98 252.1 192.89 252.88 192.38 253.05V253.09C193.33 253.22 194.71 253.93 194.71 256.41C194.71 258.24 194.97 259.91 195.57 260.55H192.62C192.2 259.87 192.2 259.01 192.2 258.24C192.2 255.36 191.61 254.08 189.08 254.08H185.03V260.55H182.28V244.84H182.29ZM185.04 251.99H189.55C191.29 251.99 192.23 251.13 192.23 249.48C192.23 247.48 190.93 247.08 189.5 247.08H185.03V251.99H185.04Z" fill="black"/>
<path d="M199.98 244.84H202.73V260.55H199.98V244.84Z" fill="black"/>
<path d="M208.14 257.58H211.2V260.55C211.18 262.35 209.97 263.67 208.23 264.03V262.69C209.2 262.45 209.68 261.5 209.66 260.56H208.14V257.59V257.58Z" fill="black"/>
<path d="M245.65 254.39L239.75 244.84H242.94L247.1 251.88L251.19 244.84H254.27L248.39 254.39V260.55H245.64V254.39H245.65Z" fill="black"/>
<path d="M272.23 252.69C272.23 257.18 269.41 260.92 264.71 260.92C260.01 260.92 257.18 257.18 257.18 252.69C257.18 248.2 260 244.46 264.71 244.46C269.42 244.46 272.23 248.2 272.23 252.69ZM259.93 252.69C259.93 255.7 261.34 258.68 264.7 258.68C268.06 258.68 269.47 255.71 269.47 252.69C269.47 249.67 268.06 246.71 264.7 246.71C261.34 246.71 259.93 249.68 259.93 252.69Z" fill="black"/>
<path d="M276.93 244.84H279.68V251.99L286.68 244.84H290.07L283.8 251.11L290.51 260.55H287.08L281.93 253.05L279.69 255.27V260.55H276.94V244.84H276.93Z" fill="black"/>
<path d="M308.42 252.69C308.42 257.18 305.6 260.92 300.9 260.92C296.2 260.92 293.37 257.18 293.37 252.69C293.37 248.2 296.19 244.46 300.9 244.46C305.61 244.46 308.42 248.2 308.42 252.69ZM296.12 252.69C296.12 255.7 297.53 258.68 300.89 258.68C304.25 258.68 305.66 255.71 305.66 252.69C305.66 249.67 304.25 246.71 300.89 246.71C297.53 246.71 296.12 249.68 296.12 252.69Z" fill="black"/>
<path d="M313.06 244.84H315.81V251.09H322.96V244.84H325.71V260.55H322.96V253.47H315.81V260.55H313.06V244.84Z" fill="black"/>
<path d="M335.41 244.84H338.34L344.39 260.55H341.44L339.97 256.39H333.7L332.23 260.55H329.39L335.42 244.84H335.41ZM334.44 254.3H339.24L336.89 247.55H336.82L334.44 254.3Z" fill="black"/>
<path d="M348.04 244.84H351.91L356.24 257.14H356.28L360.5 244.84H364.33V260.55H361.71V248.43H361.67L357.31 260.55H355.04L350.68 248.43H350.64V260.55H348.02V244.84H348.04Z" fill="black"/>
<path d="M374.04 244.84H376.97L383.02 260.55H380.07L378.6 256.39H372.33L370.86 260.55H368.02L374.05 244.84H374.04ZM373.07 254.3H377.87L375.52 247.55H375.45L373.07 254.3Z" fill="black"/>
<path d="M386.56 257.58H389.62V260.55C389.6 262.35 388.39 263.67 386.65 264.03V262.69C387.62 262.45 388.1 261.5 388.08 260.56H386.56V257.59V257.58Z" fill="black"/>
<path d="M1.16992 266.84H4.06992L11.2399 278.41H11.2799V266.84H13.8999V282.55H10.9999L3.84992 271H3.77992V282.55H1.16992V266.84Z" fill="black"/>
<path d="M23.56 266.84H26.49L32.54 282.55H29.59L28.12 278.39H21.85L20.38 282.55H17.54L23.57 266.84H23.56ZM22.59 276.3H27.39L25.04 269.55H24.97L22.59 276.3Z" fill="black"/>
<path d="M36.23 266.84H38.98V273.99L45.98 266.84H49.37L43.1 273.11L49.81 282.55H46.38L41.23 275.05L38.99 277.27V282.55H36.24V266.84H36.23Z" fill="black"/>
<path d="M57.7099 266.84H60.6399L66.6899 282.55H63.7399L62.2699 278.39H55.9999L54.5299 282.55H51.6899L57.7199 266.84H57.7099ZM56.7399 276.3H61.5399L59.1899 269.55H59.1199L56.7399 276.3Z" fill="black"/>
<path d="M70.3799 266.84H73.1299V273.99L80.1299 266.84H83.5199L77.2499 273.11L83.9599 282.55H80.5299L75.3799 275.05L73.1399 277.27V282.55H70.3899V266.84H70.3799Z" fill="black"/>
<path d="M87.4702 266.84H90.2202V275.99C90.2202 278.1 90.3502 280.54 93.9202 280.54C97.4902 280.54 97.6202 278.1 97.6202 275.99V266.84H100.37V276.89C100.37 280.92 97.8002 282.92 93.9202 282.92C90.0402 282.92 87.4702 280.92 87.4702 276.89V266.84Z" fill="black"/>
<path d="M105.58 279.58H108.64V282.55C108.62 284.35 107.41 285.67 105.67 286.03V284.69C106.64 284.45 107.12 283.5 107.1 282.56H105.58V279.59V279.58Z" fill="black"/>
<path d="M139 266.84H141.75V273.99L148.75 266.84H152.14L145.87 273.11L152.58 282.55H149.15L144 275.05L141.76 277.27V282.55H139.01V266.84H139Z" fill="black"/>
<path d="M160.47 266.84H163.4L169.45 282.55H166.5L165.03 278.39H158.76L157.29 282.55H154.45L160.48 266.84H160.47ZM159.5 276.3H164.3L161.95 269.55H161.88L159.5 276.3Z" fill="black"/>
<path d="M173.03 266.84H175.93L183.1 278.41H183.14V266.84H185.76V282.55H182.86L175.71 271H175.64V282.55H173.02V266.84H173.03Z" fill="black"/>
<path d="M195.43 266.84H198.36L204.41 282.55H201.46L199.99 278.39H193.72L192.25 282.55H189.41L195.44 266.84H195.43ZM194.46 276.3H199.26L196.91 269.55H196.84L194.46 276.3Z" fill="black"/>
<path d="M221.8 282.55H220.04L219.62 280.7C218.15 282.37 216.8 282.92 214.89 282.92C210.18 282.92 207.37 279.18 207.37 274.69C207.37 270.2 210.19 266.46 214.89 266.46C218.32 266.46 221.2 268.29 221.62 271.83H218.94C218.68 269.76 216.87 268.71 214.89 268.71C211.52 268.71 210.12 271.68 210.12 274.69C210.12 277.7 211.53 280.68 214.89 280.68C217.71 280.72 219.25 279.03 219.29 276.37H215.11V274.28H221.8V282.55Z" fill="black"/>
<path d="M231.2 266.84H234.13L240.18 282.55H237.23L235.76 278.39H229.49L228.02 282.55H225.18L231.21 266.84H231.2ZM230.23 276.3H235.03L232.68 269.55H232.61L230.23 276.3Z" fill="black"/>
<path d="M239.69 266.84H242.48L245.32 278.85H245.36L248.53 266.84H251.35L254.43 278.85H254.47L257.4 266.84H260.19L255.86 282.55H253.07L249.92 270.54H249.88L246.67 282.55H243.83L239.69 266.84Z" fill="black"/>
<path d="M268.4 266.84H271.33L277.38 282.55H274.43L272.96 278.39H266.69L265.22 282.55H262.38L268.41 266.84H268.4ZM267.43 276.3H272.23L269.88 269.55H269.81L267.43 276.3Z" fill="black"/>
<path d="M280.92 279.58H283.98V282.55C283.96 284.35 282.75 285.67 281.01 286.03V284.69C281.98 284.45 282.46 283.5 282.44 282.56H280.92V279.59V279.58Z" fill="black"/>
<path d="M10.98 304.55H0.459961C0.479961 302.02 1.77996 300.11 3.84996 298.72C5.84996 297.27 8.44996 296.06 8.48996 293.66C8.50996 292.56 8.04996 290.93 5.88996 290.93C3.90996 290.93 3.31996 292.62 3.24996 294.78H0.749961C0.749961 291.37 2.61996 288.84 6.04996 288.84C9.80996 288.84 11 291.59 11 293.57C11 296.01 9.32996 297.53 7.56996 298.76C5.78996 299.99 3.91996 300.94 3.47996 302.3H10.98V304.54V304.55Z" fill="black"/>
<path d="M19.0502 295.53C20.7202 295.6 22.4602 295 22.4602 293.11C22.4602 291.81 21.4502 290.93 20.0602 290.93C18.3202 290.93 17.4602 292.49 17.5102 294.08H15.0002C15.1302 291.09 17.0002 288.84 20.1002 288.84C22.5002 288.84 24.9602 290.23 24.9602 292.95C24.9602 294.49 24.2602 295.72 22.7802 296.25V296.29C24.5202 296.64 25.5702 298.16 25.5702 300.14C25.5702 303.04 23.0602 304.85 20.1102 304.85C16.5502 304.85 14.7602 302.69 14.7002 299.48H17.2102C17.1402 301.35 18.1602 302.76 20.1102 302.76C21.7802 302.76 23.0602 301.77 23.0602 300.01C23.0602 297.61 21.0102 297.3 19.0302 297.39V295.52L19.0502 295.53Z" fill="black"/>
<path d="M29.6299 291.7C31.7399 291.72 33.7399 291 34.1199 289.15H36.1699V304.55H33.4199V293.68H29.6399V291.7H29.6299Z" fill="black"/>
<path d="M50.0898 295.58H56.4898V297.96H50.0898V295.58Z" fill="black"/>
<path d="M79.5301 296.85C79.5301 300.35 78.6301 304.86 74.2101 304.86C69.7901 304.86 68.8901 300.35 68.8901 296.85C68.8901 293.35 69.7901 288.84 74.2101 288.84C78.6301 288.84 79.5301 293.35 79.5301 296.85ZM77.0201 296.85C77.0201 293.64 76.4001 290.93 74.2001 290.93C72.0001 290.93 71.3801 293.64 71.3801 296.85C71.3801 300.06 72.0001 302.77 74.2001 302.77C76.4001 302.77 77.0201 300.06 77.0201 296.85Z" fill="black"/>
<path d="M93.9601 296.85C93.9601 300.35 93.0601 304.86 88.6301 304.86C84.2001 304.86 83.3101 300.35 83.3101 296.85C83.3101 293.35 84.2101 288.84 88.6301 288.84C93.0501 288.84 93.9601 293.35 93.9601 296.85ZM91.4601 296.85C91.4601 293.64 90.8401 290.93 88.6401 290.93C86.4401 290.93 85.8201 293.64 85.8201 296.85C85.8201 300.06 86.4401 302.77 88.6401 302.77C90.8401 302.77 91.4601 300.06 91.4601 296.85Z" fill="black"/>
<path d="M108.4 296.85C108.4 300.35 107.5 304.86 103.07 304.86C98.64 304.86 97.75 300.35 97.75 296.85C97.75 293.35 98.65 288.84 103.07 288.84C107.49 288.84 108.4 293.35 108.4 296.85ZM105.89 296.85C105.89 293.64 105.27 290.93 103.07 290.93C100.87 290.93 100.25 293.64 100.25 296.85C100.25 300.06 100.87 302.77 103.07 302.77C105.27 302.77 105.89 300.06 105.89 296.85Z" fill="black"/>
<path d="M122.76 304.55H112.24C112.26 302.02 113.56 300.11 115.63 298.72C117.63 297.27 120.23 296.06 120.27 293.66C120.29 292.56 119.83 290.93 117.67 290.93C115.69 290.93 115.1 292.62 115.03 294.78H112.52C112.52 291.37 114.39 288.84 117.82 288.84C121.58 288.84 122.77 291.59 122.77 293.57C122.77 296.01 121.1 297.53 119.34 298.76C117.56 299.99 115.69 300.94 115.25 302.3H122.75V304.54L122.76 304.55Z" fill="black"/>
<path d="M127.34 301.58H130.4V304.55C130.38 306.35 129.17 307.67 127.43 308.03V306.69C128.4 306.45 128.88 305.5 128.86 304.56H127.34V301.59V301.58Z" fill="black"/>
<path d="M169.23 299.49C169.23 302.22 168.57 304.92 164.06 304.92C160.74 304.92 159.37 302.74 159.37 299.88V299.04H162.12V299.85C162.12 301.63 162.6 302.67 164.28 302.67C166.06 302.67 166.48 301.59 166.48 299.63V288.83H169.23V299.48V299.49Z" fill="black"/>
<path d="M178.97 288.84H181.9L187.95 304.55H185L183.53 300.39H177.26L175.79 304.55H172.95L178.98 288.84H178.97ZM178 298.3H182.8L180.45 291.55H180.38L178 298.3Z" fill="black"/>
<path d="M191.64 288.84H198.57C203.06 288.84 203.92 291.74 203.92 293.7C203.92 295.66 203.06 298.54 198.57 298.52H194.39V304.55H191.64V288.84ZM194.39 296.28H198.42C199.65 296.28 201.17 295.66 201.17 293.68C201.17 291.7 199.92 291.08 198.46 291.08H194.39V296.27V296.28Z" fill="black"/>
<path d="M212.72 288.84H215.65L221.7 304.55H218.75L217.28 300.39H211.01L209.54 304.55H206.7L212.73 288.84H212.72ZM211.75 298.3H216.55L214.2 291.55H214.13L211.75 298.3Z" fill="black"/>
<path d="M225.28 288.84H228.18L235.35 300.41H235.39V288.84H238.01V304.55H235.11L227.96 293H227.89V304.55H225.27V288.84H225.28Z" fill="black"/>
</g>
<defs>
<clipPath id="clip0_20_114">
<rect width="389.62" height="308.03" fill="white"/>
</clipPath>
</defs>
</svg>
