<svg width="389" height="309" viewBox="0 0 389 309" fill="none" xmlns="http://www.w3.org/2000/svg">
<g clip-path="url(#clip0_53_181)">
<path d="M0 18.55C0.4 15.69 1.39 13.97 5.02 11.31C7.37 9.58996 8.08 8.70996 8.08 7.30996C8.08 5.78996 7.02 4.64996 5.57 4.64996C3.35 4.64996 3.28 6.95996 3.26 8.14996H0.46C0.5 6.71996 0.68 2.20996 5.65 2.20996C8.95 2.20996 11.09 4.49996 11.09 7.31996C11.09 9.88996 9.26 11.35 7.17 12.8C5.01 14.3 4.46 14.91 3.78 16.25H11.22V18.56H0V18.55Z" fill="black"/>
<path d="M20.04 18.86C14.94 18.86 14.45 12.88 14.45 10.81C14.45 8.16996 14.91 2.20996 20.04 2.20996C22.06 2.20996 23.41 3.19996 24.26 4.55996C25.36 6.31996 25.62 8.44996 25.62 10.52C25.62 12.59 25.29 18.86 20.03 18.86H20.04ZM20 4.57996C18.53 4.57996 17.47 5.65996 17.47 10.52C17.45 15.6 18.61 16.48 20.04 16.48C21.65 16.48 22.59 15.25 22.59 10.52C22.59 5.43996 21.45 4.57996 19.99 4.57996H20Z" fill="black"/>
<path d="M28.8601 18.55C29.2601 15.69 30.2501 13.97 33.8801 11.31C36.2301 9.58996 36.9401 8.70996 36.9401 7.30996C36.9401 5.78996 35.8801 4.64996 34.4301 4.64996C32.2101 4.64996 32.1401 6.95996 32.1201 8.14996H29.3301C29.3701 6.71996 29.5501 2.20996 34.5201 2.20996C37.8201 2.20996 39.9501 4.49996 39.9501 7.31996C39.9501 9.88996 38.1201 11.35 36.0301 12.8C33.8701 14.3 33.3201 14.91 32.6401 16.25H40.0801V18.56H28.8601V18.55Z" fill="black"/>
<path d="M49.0399 18.86C44.6199 18.86 43.4099 14.57 43.4099 11.27C43.4099 9.57995 43.5599 2.19995 49.3099 2.19995C50.6299 2.19995 51.8199 2.65995 52.7399 3.53995C53.6199 4.37995 53.8799 5.07995 54.1699 6.52995H51.2699C51.1799 5.53995 50.4799 4.63995 49.2499 4.63995C46.8999 4.63995 46.5399 7.45995 46.2799 9.60995C47.1199 8.15995 48.6799 7.88995 49.5599 7.88995C52.2399 7.88995 54.4199 10.11 54.4199 13.08C54.4199 15.72 52.5699 18.84 49.0499 18.84L49.0399 18.86ZM49.0399 10.32C47.2999 10.32 46.3999 11.86 46.3999 13.36C46.3999 15.03 47.4299 16.24 48.9299 16.24C50.2699 16.24 51.4199 15.21 51.4199 13.34C51.4199 11.62 50.4999 10.33 49.0399 10.33V10.32Z" fill="black"/>
<path d="M71.0001 15.34V19.67H68.2301V15.34H58.8601V13.01H62.0301V7.76999H68.2301V5.12999H63.1701C61.9201 7.12999 61.2301 7.85999 60.7101 8.42999L58.3301 7.17999C60.3801 5.10999 61.8101 2.70999 62.6001 0.48999L65.3101 1.49999C65.4201 1.53999 65.4601 1.62999 65.4601 1.69999C65.4601 1.76999 65.4201 1.84999 65.3501 1.89999C65.2801 1.91999 64.9301 2.00999 64.8901 2.07999C64.8501 2.07999 64.4501 2.82999 64.4101 2.91999H76.6001V5.13999H70.9201V7.77999H74.7501V10.05H70.9201V13.02H77.6501V15.35H71.0001V15.34ZM68.2201 10.03H64.6801V13H68.2201V10.03Z" fill="black"/>
<path d="M110.51 18.55C110.91 15.69 111.9 13.97 115.53 11.31C117.88 9.58996 118.59 8.70996 118.59 7.30996C118.59 5.78996 117.53 4.64996 116.08 4.64996C113.86 4.64996 113.79 6.95996 113.77 8.14996H110.98C111.02 6.71996 111.2 2.20996 116.17 2.20996C119.47 2.20996 121.6 4.49996 121.6 7.31996C121.6 9.88996 119.77 11.35 117.68 12.8C115.52 14.3 114.97 14.91 114.29 16.25H121.73V18.56H110.51V18.55Z" fill="black"/>
<path d="M136.73 19.67L135.65 16.79C136.02 16.86 136.53 16.92 137.39 16.92C138.03 16.92 138.2 16.74 138.2 16.26V12.63H131.58C130.85 15.75 129.89 17.47 127.36 19.41L125.18 17.61C126.74 16.36 129.27 14.35 129.27 9.44998V1.22998H140.76V17.45C140.76 19.52 138.98 19.67 136.73 19.67ZM138.21 8.02998H131.96C131.96 9.25998 131.92 9.82998 131.87 10.32H138.21V8.02998ZM138.21 3.53998H131.96V5.82998H138.21V3.53998Z" fill="black"/>
<path d="M174.85 18.55C175.25 15.69 176.24 13.97 179.87 11.31C182.22 9.58996 182.93 8.70996 182.93 7.30996C182.93 5.78996 181.87 4.64996 180.42 4.64996C178.2 4.64996 178.13 6.95996 178.11 8.14996H175.32C175.36 6.71996 175.54 2.20996 180.51 2.20996C183.81 2.20996 185.94 4.49996 185.94 7.31996C185.94 9.88996 184.11 11.35 182.02 12.8C179.86 14.3 179.31 14.91 178.63 16.25H186.07V18.56H174.85V18.55Z" fill="black"/>
<path d="M194.81 18.86C193.14 18.86 191.71 18.24 190.74 17.28C189.93 16.44 189.53 15.65 189.33 13.41H192.26C192.35 15.68 193.49 16.42 194.81 16.42C196.35 16.42 197.45 15.36 197.45 13.69C197.45 11.86 196.31 11.16 194.59 11.16H193.36V9.19996H194.59C196.13 9.19996 197.1 8.16996 197.1 6.86996C197.1 6.07996 196.7 4.64996 194.79 4.64996C192.41 4.64996 192.33 6.69996 192.3 7.39996H189.64C189.66 6.60996 189.73 5.65996 190.45 4.51996C191.4 3.04996 193.09 2.20996 194.98 2.20996C197.47 2.20996 199.97 3.72996 199.97 6.40996C199.97 8.64996 198.56 9.44996 198.06 9.72996C198.9 10.28 200.44 11.27 200.44 13.67C200.44 16.9 197.82 18.86 194.81 18.86Z" fill="black"/>
<path d="M216.57 18.8799V17.7399H208.25V18.9899H205.63V1.93994H219.14V18.8799H216.57ZM216.57 4.35994H208.25V8.53994H216.57V4.35994ZM216.57 10.8299H208.25V15.3399H216.57V10.8299Z" fill="black"/>
<path d="M260.46 21.06C259.16 19.48 256.41 16.11 256.41 10.52C256.41 4.93 259.16 1.56 260.46 0L262.13 1.47C261.01 2.86 258.7 5.72 258.7 10.51C258.7 15.3 261.01 18.17 262.13 19.58L260.46 21.05V21.06Z" fill="black"/>
<path d="M277.84 19.67L276.76 16.79C277.13 16.86 277.64 16.92 278.5 16.92C279.14 16.92 279.31 16.74 279.31 16.26V12.63H272.69C271.96 15.75 271 17.47 268.47 19.41L266.29 17.61C267.85 16.36 270.38 14.35 270.38 9.44998V1.22998H281.87V17.45C281.87 19.52 280.09 19.67 277.84 19.67ZM279.31 8.02998H273.06C273.06 9.25998 273.02 9.82998 272.97 10.32H279.31V8.02998ZM279.31 3.53998H273.06V5.82998H279.31V3.53998Z" fill="black"/>
<path d="M291.76 12.65C290.4 12.65 289.3 11.55 289.3 10.19C289.3 8.82998 290.42 7.72998 291.76 7.72998C293.1 7.72998 294.22 8.82998 294.22 10.19C294.22 11.55 293.12 12.65 291.76 12.65Z" fill="black"/>
<path d="M307.6 14.0199C306.7 13.4299 306.1 12.8499 305.29 11.9099V19.7199H303V12.7699C302.47 13.2299 302.05 13.5599 301.13 14.1099L299.3 12.3499C302.07 10.5499 303.77 9.00989 305.35 6.38989H300.36V4.09989H303.18V0.639893L305.38 0.749893C305.82 0.769893 306.22 0.769893 306.22 1.09989C306.22 1.24989 306.11 1.35989 305.93 1.49989C305.64 1.71989 305.62 1.73989 305.62 1.86989V4.08989H307.8L308.97 5.11989C308.02 6.80989 307.25 7.95989 306.24 9.29989C307.36 10.5799 308.26 11.3499 309.47 12.1399L307.6 14.0099V14.0199ZM319.13 18.3899C318.82 19.0299 318.38 19.5099 317.26 19.5099H315.5C314.38 19.5099 313.54 18.7799 313.54 17.6399V9.86989H310.83L312.55 10.2399C312.99 10.3299 313.17 10.4399 313.17 10.6099C313.17 10.7599 313.08 10.8499 313.04 10.9199C312.8 11.1799 312.78 11.2099 312.73 11.3999C312.51 13.9499 312.16 17.4699 307.89 19.8099L305.78 18.0099C308.6 16.9499 309.5 15.1499 309.74 14.4899C310.16 13.3499 310.33 11.3399 310.33 9.86989H308.99V1.20989H318.58V9.87989H316.01V16.2599C316.01 16.7699 316.23 16.8999 316.67 16.8999C316.96 16.8999 317.22 16.8299 317.4 16.4199C317.49 16.1999 317.62 15.8499 317.73 14.5899L319.75 15.5599C319.73 16.1499 319.66 17.2999 319.13 18.3999V18.3899ZM316.27 3.45989H311.32V7.72989H316.27V3.45989Z" fill="black"/>
<path d="M325.93 21.06L324.26 19.59C325.38 18.18 327.69 15.34 327.69 10.52C327.69 5.70001 325.38 2.86001 324.26 1.48001L325.93 0.0100098C327.23 1.59001 329.98 4.94001 329.98 10.53C329.98 16.12 327.23 19.49 325.93 21.07V21.06Z" fill="black"/>
<path d="M4.67006 40.5502V29.3702H0.310059V27.2802H1.59006C2.76006 27.2802 4.60006 26.5802 5.09006 24.4902H7.47006V40.5502H4.68006H4.67006Z" fill="black"/>
<path d="M17.3101 40.86C15.6401 40.86 14.2101 40.24 13.2401 39.28C12.4301 38.44 12.0301 37.65 11.8301 35.41H14.7601C14.8501 37.68 15.9901 38.42 17.3101 38.42C18.8501 38.42 19.9501 37.36 19.9501 35.69C19.9501 33.86 18.8101 33.16 17.0901 33.16H15.8601V31.2H17.0901C18.6301 31.2 19.6001 30.17 19.6001 28.87C19.6001 28.08 19.2001 26.65 17.2901 26.65C14.9101 26.65 14.8301 28.7 14.8001 29.4H12.1401C12.1601 28.61 12.2301 27.66 12.9501 26.52C13.9001 25.05 15.5901 24.21 17.4801 24.21C19.9701 24.21 22.4701 25.73 22.4701 28.41C22.4701 30.65 21.0601 31.45 20.5601 31.73C21.4001 32.28 22.9401 33.27 22.9401 35.67C22.9401 38.9 20.3201 40.86 17.3101 40.86Z" fill="black"/>
<path d="M27.0801 29.9502V26.9102H30.0501V29.9502H27.0801ZM27.0801 38.7502V35.7102H30.0501V38.7502H27.0801Z" fill="black"/>
<path d="M39.7299 40.86C34.6299 40.86 34.1399 34.88 34.1399 32.81C34.1399 30.17 34.5999 24.21 39.7299 24.21C41.7499 24.21 43.0999 25.2 43.9499 26.56C45.0499 28.32 45.3099 30.45 45.3099 32.52C45.3099 34.59 44.9799 40.86 39.7199 40.86H39.7299ZM39.6899 26.58C38.2199 26.58 37.1599 27.66 37.1599 32.52C37.1399 37.6 38.2999 38.48 39.7299 38.48C41.3399 38.48 42.2799 37.25 42.2799 32.52C42.2799 27.44 41.1399 26.58 39.6799 26.58H39.6899Z" fill="black"/>
<path d="M54.1601 40.86C49.0601 40.86 48.5701 34.88 48.5701 32.81C48.5701 30.17 49.0301 24.21 54.1601 24.21C56.1801 24.21 57.5301 25.2 58.3801 26.56C59.4801 28.32 59.7401 30.45 59.7401 32.52C59.7401 34.59 59.4101 40.86 54.1501 40.86H54.1601ZM54.1201 26.58C52.6501 26.58 51.5901 27.66 51.5901 32.52C51.5701 37.6 52.7301 38.48 54.1601 38.48C55.7701 38.48 56.7101 37.25 56.7101 32.52C56.7101 27.44 55.5701 26.58 54.1101 26.58H54.1201Z" fill="black"/>
<path d="M72.01 33.4901V30.8901H77.51V33.4901H72.01Z" fill="black"/>
<path d="M96.6 40.5502V29.3702H92.24V27.2802H93.52C94.69 27.2802 96.53 26.5802 97.02 24.4902H99.4V40.5502H96.61H96.6Z" fill="black"/>
<path d="M110.92 33.3302C109.67 36.4502 109.47 38.6302 109.27 40.5502H106.21C106.32 39.0802 106.45 37.2902 107.73 33.9502C109.23 29.9902 110.68 28.5802 112.33 27.0002L111.34 27.1102H103.46V24.4902H115.21V27.1102C113.87 28.4302 112.24 30.0202 110.92 33.3402V33.3302Z" fill="black"/>
<path d="M119.02 29.9502V26.9102H121.99V29.9502H119.02ZM119.02 38.7502V35.7102H121.99V38.7502H119.02Z" fill="black"/>
<path d="M131.67 40.86C126.57 40.86 126.08 34.88 126.08 32.81C126.08 30.17 126.54 24.21 131.67 24.21C133.69 24.21 135.04 25.2 135.89 26.56C136.99 28.32 137.25 30.45 137.25 32.52C137.25 34.59 136.92 40.86 131.66 40.86H131.67ZM131.63 26.58C130.16 26.58 129.1 27.66 129.1 32.52C129.08 37.6 130.24 38.48 131.67 38.48C133.28 38.48 134.22 37.25 134.22 32.52C134.22 27.44 133.08 26.58 131.62 26.58H131.63Z" fill="black"/>
<path d="M146.1 40.86C141 40.86 140.51 34.88 140.51 32.81C140.51 30.17 140.97 24.21 146.1 24.21C148.12 24.21 149.47 25.2 150.32 26.56C151.42 28.32 151.68 30.45 151.68 32.52C151.68 34.59 151.35 40.86 146.09 40.86H146.1ZM146.06 26.58C144.59 26.58 143.53 27.66 143.53 32.52C143.51 37.6 144.67 38.48 146.1 38.48C147.71 38.48 148.65 37.25 148.65 32.52C148.65 27.44 147.51 26.58 146.05 26.58H146.06Z" fill="black"/>
<path d="M17.5101 63.5401C15.8401 62.6201 14.4701 61.2301 13.3501 59.6501C13.6101 60.2001 13.8301 60.7701 13.8301 61.5401C13.8301 63.5001 12.4701 64.2201 9.28008 64.2501L8.29008 61.8501C8.75008 61.8901 9.28008 61.9401 9.72008 61.9401C9.98008 61.9401 10.9101 61.9401 10.9101 60.8801C10.9101 60.6401 10.8401 60.4801 10.5601 60.1101C8.40008 61.7801 5.76008 63.0801 2.49008 64.0001L0.860078 62.1701C2.16008 61.9301 3.21008 61.7301 5.55008 60.7001C7.66008 59.7501 8.43008 59.1801 9.29008 58.5401C9.18008 58.4101 9.16008 58.3901 8.92008 58.1401C6.98008 59.6401 4.25008 60.6001 2.17008 61.1101L0.670078 59.2601C1.73008 59.1301 2.72008 59.0001 4.41008 58.3801C6.02008 57.8101 6.83008 57.3001 7.58008 56.8201C7.45008 56.7101 7.43008 56.6901 7.18008 56.5101C5.55008 57.3501 3.86008 58.0501 2.05008 58.4301L0.580078 56.5401C2.49008 56.3001 4.67008 55.8601 6.72008 54.4101H2.87008V51.0401C2.74008 51.1101 2.58008 51.1501 2.47008 51.1701L0.600078 49.2601C4.25008 48.0301 6.23008 45.8701 7.00008 44.6201L9.75008 45.0801C9.93008 45.1001 10.1001 45.1901 10.1001 45.3701C10.1001 45.5001 10.0301 45.5701 9.86008 45.6801C9.82008 45.7001 9.60008 45.8301 9.49008 45.9001H15.3701L15.8101 46.6501C15.1901 47.4001 14.2001 48.4101 13.4101 49.1401H18.3601V54.4201H13.3901C13.6801 55.4101 14.0101 56.2901 14.6201 57.2101C14.7501 57.1201 16.1201 56.2401 17.4401 55.0301L19.3101 56.2401C19.6601 56.4801 19.7701 56.5301 19.7701 56.6801C19.7701 56.8801 19.6401 56.8801 19.3701 56.8801C19.1301 56.8801 19.0801 56.9201 18.8401 57.0601C17.6501 57.7901 17.5601 57.8301 15.8301 58.8201C17.6301 60.8401 19.4401 61.8101 20.2701 62.2501L17.5201 63.5501L17.5101 63.5401ZM9.20008 50.8701H5.55008V52.6101H9.20008V50.8701ZM7.64008 47.6701C6.94008 48.2901 6.43008 48.6801 5.84008 49.1201H9.91008C10.1301 48.9201 10.7501 48.3501 11.1601 47.6701H7.64008ZM10.9801 54.4101H10.3001C10.0801 54.6101 9.79008 54.8901 9.16008 55.3301C10.2401 56.1001 11.6001 57.1601 12.3701 58.0601C11.4901 56.4801 11.1601 55.2901 10.9801 54.4101ZM15.6901 50.8701H11.9901V52.6101H15.6901V50.8701Z" fill="black"/>
<path d="M41.6299 58.8299C39.9799 61.2699 37.6899 62.2199 36.4999 62.6999L34.8699 60.4299C35.8599 60.1399 37.4899 59.6799 38.8299 58.0799C40.1699 56.4999 40.4099 54.6699 40.4099 53.6999C40.4099 52.4899 40.0599 51.0199 38.8299 49.8499C37.4399 48.5299 35.8999 48.4399 35.0899 48.3799C34.3899 53.6199 33.0899 56.6999 32.3599 58.1699C31.6999 59.5299 30.6899 61.3799 29.5399 61.3799C28.7499 61.3799 25.1399 59.3999 25.1399 55.4599C25.1399 50.5799 29.1699 46.1299 34.8399 46.1299C39.4199 46.1299 43.0299 49.2299 43.0299 54.1399C43.0299 56.0799 42.4399 57.6199 41.6199 58.8299H41.6299ZM29.7899 50.3599C28.2299 51.8599 27.5899 53.8999 27.5899 55.2399C27.5899 57.0199 28.5999 57.9499 28.9999 57.9499C30.1399 57.9499 32.0399 52.2099 32.4799 48.7699C31.8399 48.9899 30.8499 49.3199 29.7999 50.3499L29.7899 50.3599Z" fill="black"/>
<path d="M62.5 60.48V63.6H59.9V60.48H55.63C54.62 63.1 52.07 63.65 50.79 63.91L49.29 61.67C50.79 61.56 52.04 61.36 52.7 60.48H48.23V58.59H53.42C53.46 58.39 53.49 58.22 53.53 57.91H49.48V52.91H65.94V57.91H62.49V58.59H67.13V60.48H62.49H62.5ZM50.71 52.38V45.84H55.11C55.35 45.42 55.64 44.89 55.84 44.54L58.57 44.74C58.66 44.74 58.99 44.76 58.99 44.94C58.99 45.18 58.66 45.27 58.35 45.45C58.24 45.58 58.15 45.71 58.04 45.85H64.53V52.39H50.71V52.38ZM56.37 54.21H52.01V54.85H56.37V54.21ZM56.37 55.88H52.01V56.52H56.37V55.88ZM62.09 47.23H53.18V47.85H62.09V47.23ZM62.09 48.82H53.18V49.44H62.09V48.82ZM62.09 50.4H53.18V51.02H62.09V50.4ZM59.91 57.91H56.15C56.13 58 56.13 58.33 56.08 58.59H59.91V57.91ZM63.47 54.21H58.89V54.85H63.47V54.21ZM63.47 55.88H58.89V56.52H63.47V55.88Z" fill="black"/>
<path d="M82.0799 53.6798C82.0599 54.9098 81.9899 57.1598 80.6899 59.3798C79.2199 61.8898 77.0199 62.8998 75.8099 63.4698L73.6499 61.6698C78.0499 60.0898 79.4099 57.9698 79.5299 53.6798H72.1399V51.4098H88.7499V53.6798H82.0799ZM75.1299 48.2198V45.8398H85.7799V48.2198H75.1299Z" fill="black"/>
<path d="M107.98 53.4198C107.14 55.3998 106.33 57.3998 104.35 59.5398C102.11 61.9598 99.69 62.9698 98.23 63.5898L96.18 61.6998C97.5 61.2398 99.96 60.3598 102.34 57.8098C104.19 55.8098 104.83 54.0298 105.13 53.1498H93.71V50.7298H106.19C106.54 50.7298 107 50.4698 107.27 50.3098L109.05 52.1998C108.28 52.8198 108.04 53.2998 107.97 53.4298L107.98 53.4198ZM95.92 48.2698V45.7798H106.37V48.2698H95.92Z" fill="black"/>
<path d="M128.29 61.9999C126.29 59.5399 124.73 57.9499 122.92 56.4999C121.16 58.4599 119.53 60.1299 115.4 62.1499L113.46 60.1499C114.89 59.5299 117.68 58.3699 120.48 55.3999C122.86 52.8699 123.71 50.6499 124.22 49.3899H115.84V46.8399H125.32C125.74 46.8399 126.07 46.6199 126.46 46.3599L128.15 48.2299C127.71 48.5399 127.23 48.9099 126.96 49.5499C126.21 51.3099 125.79 52.3199 124.41 54.4799C126.54 56.0899 128.44 57.9599 130.24 59.9099L128.28 61.9999H128.29Z" fill="black"/>
<path d="M1.12012 70.5299V68.1499H16.6101V70.5299H1.12012ZM10.1901 75.0399V84.2099H7.55012V75.0399H1.12012V72.6599H16.6101V75.0399H10.1901Z" fill="black"/>
<path d="M20.9399 84.55C21.3399 81.69 22.3299 79.97 25.9599 77.31C28.3099 75.59 29.0199 74.71 29.0199 73.31C29.0199 71.79 27.9599 70.65 26.5099 70.65C24.2899 70.65 24.2199 72.96 24.1999 74.15H21.4099C21.4499 72.72 21.6299 68.21 26.5999 68.21C29.8999 68.21 32.0399 70.5 32.0399 73.32C32.0399 75.89 30.2099 77.35 28.1199 78.8C25.9599 80.3 25.4099 80.91 24.7299 82.25H32.1699V84.56H20.9499L20.9399 84.55Z" fill="black"/>
<path d="M40.8999 84.86C39.2299 84.86 37.7999 84.24 36.8299 83.28C36.0199 82.44 35.6199 81.65 35.4199 79.41H38.3499C38.4399 81.68 39.5799 82.42 40.8999 82.42C42.4399 82.42 43.5399 81.36 43.5399 79.69C43.5399 77.86 42.3999 77.16 40.6799 77.16H39.4499V75.2H40.6799C42.2199 75.2 43.1899 74.17 43.1899 72.87C43.1899 72.08 42.7899 70.65 40.8799 70.65C38.4999 70.65 38.4199 72.7 38.3899 73.4H35.7299C35.7499 72.61 35.8199 71.66 36.5399 70.52C37.4899 69.05 39.1799 68.21 41.0699 68.21C43.5599 68.21 46.0599 69.73 46.0599 72.41C46.0599 74.65 44.6499 75.45 44.1499 75.73C44.9899 76.28 46.5299 77.27 46.5299 79.67C46.5299 82.9 43.9099 84.86 40.8999 84.86Z" fill="black"/>
<path d="M54.4701 84.5502V73.3702H50.1101V71.2802H51.3901C52.5601 71.2802 54.4001 70.5802 54.8901 68.4902H57.2701V84.5502H54.4801H54.4701Z" fill="black"/>
<path d="M73.26 77.4901V74.8901H78.76V77.4901H73.26Z" fill="black"/>
<path d="M98.8 84.86C93.7 84.86 93.21 78.88 93.21 76.81C93.21 74.17 93.67 68.21 98.8 68.21C100.82 68.21 102.17 69.2 103.02 70.56C104.12 72.32 104.38 74.45 104.38 76.52C104.38 78.59 104.05 84.86 98.79 84.86H98.8ZM98.76 70.58C97.29 70.58 96.23 71.66 96.23 76.52C96.21 81.6 97.37 82.48 98.8 82.48C100.41 82.48 101.35 81.25 101.35 76.52C101.35 71.44 100.21 70.58 98.75 70.58H98.76Z" fill="black"/>
<path d="M113.23 84.86C108.13 84.86 107.64 78.88 107.64 76.81C107.64 74.17 108.1 68.21 113.23 68.21C115.25 68.21 116.6 69.2 117.45 70.56C118.55 72.32 118.81 74.45 118.81 76.52C118.81 78.59 118.48 84.86 113.22 84.86H113.23ZM113.19 70.58C111.72 70.58 110.66 71.66 110.66 76.52C110.64 81.6 111.8 82.48 113.23 82.48C114.84 82.48 115.78 81.25 115.78 76.52C115.78 71.44 114.64 70.58 113.18 70.58H113.19Z" fill="black"/>
<path d="M127.67 84.86C122.57 84.86 122.08 78.88 122.08 76.81C122.08 74.17 122.54 68.21 127.67 68.21C129.69 68.21 131.04 69.2 131.89 70.56C132.99 72.32 133.25 74.45 133.25 76.52C133.25 78.59 132.92 84.86 127.66 84.86H127.67ZM127.62 70.58C126.15 70.58 125.09 71.66 125.09 76.52C125.07 81.6 126.23 82.48 127.66 82.48C129.27 82.48 130.21 81.25 130.21 76.52C130.21 71.44 129.07 70.58 127.61 70.58H127.62Z" fill="black"/>
<path d="M136.49 84.55C136.89 81.69 137.88 79.97 141.51 77.31C143.86 75.59 144.57 74.71 144.57 73.31C144.57 71.79 143.51 70.65 142.06 70.65C139.84 70.65 139.77 72.96 139.75 74.15H136.96C137 72.72 137.18 68.21 142.15 68.21C145.45 68.21 147.58 70.5 147.58 73.32C147.58 75.89 145.75 77.35 143.66 78.8C141.5 80.3 140.95 80.91 140.27 82.25H147.71V84.56H136.49V84.55Z" fill="black"/>
<path d="M14.59 95.7701V96.8901H18.84V104.02H15.98C16.93 104.81 18.49 105.56 19.74 105.93L18.51 107.58C17.04 107.05 15.61 106.35 14.24 105.12L15.27 104.02H11.71L12.5 104.79C12.68 104.97 12.81 105.12 12.81 105.25C12.81 105.4 12.66 105.4 12.37 105.4C12.28 105.4 12.24 105.42 12.11 105.53C10.97 106.56 9.24995 107.44 8.56995 107.73L7.09995 106.12C8.74995 105.59 10.16 104.78 10.88 104.01H8.27995V96.8801H12.28V95.7601H7.34995V94.2201H5.56995V95.4301C5.56995 95.8701 6.33995 97.0101 6.64995 97.4501C6.93995 97.8901 7.28995 98.3301 7.61995 98.7501L6.31995 100.33C5.76995 99.6001 5.65995 99.4101 5.56995 99.2301V107.61H3.38995V100.17C3.07995 100.85 2.59995 101.62 2.08995 102.22L0.199951 101.08C1.64995 99.3901 2.92995 97.0301 3.38995 94.2201H1.09995V92.1301H3.38995V88.8501L5.43995 89.0301C5.58995 89.0501 5.94995 89.0701 5.94995 89.2301C5.94995 89.3001 5.90995 89.3601 5.79995 89.4701C5.59995 89.6501 5.57995 89.6701 5.57995 89.7301V92.1301H7.35995V94.0401H10.18V92.4301H8.26995V90.7601H10.18V88.8701L12.34 89.0201C12.54 89.0401 12.76 89.0901 12.76 89.2401C12.76 89.3301 12.67 89.3901 12.56 89.4601C12.41 89.5701 12.36 89.5901 12.36 89.6601V90.7601H14.38V88.8501L16.49 88.9801C16.86 89.0001 16.9699 89.0701 16.9699 89.2001C16.9699 89.2701 16.9 89.3101 16.82 89.3501C16.75 89.4201 16.67 89.4601 16.67 89.5301V90.7601H19.51V92.4301H16.67V94.0401H19.99V95.7601H14.6L14.59 95.7701ZM12.28 98.5001H10.54V99.7501H12.28V98.5001ZM12.28 101.05H10.54V102.41H12.28V101.05ZM14.37 92.4401H12.35V94.0501H14.37V92.4401ZM16.57 98.5001H14.59V99.7501H16.57V98.5001ZM16.57 101.05H14.59V102.41H16.57V101.05Z" fill="black"/>
<path d="M28.31 98.2299C27.67 97.7899 26.79 97.1999 24.53 96.3599L25.78 94.1799C27.08 94.6599 28.33 95.3199 29.43 96.1599L28.31 98.2299ZM28.67 104.24C28.49 104.64 27.46 106.59 27.42 106.79C27.42 106.86 27.44 107.14 27.44 107.21C27.44 107.25 27.42 107.47 27.26 107.47C27.19 107.47 26.97 107.38 26.84 107.29L24.71 106.01C26.07 104.14 27.24 101.98 28.23 99.4499L30.23 100.64C29.75 101.83 29.22 103.04 28.67 104.23V104.24ZM29.61 93.0599C28.36 92.0699 27.04 91.4099 26.05 91.0099L27.39 88.9599C28.53 89.4399 29.81 90.1699 30.95 91.0299L29.61 93.0499V93.0599ZM34.5 101.71L36.44 103.34C36.57 103.45 36.7 103.58 36.7 103.78C36.7 104.07 36.28 104.02 35.95 104C35.64 104.35 33.73 106.35 31.73 107.63L29.42 105.89C30.23 105.52 31.11 105.12 32.26 104.15C33.54 103.07 33.91 102.37 34.28 101.71H30.83V99.3299H32.41V89.7399C33.31 89.9599 33.84 90.0699 34.26 90.0699C35.01 90.0699 36.02 89.9199 36.22 89.8699C39.48 89.3399 40.2 89.0299 41.54 88.4399L42.79 90.3999C42.88 90.5299 43.03 90.7999 43.03 90.9499C43.03 91.0799 42.88 91.0999 42.77 91.0999C42.68 91.0999 42.26 91.0299 42.15 91.0299C42.04 91.0299 40.7 91.2899 40.5 91.3399C39.6 91.5199 36.87 91.9099 34.91 91.9599V93.6299H43.53V95.9399H40.14V99.3299H44.21V101.71H34.48H34.5ZM37.67 95.9399H34.92V99.3299H37.67V95.9399ZM42.95 107.65C40.53 106.22 38.92 104.5 37.89 103.23L39.83 101.8C41.13 103.56 42.98 104.81 44.91 105.8L42.95 107.65Z" fill="black"/>
<path d="M60.2999 93.5402V95.6302H66.48V103.35C66.48 105.35 65.25 105.84 62.41 105.88L61.4599 103.42C61.8799 103.46 62.23 103.46 62.74 103.46C63.71 103.46 63.86 103.31 63.86 102.6V97.9302H60.2999V108.16H57.57V97.9302H53.9V105.9H51.2599V95.6202H57.57V93.5302H49.45V91.2002H57.57V88.7402L60.41 88.9402C60.52 88.9402 60.7 88.9802 60.7 89.1402C60.7 89.1802 60.7 89.2702 60.59 89.3802C60.33 89.6402 60.2999 89.6902 60.2999 89.7502V91.2002H68.3799V93.5302H60.2999V93.5402Z" fill="black"/>
<path d="M118.03 102.24V101.36H112.97V107.61H110.44V101.36H105.42V102.33H102.89V92.45H110.44V88.71L113.19 88.95C113.32 88.97 113.52 88.99 113.52 89.19C113.52 89.34 113.37 89.43 113.28 89.5C113.1 89.61 112.97 89.7 112.97 89.83V92.45H120.56V102.24H118.03ZM110.44 94.84H105.42V98.98H110.44V94.84ZM118.03 94.84H112.97V98.98H118.03V94.84Z" fill="black"/>
<path d="M129.76 106.88V107.52H127.14V89.4102H144.9V91.7402H129.76V104.55H145.01V106.88H129.76ZM141.42 103.91C140.52 102.88 139.55 101.8 137.61 99.9501C135.78 101.69 134.44 102.72 132.46 103.91L130.66 102.04C132.82 101.01 134.33 99.8202 135.81 98.3002C134.34 97.0202 132.75 95.6802 130.84 94.5602L132.25 92.6502C133.72 93.5702 135 94.4302 137.46 96.4602C138.43 95.2702 139.29 94.0402 140.14 92.1502L142.47 93.3602C142.65 93.4502 142.71 93.6002 142.71 93.6902C142.71 93.8902 142.51 93.9102 142.38 93.9302C141.98 94.0002 141.96 94.0402 141.76 94.3702C141.14 95.4702 140.59 96.4802 139.32 98.0702C141.19 99.7602 142.2 100.8 143.26 102.01L141.41 103.92L141.42 103.91Z" fill="black"/>
<path d="M181.41 98.8002C180.49 97.9202 179.1 97.0402 178.37 96.6202L179.67 94.7902C180.57 95.2302 181.83 96.0702 182.79 96.8602L181.4 98.8002H181.41ZM180.73 107.38C180.66 107.51 180.66 107.56 180.66 107.86C180.66 107.95 180.64 108.06 180.55 108.06C180.4 108.06 180.18 107.91 180.02 107.77L178.41 106.41C179.71 104.63 180.81 102.74 181.67 100.71L183.45 102.1C182.48 104.26 181.78 105.51 180.72 107.38H180.73ZM182.09 92.8602C181.47 92.2402 180.48 91.3602 179.49 90.6802L180.92 88.9002C181.73 89.4702 182.83 90.3302 183.63 91.0802L182.09 92.8602ZM187.09 92.2902C186.67 92.8602 186.17 93.5002 185.24 94.2502L183.19 93.0402C184.42 91.9202 185.68 90.5802 186.73 88.2402L188.93 88.9902C189.13 89.0602 189.37 89.1702 189.37 89.2802C189.37 89.3702 189.26 89.4602 189.19 89.4802C189.08 89.5002 188.84 89.5702 188.79 89.6102C188.7 89.6802 188.48 90.1402 188.44 90.2302H198.17V92.3002H187.08L187.09 92.2902ZM196.59 100.08C196.55 100.96 196.52 101.33 196.41 102.35H197.93V104.37H196.17C195.93 105.69 195.8 106.24 195.29 106.77C194.98 107.08 194.12 107.8 192.12 107.85L191 105.72C193.46 105.74 193.55 105.39 193.77 104.38H187.37C187.24 104.89 187.22 104.95 187.06 105.44L184.84 105.22C185.17 104.03 185.43 102.89 185.74 100.09H184.16V98.1502H185.92C186.01 96.9002 186.07 95.5802 186.01 93.8402H196.75C196.75 95.1602 196.75 95.9102 196.71 98.1502H198.12V100.09H196.6L196.59 100.08ZM188.01 100.08C187.9 101.27 187.79 101.95 187.75 102.35H189.62C189.8 101.51 189.93 100.43 189.97 100.08H188.01ZM188.25 95.8802C188.25 96.8302 188.21 97.7502 188.18 98.1502H190.14C190.21 97.2502 190.27 96.5702 190.25 95.8802H188.25ZM192.21 100.08C192.14 100.85 192.06 101.6 191.92 102.35H194.05C194.14 101.54 194.18 100.79 194.23 100.08H192.21ZM192.48 95.8802C192.48 96.8302 192.44 97.4002 192.39 98.1502H194.33C194.37 96.9402 194.37 96.5202 194.37 95.8802H192.48Z" fill="black"/>
<path d="M207.26 96.9102C207.19 99.9902 207.06 103.89 204.97 107.69L202.37 106.83C203.65 104.65 204.61 101.92 204.61 97.5202C204.61 96.4002 204.57 95.5802 204.52 94.7902H222.08V96.9002H207.25L207.26 96.9102ZM221.08 89.9102C220.84 90.1302 220.75 90.2202 220.75 90.3302V93.7902H204.89V89.1902L207.49 89.3402C207.8 89.3602 208.08 89.4302 208.08 89.6702C208.08 89.8202 207.93 89.8902 207.84 89.9302C207.6 90.0402 207.58 90.0602 207.58 90.1502V91.6902H211.52V88.6802L214.29 88.8602C214.69 88.8802 214.88 88.9702 214.88 89.1702C214.88 89.2802 214.77 89.3702 214.66 89.4302C214.42 89.5802 214.31 89.6502 214.31 89.7802V91.6902H218.07V89.1202L220.71 89.3002C220.82 89.3002 221.24 89.3702 221.24 89.6302C221.24 89.7402 221.17 89.8302 221.09 89.9202L221.08 89.9102ZM215.6 104.19V107.75H212.78V104.19H207.3V101.92H212.78V100.34H208.34V98.2102H220.95V100.34H215.6V101.92H222V104.19H215.6Z" fill="black"/>
<path d="M246.25 107.19H236.44C233.01 107.19 231.93 105.91 231.23 105.03C230.5 105.8 230.04 106.17 229.01 107.03C228.88 107.32 228.79 107.6 228.68 107.6C228.55 107.6 228.48 107.45 228.42 107.34L227.23 105.03C228.07 104.68 229.14 104.11 229.94 103.58V98.8501H227.78V96.6501H232.29V103.01C232.29 105.21 235.44 105.21 237.2 105.21C240.52 105.21 243.84 105.06 247.15 104.75L246.27 107.19H246.25ZM231.18 93.3701C230.59 92.7101 229.55 91.6501 228.14 90.7701L229.61 89.0801C230.75 89.8101 231.7 90.5801 232.71 91.7001L231.17 93.3701H231.18ZM243.48 104.44H242.31L241.54 102.57C242.9 102.59 243.06 102.59 243.06 102.04V101.27H240.84V103.98H238.57V101.27H236.39V104.2H234.1V93.9201H238.61C237.69 93.3901 236.76 92.9101 235.79 92.4701L236.43 91.3301H234.19V89.2201H244.31L244.99 90.0801C244.48 90.6101 243.56 91.5501 241.82 93.1401C241.93 93.1801 242.41 93.4501 242.52 93.5101L242.21 93.9301H245.33V102.6C245.33 103.5 244.69 104.45 243.46 104.45L243.48 104.44ZM238.57 95.7501H236.39V96.8901H238.57V95.7501ZM238.57 98.4301H236.39V99.6201H238.57V98.4301ZM238.08 91.3201C238.37 91.4301 239.58 92.0001 239.84 92.1101C240.19 91.7601 240.41 91.4701 240.52 91.3201H238.08ZM243.06 95.7501H240.84V96.8901H243.06V95.7501ZM243.06 98.4301H240.84V99.6201H243.06V98.4301Z" fill="black"/>
<path d="M284 106.55V95.3702H279.64V93.2802H280.92C282.09 93.2802 283.93 92.5802 284.42 90.4902H286.8V106.55H284.01H284Z" fill="black"/>
<path d="M302.17 92.0301V104.7C302.17 107.05 301.25 107.6 297.33 107.65L296.25 104.79C296.69 104.88 297.61 105.03 298.41 105.03C299.21 105.03 299.42 104.7 299.42 104.17V92.0201H291.3V89.5801H310.13V92.0201H302.16L302.17 92.0301Z" fill="black"/>
<path d="M324.5 107.34V106.66H316.36V107.41H313.76V89.2402H327.09V107.35H324.49L324.5 107.34ZM324.5 91.5402H316.36V94.2202H324.5V91.5402ZM324.5 96.4902H316.36V99.2402H324.5V96.4902ZM324.5 101.49H316.36V104.35H324.5V101.49Z" fill="black"/>
<path d="M1.16992 134.84H3.91992V141.99L10.9199 134.84H14.3099L8.03992 141.11L14.7499 150.55H11.3199L6.16992 143.05L3.92992 145.27V150.55H1.16992V134.84Z" fill="black"/>
<path d="M22.6401 134.84H25.5701L31.6201 150.55H28.6701L27.2001 146.39H20.9301L19.4601 150.55H16.6201L22.6501 134.84H22.6401ZM21.6701 144.3H26.4701L24.1201 137.55H24.0501L21.6701 144.3Z" fill="black"/>
<path d="M33.8801 134.84H36.7801L43.9501 146.41H43.9901V134.84H46.6101V150.55H43.7101L36.5601 139H36.4901V150.55H33.8701V134.84H33.8801Z" fill="black"/>
<path d="M51.9599 134.84H54.86L62.0299 146.41H62.07V134.84H64.69V150.55H61.79L54.6399 139H54.57V150.55H51.95V134.84H51.9599Z" fill="black"/>
<path d="M74.3601 134.84H77.2901L83.3401 150.55H80.3901L78.9201 146.39H72.6501L71.1801 150.55H68.3401L74.3701 134.84H74.3601ZM73.3901 144.3H78.1901L75.8401 137.55H75.7701L73.3901 144.3Z" fill="black"/>
<path d="M87.03 134.84H89.78V150.55H87.03V134.84Z" fill="black"/>
<path d="M107.74 150.55H105.98L105.56 148.7C104.09 150.37 102.74 150.92 100.83 150.92C96.1201 150.92 93.3101 147.18 93.3101 142.69C93.3101 138.2 96.1301 134.46 100.83 134.46C104.26 134.46 107.14 136.29 107.56 139.83H104.88C104.62 137.76 102.81 136.71 100.83 136.71C97.4601 136.71 96.0601 139.68 96.0601 142.69C96.0601 145.7 97.4701 148.68 100.83 148.68C103.65 148.72 105.19 147.03 105.23 144.37H101.05V142.28H107.74V150.55Z" fill="black"/>
<path d="M117.13 134.84H120.06L126.11 150.55H123.16L121.69 146.39H115.42L113.95 150.55H111.11L117.14 134.84H117.13ZM116.16 144.3H120.96L118.61 137.55H118.54L116.16 144.3Z" fill="black"/>
<path d="M128.48 134.84H131.23V150.55H128.48V134.84Z" fill="black"/>
<path d="M175.96 142.69C175.96 147.18 173.14 150.92 168.44 150.92C163.74 150.92 160.91 147.18 160.91 142.69C160.91 138.2 163.73 134.46 168.44 134.46C173.15 134.46 175.96 138.2 175.96 142.69ZM163.66 142.69C163.66 145.7 165.07 148.68 168.43 148.68C171.79 148.68 173.2 145.71 173.2 142.69C173.2 139.67 171.79 136.71 168.43 136.71C165.07 136.71 163.66 139.68 163.66 142.69Z" fill="black"/>
<path d="M180.66 134.84H187.59C192.08 134.84 192.94 137.74 192.94 139.7C192.94 141.66 192.08 144.54 187.59 144.52H183.41V150.55H180.66V134.84ZM183.41 142.28H187.44C188.67 142.28 190.19 141.66 190.19 139.68C190.19 137.7 188.94 137.08 187.48 137.08H183.41V142.27V142.28Z" fill="black"/>
<path d="M197.54 134.84H208.85V137.22H200.29V141.33H208.21V143.58H200.29V148.18H209V150.56H197.54V134.85V134.84Z" fill="black"/>
<path d="M213.49 134.84H216.39L223.56 146.41H223.6V134.84H226.22V150.55H223.32L216.17 139H216.1V150.55H213.48V134.84H213.49Z" fill="black"/>
<path d="M231.59 147.8H234.54V150.55H231.59V147.8ZM231.7 134.84H234.45V139.37L233.72 146.17H232.42L231.69 139.37V134.84H231.7Z" fill="black"/>
<path d="M264.44 137.7C266.55 137.72 268.55 137 268.93 135.15H270.98V150.55H268.23V139.68H264.45V137.7H264.44Z" fill="black"/>
<path d="M274.95 135.15H285.49V137.24C282.28 140.87 280.14 144.99 279.75 150.55H277C277.33 145.69 279.77 140.96 282.94 137.39H274.95V135.15Z" fill="black"/>
<path d="M1.16992 156.84H12.4799V159.22H3.91992V163.33H11.8399V165.58H3.91992V170.18H12.6299V172.56H1.16992V156.85V156.84Z" fill="black"/>
<path d="M15.86 156.84H19.14L22.7 162.38L26.42 156.84H29.5L24.31 164.41L29.88 172.55H26.54L22.62 166.54L18.64 172.55H15.49L21.06 164.41L15.87 156.84H15.86Z" fill="black"/>
<path d="M33.6201 156.84H36.3701V163.09H43.5201V156.84H46.2701V172.55H43.5201V165.47H36.3701V172.55H33.6201V156.84Z" fill="black"/>
<path d="M51.77 156.84H54.52V172.55H51.77V156.84Z" fill="black"/>
<path d="M60.0801 156.84H67.7101C70.5301 156.84 72.3801 158.12 72.3801 160.73C72.3801 162.31 71.5701 163.46 70.1401 164.07V164.11C72.0501 164.53 73.0901 166.02 73.0901 168.16C73.0901 170.62 71.3701 172.54 67.3001 172.54H60.0801V156.83V156.84ZM62.8301 163.42H67.3201C68.6401 163.42 69.6301 162.65 69.6301 161.24C69.6301 159.66 68.8201 159.08 67.3201 159.08H62.8301V163.41V163.42ZM62.8301 170.3H67.6901C69.3601 170.3 70.3301 169.4 70.3301 167.81C70.3301 166.22 69.3601 165.39 67.6901 165.39H62.8301V170.3Z" fill="black"/>
<path d="M77.77 156.84H80.52V172.55H77.77V156.84Z" fill="black"/>
<path d="M84.5901 156.84H97.3101V159.22H92.3101V172.55H89.5601V159.22H84.5901V156.84Z" fill="black"/>
<path d="M101.33 156.84H104.08V172.55H101.33V156.84Z" fill="black"/>
<path d="M123.86 164.69C123.86 169.18 121.04 172.92 116.34 172.92C111.64 172.92 108.81 169.18 108.81 164.69C108.81 160.2 111.63 156.46 116.34 156.46C121.05 156.46 123.86 160.2 123.86 164.69ZM111.56 164.69C111.56 167.7 112.97 170.68 116.33 170.68C119.69 170.68 121.1 167.71 121.1 164.69C121.1 161.67 119.69 158.71 116.33 158.71C112.97 158.71 111.56 161.68 111.56 164.69Z" fill="black"/>
<path d="M128.46 156.84H131.36L138.53 168.41H138.57V156.84H141.19V172.55H138.29L131.14 161H131.07V172.55H128.45V156.84H128.46Z" fill="black"/>
<path d="M10.8701 194.55H0.350098C0.370098 192.02 1.6701 190.11 3.7401 188.72C5.7401 187.27 8.3401 186.06 8.3801 183.66C8.4001 182.56 7.9401 180.93 5.7801 180.93C3.8001 180.93 3.2101 182.62 3.1401 184.78H0.640098C0.640098 181.37 2.5101 178.84 5.9401 178.84C9.7001 178.84 10.8901 181.59 10.8901 183.57C10.8901 186.01 9.2201 187.53 7.4601 188.76C5.6801 189.99 3.8101 190.94 3.3701 192.3H10.8701V194.54V194.55Z" fill="black"/>
<path d="M25.37 186.85C25.37 190.35 24.47 194.86 20.05 194.86C15.63 194.86 14.73 190.35 14.73 186.85C14.73 183.35 15.63 178.84 20.05 178.84C24.47 178.84 25.37 183.35 25.37 186.85ZM22.86 186.85C22.86 183.64 22.24 180.93 20.04 180.93C17.84 180.93 17.22 183.64 17.22 186.85C17.22 190.06 17.84 192.77 20.04 192.77C22.24 192.77 22.86 190.06 22.86 186.85Z" fill="black"/>
<path d="M39.73 194.55H29.21C29.23 192.02 30.53 190.11 32.6 188.72C34.6 187.27 37.2 186.06 37.24 183.66C37.26 182.56 36.8 180.93 34.64 180.93C32.66 180.93 32.07 182.62 32 184.78H29.49C29.49 181.37 31.36 178.84 34.79 178.84C38.55 178.84 39.74 181.59 39.74 183.57C39.74 186.01 38.07 187.53 36.31 188.76C34.53 189.99 32.66 190.94 32.22 192.3H39.72V194.54L39.73 194.55Z" fill="black"/>
<path d="M51.48 183.04C51.37 181.79 50.53 180.93 49.24 180.93C46.51 180.93 46.2 184.19 46.05 186.21L46.09 186.25C46.77 185.04 48.05 184.42 49.41 184.42C52.47 184.42 54.27 186.64 54.27 189.59C54.27 192.54 52.22 194.85 49.14 194.85C44.61 194.85 43.53 191.29 43.53 186.8C43.53 183.13 44.98 178.84 49.34 178.84C51.78 178.84 53.85 180.53 53.98 183.04H51.47H51.48ZM51.77 189.55C51.77 187.9 50.87 186.4 49.06 186.4C47.25 186.4 46.29 187.85 46.29 189.55C46.29 191.25 47.24 192.76 49.06 192.76C50.88 192.76 51.77 191.2 51.77 189.55Z" fill="black"/>
<path d="M58.74 191.58H61.8V194.55H58.74V191.58Z" fill="black"/>
<path d="M101.86 194.55H91.3401C91.3601 192.02 92.6601 190.11 94.7301 188.72C96.7301 187.27 99.3301 186.06 99.3701 183.66C99.3901 182.56 98.9301 180.93 96.7701 180.93C94.7901 180.93 94.2001 182.62 94.1301 184.78H91.6201C91.6201 181.37 93.4901 178.84 96.9201 178.84C100.68 178.84 101.87 181.59 101.87 183.57C101.87 186.01 100.2 187.53 98.4401 188.76C96.6601 189.99 94.7901 190.94 94.3501 192.3H101.85V194.54L101.86 194.55Z" fill="black"/>
<path d="M106.44 191.58H109.5V194.55H106.44V191.58Z" fill="black"/>
<path d="M149.56 194.55H139.04C139.06 192.02 140.36 190.11 142.43 188.72C144.43 187.27 147.03 186.06 147.07 183.66C147.09 182.56 146.63 180.93 144.47 180.93C142.49 180.93 141.9 182.62 141.83 184.78H139.32C139.32 181.37 141.19 178.84 144.62 178.84C148.38 178.84 149.57 181.59 149.57 183.57C149.57 186.01 147.9 187.53 146.14 188.76C144.36 189.99 142.49 190.94 142.05 192.3H149.55V194.54L149.56 194.55Z" fill="black"/>
<path d="M157.63 185.53C159.3 185.6 161.04 185 161.04 183.11C161.04 181.81 160.03 180.93 158.64 180.93C156.9 180.93 156.04 182.49 156.09 184.08H153.58C153.71 181.09 155.58 178.84 158.68 178.84C161.08 178.84 163.54 180.23 163.54 182.95C163.54 184.49 162.84 185.72 161.36 186.25V186.29C163.1 186.64 164.15 188.16 164.15 190.14C164.15 193.04 161.64 194.85 158.69 194.85C155.13 194.85 153.34 192.69 153.28 189.48H155.79C155.72 191.35 156.74 192.76 158.69 192.76C160.36 192.76 161.64 191.77 161.64 190.01C161.64 187.61 159.59 187.3 157.61 187.39V185.52L157.63 185.53Z" fill="black"/>
<path d="M196.24 196.95C194.48 194.16 193.07 191.01 193.07 186.81C193.07 183.27 194.24 179.75 196.24 176.67H198.29C196.53 179.82 195.58 183.14 195.58 186.81C195.58 190.48 196.44 193.83 198.29 196.95H196.24Z" fill="black"/>
<path d="M201.94 178.84H205.81L210.14 191.14H210.18L214.4 178.84H218.23V194.55H215.61V182.43H215.57L211.21 194.55H208.94L204.58 182.43H204.54V194.55H201.92V178.84H201.94Z" fill="black"/>
<path d="M237.95 186.69C237.95 191.18 235.13 194.92 230.43 194.92C225.73 194.92 222.9 191.18 222.9 186.69C222.9 182.2 225.72 178.46 230.43 178.46C235.14 178.46 237.95 182.2 237.95 186.69ZM225.65 186.69C225.65 189.7 227.06 192.68 230.42 192.68C233.78 192.68 235.19 189.71 235.19 186.69C235.19 183.67 233.78 180.71 230.42 180.71C227.06 180.71 225.65 183.68 225.65 186.69Z" fill="black"/>
<path d="M242.55 178.84H245.45L252.62 190.41H252.66V178.84H255.28V194.55H252.38L245.23 183H245.16V194.55H242.54V178.84H242.55Z" fill="black"/>
<path d="M261.82 185.16C262.91 185.16 263.79 186.03 263.79 187.12C263.79 188.21 262.91 189.09 261.82 189.09C260.73 189.09 259.86 188.21 259.86 187.12C259.86 186.03 260.73 185.16 261.82 185.16Z" fill="black"/>
<path d="M267.28 178.84H270.03V185.09H277.18V178.84H279.93V194.55H277.18V187.47H270.03V194.55H267.28V178.84Z" fill="black"/>
<path d="M299.64 186.69C299.64 191.18 296.82 194.92 292.12 194.92C287.42 194.92 284.59 191.18 284.59 186.69C284.59 182.2 287.41 178.46 292.12 178.46C296.83 178.46 299.64 182.2 299.64 186.69ZM287.34 186.69C287.34 189.7 288.75 192.68 292.11 192.68C295.47 192.68 296.88 189.71 296.88 186.69C296.88 183.67 295.47 180.71 292.11 180.71C288.75 180.71 287.34 183.68 287.34 186.69Z" fill="black"/>
<path d="M304.35 178.84H307.1V192.17H315.09V194.55H304.35V178.84Z" fill="black"/>
<path d="M319.37 176.67C321.13 179.49 322.54 182.63 322.54 186.84C322.54 190.38 321.37 193.9 319.37 196.96H317.32C319.08 193.84 320.03 190.51 320.03 186.84C320.03 183.17 319.17 179.82 317.32 176.67H319.37Z" fill="black"/>
<path d="M0.659912 203.7C2.76991 203.72 4.76991 203 5.14991 201.15H7.19991V216.55H4.44991V205.68H0.659912V203.7Z" fill="black"/>
<path d="M15.4201 207.53C17.0901 207.6 18.8301 207 18.8301 205.11C18.8301 203.81 17.8201 202.93 16.4301 202.93C14.6901 202.93 13.8301 204.49 13.8801 206.08H11.3701C11.5001 203.09 13.3701 200.84 16.4701 200.84C18.8701 200.84 21.3301 202.23 21.3301 204.95C21.3301 206.49 20.6301 207.72 19.1501 208.25V208.29C20.8901 208.64 21.9401 210.16 21.9401 212.14C21.9401 215.04 19.4301 216.85 16.4801 216.85C12.9201 216.85 11.1301 214.69 11.0701 211.48H13.5801C13.5101 213.35 14.5301 214.76 16.4801 214.76C18.1501 214.76 19.4301 213.77 19.4301 212.01C19.4301 209.61 17.3801 209.3 15.4001 209.39V207.52L15.4201 207.53Z" fill="black"/>
<path d="M26.3601 203.62H29.4201V206.59H26.3601V203.62ZM26.3601 211.78H29.4201V214.75H26.3601V211.78Z" fill="black"/>
<path d="M44.5999 208.85C44.5999 212.35 43.7 216.86 39.27 216.86C34.84 216.86 33.95 212.35 33.95 208.85C33.95 205.35 34.85 200.84 39.27 200.84C43.69 200.84 44.5999 205.35 44.5999 208.85ZM42.09 208.85C42.09 205.64 41.47 202.93 39.27 202.93C37.07 202.93 36.45 205.64 36.45 208.85C36.45 212.06 37.07 214.77 39.27 214.77C41.47 214.77 42.09 212.06 42.09 208.85Z" fill="black"/>
<path d="M59.0299 208.85C59.0299 212.35 58.1299 216.86 53.6999 216.86C49.2699 216.86 48.3799 212.35 48.3799 208.85C48.3799 205.35 49.2799 200.84 53.6999 200.84C58.1199 200.84 59.0299 205.35 59.0299 208.85ZM56.5199 208.85C56.5199 205.64 55.8999 202.93 53.6999 202.93C51.4999 202.93 50.8799 205.64 50.8799 208.85C50.8799 212.06 51.4999 214.77 53.6999 214.77C55.8999 214.77 56.5199 212.06 56.5199 208.85Z" fill="black"/>
<path d="M69.21 207.58H75.61V209.96H69.21V207.58Z" fill="black"/>
<path d="M88.3701 203.7C90.4801 203.72 92.4801 203 92.8601 201.15H94.9101V216.55H92.1601V205.68H88.3801V203.7H88.3701Z" fill="black"/>
<path d="M98.8899 201.15H109.43V203.24C106.22 206.87 104.08 210.99 103.69 216.55H100.94C101.27 211.69 103.71 206.96 106.88 203.39H98.8899V201.15Z" fill="black"/>
<path d="M114.07 203.62H117.13V206.59H114.07V203.62ZM114.07 211.78H117.13V214.75H114.07V211.78Z" fill="black"/>
<path d="M132.31 208.85C132.31 212.35 131.41 216.86 126.98 216.86C122.55 216.86 121.66 212.35 121.66 208.85C121.66 205.35 122.56 200.84 126.98 200.84C131.4 200.84 132.31 205.35 132.31 208.85ZM129.8 208.85C129.8 205.64 129.18 202.93 126.98 202.93C124.78 202.93 124.16 205.64 124.16 208.85C124.16 212.06 124.78 214.77 126.98 214.77C129.18 214.77 129.8 212.06 129.8 208.85Z" fill="black"/>
<path d="M146.74 208.85C146.74 212.35 145.84 216.86 141.41 216.86C136.98 216.86 136.09 212.35 136.09 208.85C136.09 205.35 136.99 200.84 141.41 200.84C145.83 200.84 146.74 205.35 146.74 208.85ZM144.23 208.85C144.23 205.64 143.61 202.93 141.41 202.93C139.21 202.93 138.59 205.64 138.59 208.85C138.59 212.06 139.21 214.77 141.41 214.77C143.61 214.77 144.23 212.06 144.23 208.85Z" fill="black"/>
<path d="M0.7 222.84H12.65V224.93L3.5 236.17H12.87V238.55H0V236.31L9.15 225.22H0.7V222.84Z" fill="black"/>
<path d="M31.4399 230.69C31.4399 235.18 28.6199 238.92 23.9199 238.92C19.2199 238.92 16.3899 235.18 16.3899 230.69C16.3899 226.2 19.2099 222.46 23.9199 222.46C28.6299 222.46 31.4399 226.2 31.4399 230.69ZM19.1399 230.69C19.1399 233.7 20.5499 236.68 23.9099 236.68C27.2699 236.68 28.6799 233.71 28.6799 230.69C28.6799 227.67 27.2699 224.71 23.9099 224.71C20.5499 224.71 19.1399 227.68 19.1399 230.69Z" fill="black"/>
<path d="M35.97 222.84H38.72V231.99C38.72 234.1 38.85 236.54 42.42 236.54C45.99 236.54 46.12 234.1 46.12 231.99V222.84H48.87V232.89C48.87 236.92 46.3 238.92 42.42 238.92C38.54 238.92 35.97 236.92 35.97 232.89V222.84Z" fill="black"/>
<path d="M53.6399 229.58H60.0399V231.96H53.6399V229.58Z" fill="black"/>
<path d="M64.8801 222.84H67.7801L74.9501 234.41H74.9901V222.84H77.6101V238.55H74.7101L67.5601 227H67.4901V238.55H64.8701V222.84H64.8801Z" fill="black"/>
<path d="M97.29 230.69C97.29 235.18 94.47 238.92 89.77 238.92C85.07 238.92 82.24 235.18 82.24 230.69C82.24 226.2 85.06 222.46 89.77 222.46C94.48 222.46 97.29 226.2 97.29 230.69ZM84.99 230.69C84.99 233.7 86.4 236.68 89.76 236.68C93.12 236.68 94.53 233.71 94.53 230.69C94.53 227.67 93.12 224.71 89.76 224.71C86.4 224.71 84.99 227.68 84.99 230.69Z" fill="black"/>
<path d="M101.4 229.58H107.8V231.96H101.4V229.58Z" fill="black"/>
<path d="M112.68 222.84H115.43V229.09H122.58V222.84H125.33V238.55H122.58V231.47H115.43V238.55H112.68V222.84Z" fill="black"/>
<path d="M135.04 222.84H137.97L144.02 238.55H141.07L139.6 234.39H133.33L131.86 238.55H129.02L135.05 222.84H135.04ZM134.07 232.3H138.87L136.52 225.55H136.45L134.07 232.3Z" fill="black"/>
<path d="M147.6 222.84H150.5L157.67 234.41H157.71V222.84H160.33V238.55H157.43L150.28 227H150.21V238.55H147.59V222.84H147.6Z" fill="black"/>
<path d="M169.99 222.84H172.92L178.97 238.55H176.02L174.55 234.39H168.28L166.81 238.55H163.97L170 222.84H169.99ZM169.02 232.3H173.82L171.47 225.55H171.4L169.02 232.3Z" fill="black"/>
<path d="M189.48 222.84H202.2V225.22H197.2V238.55H194.45V225.22H189.48V222.84Z" fill="black"/>
<path d="M206.23 222.84H217.54V225.22H208.98V229.33H216.9V231.58H208.98V236.18H217.69V238.56H206.23V222.85V222.84Z" fill="black"/>
<path d="M222.29 222.84H229.79C233.22 222.84 234.98 224.42 234.98 227.09C234.98 230.1 232.89 230.88 232.38 231.05V231.09C233.33 231.22 234.71 231.93 234.71 234.41C234.71 236.24 234.97 237.91 235.57 238.55H232.62C232.2 237.87 232.2 237.01 232.2 236.24C232.2 233.36 231.61 232.08 229.08 232.08H225.03V238.55H222.28V222.84H222.29ZM225.04 229.99H229.55C231.29 229.99 232.23 229.13 232.23 227.48C232.23 225.48 230.93 225.08 229.5 225.08H225.03V229.99H225.04Z" fill="black"/>
<path d="M239.97 222.84H247.47C250.9 222.84 252.66 224.42 252.66 227.09C252.66 230.1 250.57 230.88 250.06 231.05V231.09C251.01 231.22 252.39 231.93 252.39 234.41C252.39 236.24 252.65 237.91 253.25 238.55H250.3C249.88 237.87 249.88 237.01 249.88 236.24C249.88 233.36 249.29 232.08 246.76 232.08H242.71V238.55H239.96V222.84H239.97ZM242.72 229.99H247.23C248.97 229.99 249.91 229.13 249.91 227.48C249.91 225.48 248.61 225.08 247.18 225.08H242.71V229.99H242.72Z" fill="black"/>
<path d="M261.86 222.84H264.79L270.84 238.55H267.89L266.42 234.39H260.15L258.68 238.55H255.84L261.87 222.84H261.86ZM260.9 232.3H265.7L263.35 225.55H263.28L260.9 232.3Z" fill="black"/>
<path d="M284.26 227.83C283.8 226.03 282.63 224.71 280.34 224.71C276.97 224.71 275.57 227.68 275.57 230.69C275.57 233.7 276.98 236.68 280.34 236.68C282.78 236.68 284.12 234.85 284.34 232.56H287.02C286.8 236.32 284.14 238.92 280.33 238.92C275.62 238.92 272.8 235.18 272.8 230.69C272.8 226.2 275.62 222.46 280.33 222.46C283.87 222.48 286.67 224.44 287 227.83H284.25H284.26Z" fill="black"/>
<path d="M291.74 222.84H303.05V225.22H294.49V229.33H302.41V231.58H294.49V236.18H303.2V238.56H291.74V222.85V222.84Z" fill="black"/>
<path d="M0.659912 247.7C2.76991 247.72 4.76991 247 5.14991 245.15H7.19991V260.55H4.44991V249.68H0.659912V247.7Z" fill="black"/>
<path d="M15.4399 257.58H18.4999V260.55C18.4799 262.35 17.2699 263.67 15.5299 264.03V262.69C16.4999 262.45 16.9799 261.5 16.9599 260.56H15.4399V257.59V257.58Z" fill="black"/>
<path d="M48.8601 244.84H51.6101V251.99L58.6101 244.84H62.0001L55.7301 251.11L62.4401 260.55H59.0101L53.8601 253.05L51.6201 255.27V260.55H48.8701V244.84H48.8601Z" fill="black"/>
<path d="M70.3301 244.84H73.2601L79.3101 260.55H76.3601L74.8901 256.39H68.6201L67.1501 260.55H64.3101L70.3401 244.84H70.3301ZM69.3701 254.3H74.1701L71.8201 247.55H71.7501L69.3701 254.3Z" fill="black"/>
<path d="M83.01 244.84H85.76V260.55H83.01V244.84Z" fill="black"/>
<path d="M105.03 260.55H103.27L102.85 258.7C101.38 260.37 100.03 260.92 98.1201 260.92C93.4101 260.92 90.6001 257.18 90.6001 252.69C90.6001 248.2 93.4201 244.46 98.1201 244.46C101.55 244.46 104.43 246.29 104.85 249.83H102.17C101.91 247.76 100.1 246.71 98.1201 246.71C94.7501 246.71 93.3501 249.68 93.3501 252.69C93.3501 255.7 94.7601 258.68 98.1201 258.68C100.94 258.72 102.48 257.03 102.52 254.37H98.3401V252.28H105.03V260.55Z" fill="black"/>
<path d="M114.42 244.84H117.35L123.4 260.55H120.45L118.98 256.39H112.71L111.24 260.55H108.4L114.43 244.84H114.42ZM113.45 254.3H118.25L115.9 247.55H115.83L113.45 254.3Z" fill="black"/>
<path d="M126.98 244.84H129.88L137.05 256.41H137.09V244.84H139.71V260.55H136.81L129.66 249H129.59V260.55H126.97V244.84H126.98Z" fill="black"/>
<path d="M145.18 244.84H151.69C156.53 244.84 158.62 248.36 158.62 252.69C158.62 257.02 156.53 260.55 151.69 260.55H145.18V244.84ZM147.93 258.3H150.64C154.95 258.3 155.88 255.84 155.88 252.69C155.88 249.54 154.96 247.08 150.64 247.08H147.93V258.3Z" fill="black"/>
<path d="M177.48 252.69C177.48 257.18 174.66 260.92 169.96 260.92C165.26 260.92 162.43 257.18 162.43 252.69C162.43 248.2 165.25 244.46 169.96 244.46C174.67 244.46 177.48 248.2 177.48 252.69ZM165.18 252.69C165.18 255.7 166.59 258.68 169.95 258.68C173.31 258.68 174.72 255.71 174.72 252.69C174.72 249.67 173.31 246.71 169.95 246.71C166.59 246.71 165.18 249.68 165.18 252.69Z" fill="black"/>
<path d="M182.18 244.84H189.68C193.11 244.84 194.87 246.42 194.87 249.09C194.87 252.1 192.78 252.88 192.27 253.05V253.09C193.22 253.22 194.6 253.93 194.6 256.41C194.6 258.24 194.86 259.91 195.46 260.55H192.51C192.09 259.87 192.09 259.01 192.09 258.24C192.09 255.36 191.5 254.08 188.97 254.08H184.92V260.55H182.17V244.84H182.18ZM184.93 251.99H189.44C191.18 251.99 192.12 251.13 192.12 249.48C192.12 247.48 190.82 247.08 189.39 247.08H184.92V251.99H184.93Z" fill="black"/>
<path d="M199.87 244.84H202.62V260.55H199.87V244.84Z" fill="black"/>
<path d="M208.03 257.58H211.09V260.55C211.07 262.35 209.86 263.67 208.12 264.03V262.69C209.09 262.45 209.57 261.5 209.55 260.56H208.03V257.59V257.58Z" fill="black"/>
<path d="M245.54 254.39L239.64 244.84H242.83L246.99 251.88L251.08 244.84H254.16L248.28 254.39V260.55H245.53V254.39H245.54Z" fill="black"/>
<path d="M270.8 252.69C270.8 257.18 267.98 260.92 263.28 260.92C258.58 260.92 255.75 257.18 255.75 252.69C255.75 248.2 258.57 244.46 263.28 244.46C267.99 244.46 270.8 248.2 270.8 252.69ZM258.5 252.69C258.5 255.7 259.91 258.68 263.27 258.68C266.63 258.68 268.04 255.71 268.04 252.69C268.04 249.67 266.63 246.71 263.27 246.71C259.91 246.71 258.5 249.68 258.5 252.69Z" fill="black"/>
<path d="M275.5 244.84H278.25V251.99L285.25 244.84H288.64L282.37 251.11L289.08 260.55H285.65L280.5 253.05L278.26 255.27V260.55H275.51V244.84H275.5Z" fill="black"/>
<path d="M306.99 252.69C306.99 257.18 304.17 260.92 299.47 260.92C294.77 260.92 291.94 257.18 291.94 252.69C291.94 248.2 294.76 244.46 299.47 244.46C304.18 244.46 306.99 248.2 306.99 252.69ZM294.69 252.69C294.69 255.7 296.1 258.68 299.46 258.68C302.82 258.68 304.23 255.71 304.23 252.69C304.23 249.67 302.82 246.71 299.46 246.71C296.1 246.71 294.69 249.68 294.69 252.69Z" fill="black"/>
<path d="M311.63 244.84H314.38V251.09H321.53V244.84H324.28V260.55H321.53V253.47H314.38V260.55H311.63V244.84Z" fill="black"/>
<path d="M333.98 244.84H336.91L342.96 260.55H340.01L338.54 256.39H332.27L330.8 260.55H327.96L333.99 244.84H333.98ZM333.01 254.3H337.81L335.46 247.55H335.39L333.01 254.3Z" fill="black"/>
<path d="M346.61 244.84H350.48L354.81 257.14H354.85L359.07 244.84H362.9V260.55H360.28V248.43H360.24L355.88 260.55H353.61L349.25 248.43H349.21V260.55H346.59V244.84H346.61Z" fill="black"/>
<path d="M372.61 244.84H375.54L381.59 260.55H378.64L377.17 256.39H370.9L369.43 260.55H366.59L372.62 244.84H372.61ZM371.64 254.3H376.44L374.09 247.55H374.02L371.64 254.3Z" fill="black"/>
<path d="M385.13 257.58H388.19V260.55C388.17 262.35 386.96 263.67 385.22 264.03V262.69C386.19 262.45 386.67 261.5 386.65 260.56H385.13V257.59V257.58Z" fill="black"/>
<path d="M1.06006 266.84H3.96006L11.1301 278.41H11.1701V266.84H13.7901V282.55H10.8901L3.74006 271H3.67006V282.55H1.06006V266.84Z" fill="black"/>
<path d="M23.4499 266.84H26.3799L32.4299 282.55H29.4799L28.0099 278.39H21.7399L20.2699 282.55H17.4299L23.4599 266.84H23.4499ZM22.4799 276.3H27.2799L24.9299 269.55H24.8599L22.4799 276.3Z" fill="black"/>
<path d="M36.1201 266.84H38.8701V273.99L45.8701 266.84H49.2601L42.9901 273.11L49.7001 282.55H46.2701L41.1201 275.05L38.8801 277.27V282.55H36.1301V266.84H36.1201Z" fill="black"/>
<path d="M57.6001 266.84H60.5301L66.5801 282.55H63.6301L62.1601 278.39H55.8901L54.4201 282.55H51.5801L57.6101 266.84H57.6001ZM56.6301 276.3H61.4301L59.0801 269.55H59.0101L56.6301 276.3Z" fill="black"/>
<path d="M70.27 266.84H73.02V273.99L80.02 266.84H83.41L77.14 273.11L83.85 282.55H80.42L75.27 275.05L73.03 277.27V282.55H70.28V266.84H70.27Z" fill="black"/>
<path d="M87.3601 266.84H90.1101V275.99C90.1101 278.1 90.2401 280.54 93.8101 280.54C97.3801 280.54 97.5101 278.1 97.5101 275.99V266.84H100.26V276.89C100.26 280.92 97.6901 282.92 93.8101 282.92C89.9301 282.92 87.3601 280.92 87.3601 276.89V266.84Z" fill="black"/>
<path d="M105.47 279.58H108.53V282.55C108.51 284.35 107.3 285.67 105.56 286.03V284.69C106.53 284.45 107.01 283.5 106.99 282.56H105.47V279.59V279.58Z" fill="black"/>
<path d="M138.89 266.84H141.64V273.99L148.64 266.84H152.03L145.76 273.11L152.47 282.55H149.04L143.89 275.05L141.65 277.27V282.55H138.9V266.84H138.89Z" fill="black"/>
<path d="M160.36 266.84H163.29L169.34 282.55H166.39L164.92 278.39H158.65L157.18 282.55H154.34L160.37 266.84H160.36ZM159.39 276.3H164.19L161.84 269.55H161.77L159.39 276.3Z" fill="black"/>
<path d="M172.92 266.84H175.82L182.99 278.41H183.03V266.84H185.65V282.55H182.75L175.6 271H175.53V282.55H172.91V266.84H172.92Z" fill="black"/>
<path d="M195.32 266.84H198.25L204.3 282.55H201.35L199.88 278.39H193.61L192.14 282.55H189.3L195.33 266.84H195.32ZM194.35 276.3H199.15L196.8 269.55H196.73L194.35 276.3Z" fill="black"/>
<path d="M219.49 282.55H217.73L217.31 280.7C215.84 282.37 214.49 282.92 212.58 282.92C207.87 282.92 205.06 279.18 205.06 274.69C205.06 270.2 207.88 266.46 212.58 266.46C216.01 266.46 218.89 268.29 219.31 271.83H216.63C216.37 269.76 214.56 268.71 212.58 268.71C209.21 268.71 207.81 271.68 207.81 274.69C207.81 277.7 209.22 280.68 212.58 280.68C215.4 280.72 216.94 279.03 216.98 276.37H212.8V274.28H219.49V282.55Z" fill="black"/>
<path d="M228.89 266.84H231.82L237.87 282.55H234.92L233.45 278.39H227.18L225.71 282.55H222.87L228.9 266.84H228.89ZM227.92 276.3H232.72L230.37 269.55H230.3L227.92 276.3Z" fill="black"/>
<path d="M237.38 266.84H240.17L243.01 278.85H243.05L246.22 266.84H249.04L252.12 278.85H252.16L255.09 266.84H257.88L253.55 282.55H250.76L247.61 270.54H247.57L244.36 282.55H241.52L237.38 266.84Z" fill="black"/>
<path d="M263.45 266.84H266.38L272.43 282.55H269.48L268.01 278.39H261.74L260.27 282.55H257.43L263.46 266.84H263.45ZM262.48 276.3H267.28L264.93 269.55H264.86L262.48 276.3Z" fill="black"/>
<path d="M275.97 279.58H279.03V282.55C279.01 284.35 277.8 285.67 276.06 286.03V284.69C277.03 284.45 277.51 283.5 277.49 282.56H275.97V279.59V279.58Z" fill="black"/>
<path d="M10.8701 304.55H0.350098C0.370098 302.02 1.6701 300.11 3.7401 298.72C5.7401 297.27 8.3401 296.06 8.3801 293.66C8.4001 292.56 7.9401 290.93 5.7801 290.93C3.8001 290.93 3.2101 292.62 3.1401 294.78H0.640098C0.640098 291.37 2.5101 288.84 5.9401 288.84C9.7001 288.84 10.8901 291.59 10.8901 293.57C10.8901 296.01 9.2201 297.53 7.4601 298.76C5.6801 299.99 3.8101 300.94 3.3701 302.3H10.8701V304.54V304.55Z" fill="black"/>
<path d="M18.9401 295.53C20.6101 295.6 22.3501 295 22.3501 293.11C22.3501 291.81 21.3401 290.93 19.9501 290.93C18.2101 290.93 17.3501 292.49 17.4001 294.08H14.8901C15.0201 291.09 16.8901 288.84 19.9901 288.84C22.3901 288.84 24.8501 290.23 24.8501 292.95C24.8501 294.49 24.1501 295.72 22.6701 296.25V296.29C24.4101 296.64 25.4601 298.16 25.4601 300.14C25.4601 303.04 22.9501 304.85 20.0001 304.85C16.4401 304.85 14.6501 302.69 14.5901 299.48H17.1001C17.0301 301.35 18.0501 302.76 20.0001 302.76C21.6701 302.76 22.9501 301.77 22.9501 300.01C22.9501 297.61 20.9001 297.3 18.9201 297.39V295.52L18.9401 295.53Z" fill="black"/>
<path d="M29.52 291.7C31.63 291.72 33.63 291 34.01 289.15H36.06V304.55H33.31V293.68H29.53V291.7H29.52Z" fill="black"/>
<path d="M49.98 295.58H56.38V297.96H49.98V295.58Z" fill="black"/>
<path d="M79.42 296.85C79.42 300.35 78.52 304.86 74.1 304.86C69.68 304.86 68.78 300.35 68.78 296.85C68.78 293.35 69.68 288.84 74.1 288.84C78.52 288.84 79.42 293.35 79.42 296.85ZM76.91 296.85C76.91 293.64 76.29 290.93 74.09 290.93C71.89 290.93 71.27 293.64 71.27 296.85C71.27 300.06 71.89 302.77 74.09 302.77C76.29 302.77 76.91 300.06 76.91 296.85Z" fill="black"/>
<path d="M93.85 296.85C93.85 300.35 92.95 304.86 88.52 304.86C84.09 304.86 83.2 300.35 83.2 296.85C83.2 293.35 84.1 288.84 88.52 288.84C92.94 288.84 93.85 293.35 93.85 296.85ZM91.35 296.85C91.35 293.64 90.73 290.93 88.53 290.93C86.33 290.93 85.71 293.64 85.71 296.85C85.71 300.06 86.33 302.77 88.53 302.77C90.73 302.77 91.35 300.06 91.35 296.85Z" fill="black"/>
<path d="M108.29 296.85C108.29 300.35 107.39 304.86 102.96 304.86C98.5299 304.86 97.6399 300.35 97.6399 296.85C97.6399 293.35 98.5399 288.84 102.96 288.84C107.38 288.84 108.29 293.35 108.29 296.85ZM105.78 296.85C105.78 293.64 105.16 290.93 102.96 290.93C100.76 290.93 100.14 293.64 100.14 296.85C100.14 300.06 100.76 302.77 102.96 302.77C105.16 302.77 105.78 300.06 105.78 296.85Z" fill="black"/>
<path d="M122.65 304.55H112.13C112.15 302.02 113.45 300.11 115.52 298.72C117.52 297.27 120.12 296.06 120.16 293.66C120.18 292.56 119.72 290.93 117.56 290.93C115.58 290.93 114.99 292.62 114.92 294.78H112.41C112.41 291.37 114.28 288.84 117.71 288.84C121.47 288.84 122.66 291.59 122.66 293.57C122.66 296.01 120.99 297.53 119.23 298.76C117.45 299.99 115.58 300.94 115.14 302.3H122.64V304.54L122.65 304.55Z" fill="black"/>
<path d="M127.23 301.58H130.29V304.55C130.27 306.35 129.06 307.67 127.32 308.03V306.69C128.29 306.45 128.77 305.5 128.75 304.56H127.23V301.59V301.58Z" fill="black"/>
<path d="M169.12 299.49C169.12 302.22 168.46 304.92 163.95 304.92C160.63 304.92 159.26 302.74 159.26 299.88V299.04H162.01V299.85C162.01 301.63 162.49 302.67 164.17 302.67C165.95 302.67 166.37 301.59 166.37 299.63V288.83H169.12V299.48V299.49Z" fill="black"/>
<path d="M178.86 288.84H181.79L187.84 304.55H184.89L183.42 300.39H177.15L175.68 304.55H172.84L178.87 288.84H178.86ZM177.89 298.3H182.69L180.34 291.55H180.27L177.89 298.3Z" fill="black"/>
<path d="M191.53 288.84H198.46C202.95 288.84 203.81 291.74 203.81 293.7C203.81 295.66 202.95 298.54 198.46 298.52H194.28V304.55H191.53V288.84ZM194.28 296.28H198.31C199.54 296.28 201.06 295.66 201.06 293.68C201.06 291.7 199.81 291.08 198.35 291.08H194.28V296.27V296.28Z" fill="black"/>
<path d="M209.97 288.84H212.9L218.95 304.55H216L214.53 300.39H208.26L206.79 304.55H203.95L209.98 288.84H209.97ZM209 298.3H213.8L211.45 291.55H211.38L209 298.3Z" fill="black"/>
<path d="M222.53 288.84H225.43L232.6 300.41H232.64V288.84H235.26V304.55H232.36L225.21 293H225.14V304.55H222.52V288.84H222.53Z" fill="black"/>
</g>
<defs>
<clipPath id="clip0_53_181">
<rect width="388.19" height="308.03" fill="white"/>
</clipPath>
</defs>
</svg>
