<svg width="146" height="15" viewBox="0 0 146 15" fill="none" xmlns="http://www.w3.org/2000/svg">
<g clip-path="url(#clip0_20_285)">
<path d="M12.7298 13.93C12.0098 13.37 10.6298 12.31 9.31977 10.26C8.03977 8.24 7.63977 6.53 7.41977 5.59C6.19977 9.35 4.48977 12.09 1.71977 14.01L0.00976562 12.79C0.869766 12.23 2.50977 11.16 3.89977 8.96C5.35977 6.64 5.60977 4.54 5.73977 3.47L7.14977 3.82C7.09977 3.34 7.08977 3.03 7.06977 2.4H3.83977V0.5H8.97976C8.92976 1 8.91977 1.6 8.91977 2.12C8.91977 3.82 9.20977 5.99 10.3898 8.2C11.8498 10.91 13.6998 11.98 14.5698 12.46L12.7498 13.93H12.7298Z" fill="black"/>
<path d="M25.86 7.44023C25.78 7.63023 25.67 7.86024 25.57 8.02024H31.4C31.38 9.65024 31.08 12.0102 30.52 12.8902C30.04 13.6402 29.26 13.8702 27.98 13.8802L27.34 12.3102C26.88 12.8102 26.32 13.3702 25.37 13.9902L24.17 13.1902C25.91 12.1702 27.24 10.4402 27.82 9.35023H27.02C26.8 9.75023 26.32 10.6102 25.45 11.4502C24.68 12.2002 23.83 12.8602 22.94 13.4302L21.69 12.5502C23.8 11.5902 25.18 9.84023 25.5 9.35023H24.76C23.94 10.3102 23.3 10.8702 22.61 11.3802L21.35 10.5302C21.8 10.2602 22.13 10.0202 22.76 9.47023C21.67 9.89023 19.91 10.4802 19.45 10.5902C18.86 10.7302 18.79 10.7502 18.7 10.8602C18.52 11.0502 18.48 11.1202 18.4 11.1202C18.37 11.1202 18.3 11.0902 18.29 11.0102L18 9.22023C18.51 9.12023 19.22 8.95023 19.78 8.80023V5.07023H18.23V3.42023H19.78V0.240234L21.64 0.380234C21.74 0.400234 21.85 0.440234 21.85 0.560234C21.85 0.680234 21.77 0.740234 21.67 0.820234C21.59 0.870234 21.46 0.950234 21.46 1.06023V3.43023H23.13V5.08023H21.46V8.35023C22.02 8.19023 22.55 8.03023 23.08 7.84023V9.17023C23.64 8.56023 23.93 8.13023 24.25 7.46023H22.73V6.16023H31.61V7.46023H25.88L25.86 7.44023ZM23.89 5.54023V0.500234H30.39V5.54023H23.89ZM28.84 1.84023H25.45V2.51023H28.84V1.84023ZM28.84 3.65023H25.45V4.34023H28.84V3.65023ZM29.32 9.35023C29.03 10.0202 28.66 10.8202 27.48 12.1502C27.94 12.2502 28.28 12.2502 28.34 12.2502C28.76 12.2502 29.01 12.1502 29.19 11.8002C29.57 11.0502 29.65 10.2002 29.7 9.35023H29.32Z" fill="black"/>
<path d="M47.0602 6.45V8.47H48.8002V9.96H36.2502V8.47H37.9802V6.45H35.6602V4.91H37.9802V3.15C37.6302 3.58 37.3202 3.87 36.9902 4.16L35.4102 3.38C36.7202 2.4 37.6702 1.14 38.2802 0L40.0902 0.51C40.0902 0.51 40.3602 0.59 40.3602 0.73C40.3602 0.783333 40.2368 0.856667 39.9902 0.95C39.8802 1 39.7802 1.05 39.4902 1.41H48.6502V2.9H47.0702V4.9H49.3602V6.44H47.0702L47.0602 6.45ZM39.2202 11.72C39.0002 11.74 38.9802 11.74 38.9202 11.82C38.0102 13.02 37.1802 13.72 36.8602 14L35.6002 12.88C36.6102 12.16 37.3602 11.26 37.9202 10.37L39.2202 11.35C39.3602 11.46 39.4002 11.53 39.4002 11.59C39.4002 11.7 39.2902 11.72 39.2402 11.73L39.2202 11.72ZM40.5602 2.91H39.6202V4.91H40.5602V2.91ZM40.5602 6.45H39.6202V8.47H40.5602V6.45ZM40.4702 13.96C40.4502 12.89 40.3702 12.12 40.0202 11.13L41.4102 10.78C41.7302 11.52 42.0702 12.48 42.0502 13.63L40.4702 13.97V13.96ZM43.0102 2.91H42.0702V4.91H43.0102V2.91ZM43.0102 6.45H42.0702V8.47H43.0102V6.45ZM43.7602 13.73C43.6202 12.61 43.1802 11.63 42.9802 11.2L44.3402 10.77C44.6002 11.17 45.1702 12.16 45.3202 13.3L43.7702 13.73H43.7602ZM45.4802 2.91H44.4902V4.91H45.4802V2.91ZM45.4802 6.45H44.4902V8.47H45.4802V6.45ZM47.8802 13.91C47.0502 12.66 46.3802 11.97 45.8802 11.48L47.0602 10.47C47.8402 11.13 48.5002 11.78 49.2102 12.79L47.8802 13.91Z" fill="black"/>
<path d="M57.5502 6.50023C58.1102 7.52023 59.2002 8.47023 59.6102 8.84023L58.7002 10.0702C58.4102 9.80023 57.9302 9.35024 57.5502 8.81024V13.9602H55.9002V9.86023C55.6102 10.4202 55.0402 11.3602 54.4402 12.0002L52.9702 11.1402C54.3502 9.68023 55.2602 7.97023 55.5902 6.50023H53.3202V5.03023H55.9002V0.240234L57.3402 0.370234C57.7702 0.400234 57.8402 0.500234 57.8402 0.590234C57.8402 0.650234 57.8102 0.720234 57.7102 0.780234C57.5802 0.880234 57.5502 0.890234 57.5502 0.970234V5.02023H59.7302V6.49023H57.5502V6.50023ZM53.9702 4.34023C53.8102 3.46023 53.4602 2.52023 53.1502 1.92023L54.6502 1.31023C55.0802 2.21023 55.3402 3.25023 55.4702 3.79023L53.9702 4.33023V4.34023ZM60.3202 1.97023C60.1602 2.05023 60.1402 2.07023 60.1302 2.11023C60.0802 2.27023 59.7802 3.52023 59.3302 4.37023L58.0302 3.81023C58.4302 2.90023 58.6202 1.81023 58.7002 1.27023L60.0402 1.57023C60.3802 1.65023 60.4702 1.70023 60.4702 1.79023C60.4702 1.87023 60.3402 1.95023 60.3102 1.97023H60.3202ZM65.5402 9.70023V13.9302H63.8102V10.1402L59.7902 11.1802L59.6002 9.66023L63.8102 8.57023V0.240234L65.5202 0.400234C65.8402 0.430234 65.9002 0.500234 65.9002 0.590234C65.9002 0.650234 65.8502 0.690234 65.7902 0.730234C65.6302 0.840234 65.5302 0.910234 65.5302 0.970234V8.13023L66.8702 7.78023L66.9702 9.33023L65.5302 9.70023H65.5402ZM62.1302 8.15023C61.6702 7.46023 60.9902 6.74023 60.3402 6.23023L61.4002 5.14023C62.0202 5.64023 62.7302 6.34023 63.2102 7.06023L62.1402 8.15023H62.1302ZM62.2302 4.29023C61.7302 3.52023 61.0302 2.93023 60.5802 2.59023L61.6502 1.49023C62.1302 1.86023 62.7902 2.43023 63.3002 3.19023L62.2302 4.29023Z" fill="black"/>
<path d="M73.2202 8.8798C72.2302 8.8798 71.4302 8.0798 71.4302 7.0898C71.4302 6.0998 72.2502 5.2998 73.2202 5.2998C74.1902 5.2998 75.0102 6.0998 75.0102 7.0898C75.0102 8.0798 74.2102 8.8798 73.2202 8.8798Z" fill="black"/>
<path d="M89.86 10.1998L88.31 9.20977C89 8.40977 89.46 7.81977 90.34 6.58977H87.3V11.8998C87.3 13.9198 86.6 13.9798 84.03 13.9998L83.29 12.0898C83.56 12.1498 84.31 12.3098 84.78 12.3098C85.25 12.3098 85.39 11.9598 85.39 11.5098V6.57977H79.5V4.82977H85.33C84.75 4.50977 84.26 4.24977 83.18 3.83977L84.01 2.31977C84.44 2.52977 84.86 2.71977 86.33 3.41977C86.67 3.19977 87.05 2.91977 87.79 2.18977H80.86V0.509766H91.17L91.91 1.40977C90.95 2.12977 89.8 2.98977 87.94 4.20977C88 4.23977 88.28 4.38977 88.34 4.41977L87.97 4.83977H92.48L93.17 5.52977C91.41 8.26977 90.62 9.25977 89.86 10.1998Z" fill="black"/>
<path d="M98.9302 9.6702C98.8502 11.0002 98.7502 11.8302 98.2902 12.9802L96.9102 12.6102C97.2102 11.7602 97.4702 10.8002 97.5802 8.9902L98.8902 9.2302C98.9902 9.2502 99.1802 9.2902 99.1802 9.3902C99.1802 9.4702 99.1002 9.5302 98.9202 9.6602L98.9302 9.6702ZM102.24 8.2402C102.21 8.1002 102.18 7.8902 102.11 7.5802C101.55 7.7202 101.33 7.7402 101.05 7.7902V13.9502H99.4202V8.0102C98.8402 8.0702 98.2002 8.1402 98.0002 8.1702C97.8902 8.1702 97.7802 8.1902 97.6502 8.3302C97.5202 8.4602 97.4702 8.5102 97.3902 8.5102C97.3402 8.5102 97.2602 8.4502 97.2502 8.3702L96.9302 6.5102C97.6202 6.5102 97.9702 6.5102 98.6402 6.4802C98.8002 6.2902 99.0402 6.0302 99.2602 5.7302C98.4402 4.8202 97.7702 4.3102 97.0302 3.8102L98.0201 2.4702C98.2801 2.6502 98.4202 2.7602 98.5602 2.8902C99.2502 1.9002 99.6201 1.1402 100.02 0.200195L101.44 0.970195C101.52 1.0202 101.55 1.0802 101.55 1.1102C101.55 1.1602 101.52 1.2102 101.45 1.2402C101.24 1.3402 101.19 1.3702 101.16 1.4202C100.34 2.6502 100.22 2.8402 99.5102 3.7602C99.7802 4.0302 99.9602 4.2202 100.17 4.5002C101.1 3.2202 101.53 2.5102 101.91 1.8602L103.37 2.7402C103.47 2.7902 103.48 2.8802 103.48 2.9202C103.48 3.0602 103.32 3.1002 103.3 3.1002C103.04 3.1202 103.03 3.1502 102.8 3.4402C101.98 4.4802 101.12 5.4902 100.22 6.4502C100.73 6.4202 101.07 6.3902 101.76 6.3102C101.68 6.0202 101.6 5.6902 101.49 5.3802L102.93 5.0402C103.27 5.9802 103.51 6.8802 103.67 7.8602L102.21 8.2802L102.24 8.2402ZM102.37 12.1202C102.03 10.9202 101.87 10.1002 101.75 9.0502L103.05 8.7802C103.24 10.1902 103.53 11.2002 103.72 11.7702L102.38 12.1202H102.37ZM109.81 12.3902C109.36 13.6702 108.5 13.8802 107.46 13.8802H106.77L105.89 12.0102C106.23 12.0402 106.74 12.1102 107.31 12.1102C107.82 12.1102 108.14 11.9802 108.45 10.9702C108.77 9.9102 109.06 7.7802 109.06 5.3402V4.2502H105.43C104.97 5.0502 104.68 5.5002 104.23 5.9902L102.98 4.9802C103.7 4.0502 104.47 2.9302 105.35 0.290195L107.05 0.850195C107.13 0.880195 107.21 0.930195 107.21 1.0102C107.21 1.0902 107.16 1.1402 107.1 1.1702C106.86 1.2802 106.84 1.3002 106.76 1.5102C106.57 2.0202 106.54 2.1302 106.34 2.5202H110.73V5.5102C110.73 7.7802 110.41 10.7302 109.82 12.3902H109.81ZM106.02 9.7002C105.56 8.1602 105.12 7.2502 104.77 6.5502L106.21 5.9702C106.61 6.7502 107.03 7.7002 107.46 9.2202L106.02 9.7002Z" fill="black"/>
<path d="M123.92 2.32012C123.25 3.47012 123.06 3.71012 122.67 4.21012C122.75 4.23012 122.89 4.27012 122.89 4.42012C122.89 4.52012 122.81 4.58012 122.79 4.60012C122.55 4.81012 122.52 4.84012 122.52 4.94012V13.9801H120.6V6.46012C118.82 8.06012 117.53 8.92012 115.67 9.84012L114.44 8.24012C115.51 7.76012 117.53 6.88012 119.23 5.15012C120.06 4.30012 120.85 3.39012 121.39 2.33012H114.8V0.620117H128.39V2.32012H123.92ZM127.13 9.76012C125.91 8.27012 124.7 6.99012 122.9 5.60012L124.02 4.32012C125.75 5.54012 127.13 6.85012 128.53 8.40012L127.12 9.76012H127.13Z" fill="black"/>
<path d="M141.67 1.96979V2.86979H144.94V6.97978H140.06C139.79 7.37978 139.55 7.67979 139.21 8.09979H145.98V9.42979H142.86C142.3 10.3098 141.84 10.7698 141.42 11.1598C143.07 11.7498 144.08 12.1798 145.23 12.6998L144.16 14.1698C142.78 13.3098 141.33 12.7098 140.06 12.2298C138.17 13.2498 136.6 13.7498 133.29 14.0398L132.52 12.4598C135.67 12.4398 136.83 12.1998 138.17 11.5598C137.66 11.4198 137.02 11.2398 136.46 11.1298C136.25 11.3198 136.06 11.4998 135.82 11.6898L134.24 10.7098C134.86 10.2298 135.28 9.84979 135.71 9.42979H132.4V8.09979H136.95C137.45 7.50979 137.61 7.23978 137.77 6.97978H133.58V2.86979H136.81V1.96979H132.38V0.529785H146.03V1.96979H141.69H141.67ZM136.79 4.14979H135.27V5.69979H136.79V4.14979ZM138.08 9.42979C137.82 9.72979 137.76 9.77979 137.55 10.0098C138.11 10.1198 138.62 10.2498 139.69 10.5698C140.2 10.1698 140.55 9.70979 140.73 9.42979H138.07H138.08ZM139.97 1.96979H138.5V2.86979H139.97V1.96979ZM139.97 4.14979H138.5V5.69979H139.97V4.14979ZM143.28 4.14979H141.66V5.69979H143.28V4.14979Z" fill="black"/>
</g>
<defs>
<clipPath id="clip0_20_285">
<rect width="146.01" height="14.17" fill="white"/>
</clipPath>
</defs>
</svg>
