<svg width="393" height="110" viewBox="0 0 393 110" fill="none" xmlns="http://www.w3.org/2000/svg">
<g clip-path="url(#clip0_20_23)">
<path d="M6.32012 16.0599V44.1699H0.620117V0.669922H19.8601V16.0599H6.32012ZM14.4201 4.71992H6.32012V6.71992H14.4201V4.71992ZM14.4201 9.99992H6.32012V11.9999H14.4201V9.99992ZM24.9901 32.1099C27.4001 35.6999 29.9101 37.0299 32.7401 38.2099L29.4601 42.2599C25.1001 40.2599 22.8901 37.4899 21.3001 35.1299C19.1501 38.6699 16.9401 40.7699 11.9601 42.7699L8.27012 38.9699C13.5501 37.2799 15.5501 35.4799 17.3001 32.0999H8.63012V27.9399H18.4301C18.5301 26.8099 18.5801 26.2999 18.5801 25.3199H10.6801V21.1599H14.7301C13.9101 19.6699 13.5001 19.2099 12.7801 18.4399L17.2901 16.4399C18.6201 18.4399 18.9801 18.8999 19.8001 20.4899L18.1101 21.1599H23.9101C24.8301 19.6199 25.4001 18.4899 26.1701 16.5399L31.0401 18.1799C31.2501 18.2299 31.5001 18.3899 31.5001 18.6399C31.5001 18.7899 31.4001 18.9999 31.1901 19.0999C31.0901 19.1999 30.4201 19.4099 30.3201 19.5099C30.2701 19.5599 29.4001 20.8899 29.2401 21.1499H33.0401V25.3099H23.7501C23.7001 26.5899 23.6501 27.2599 23.6001 27.9299H35.0401V32.0899H24.9901V32.1099ZM37.6601 44.1699H34.7401L32.5301 38.4799C33.4501 38.6299 34.2701 38.7399 35.4501 38.7399C36.7301 38.7399 37.1901 38.2299 37.1901 36.9499V16.0699H23.5401V0.669922H42.6201V38.3199C42.6201 41.1899 41.9501 44.1699 37.6401 44.1699H37.6601ZM37.2001 4.71992H29.0901V6.71992H37.2001V4.71992ZM37.2001 9.99992H29.0901V11.9999H37.2001V9.99992Z" fill="black"/>
<path d="M80.0398 43.96L77.9398 38.06C78.5598 38.16 79.6298 38.27 81.4298 38.27C83.0198 38.27 83.8898 38.12 83.8898 36.63V13.85H71.6298C73.0098 19.95 75.7298 25.34 83.6298 29.14L79.1198 33.3C74.4998 30.53 71.7298 27.81 68.8598 22.12C66.2398 27.15 63.3198 30.23 58.8598 33.71L54.2898 29.55C61.3198 25.29 64.1398 20.52 65.3698 13.85H54.0798V43.4H48.2798V8.26H65.7698C65.7698 2.82 65.7198 1.85 65.6198 0L72.4898 0.26C72.7998 0.26 73.1098 0.47 73.1098 0.77C73.1098 1.18 72.6998 1.39 72.4898 1.54C71.8698 1.9 71.7198 2.26 71.7198 2.51C71.6698 2.82 71.6698 7.33 71.6698 8.26H89.4698V38.68C89.4698 43.25 87.3698 43.96 80.0298 43.96H80.0398Z" fill="black"/>
<path d="M114.56 23.19C109.69 35.66 102.5 41.09 99.4799 43.35L94.3999 39.81C100.15 36.12 103.17 32.68 107.22 25.96C105.58 24.22 103.58 22.57 101.58 21.34C100.86 22.57 100.2 23.55 99.3699 24.73L94.1899 22.17C99.9399 14.27 102.14 5.49997 102.96 0.469971L109.58 1.69997C109.84 1.74997 110.04 1.95997 110.04 2.25997C110.04 2.55997 109.58 2.81997 109.42 2.87997C108.6 3.28997 108.55 3.43997 108.45 3.84997C108.04 5.43997 107.89 6.15997 107.32 7.74997H118.04C117.63 13.03 116.5 18.27 114.55 23.19H114.56ZM105.48 13.18C104.92 14.67 104.51 15.59 103.84 17.03C105.53 17.85 107.89 19.34 109.48 20.88C110.56 18.06 111.07 16.21 111.63 13.18H105.47H105.48ZM137.34 32.99C134.01 31.4 131.65 29.66 129.54 28.12V43.41H124V23.25C122.41 21.71 119.79 19.25 117.79 16.48L121.48 12.48C121.99 13.2 122.71 14.17 123.99 15.61V0.559971L130.09 1.01997C130.35 1.01997 130.71 1.16997 130.71 1.47997C130.71 1.78997 130.45 1.98997 130.35 2.03997C129.73 2.54997 129.53 2.70997 129.53 2.90997V20.97C133.33 24 136.15 25.74 140.82 27.84L137.33 32.97L137.34 32.99Z" fill="black"/>
<path d="M164.75 42.6999C153.09 42.6999 145.04 34.3799 145.04 21.6899C145.04 8.99993 153.14 0.679932 164.75 0.679932C176.36 0.679932 184.51 8.93993 184.51 21.6899C184.51 34.4399 176.41 42.6999 164.75 42.6999ZM164.75 7.26993C158 7.26993 152.71 12.3499 152.71 21.6899C152.71 31.0299 157.95 36.1599 164.75 36.1599C171.55 36.1599 176.85 30.6499 176.85 21.6899C176.85 12.7299 171.83 7.26993 164.75 7.26993Z" fill="black"/>
<path d="M209.03 27.36H198.18V41.4H190.89V1.97998H209.03C217.62 1.97998 222.48 7.75998 222.48 14.45C222.48 22.39 216.38 27.36 209.03 27.36ZM207.95 8.12998H198.18V21.2H207.95C212 21.2 214.81 18.99 214.81 14.4C214.81 9.80998 211.79 8.13998 207.95 8.13998V8.12998Z" fill="black"/>
<path d="M227.72 41.4V1.97998H257.53V8.13998H234.96V17.91H255.8V23.58H234.96V35.24H258.4V41.4H227.73H227.72Z" fill="black"/>
<path d="M289.76 41.4L274.21 16.29L271.24 9.80998L272 18.61V41.4H264.98V1.97998H272.76L288.31 27.09L291.28 33.57L290.52 24.77V1.97998H297.54V41.4H289.76Z" fill="black"/>
<path d="M310.55 30.76H306.99L305.1 12.94V1.97998H312.39V12.94L310.55 30.76ZM305.1 41.4V34.11H312.39V41.4H305.1Z" fill="black"/>
<path d="M346.41 41.4V13.97H335.72V8.83998H338.85C341.71 8.83998 346.25 7.10998 347.44 1.97998H353.27V41.4H346.41Z" fill="black"/>
<path d="M379.4 23.69C376.32 31.36 375.84 36.7 375.35 41.4H367.84C368.11 37.78 368.43 33.41 371.57 25.2C375.24 15.48 378.81 12.02 382.86 8.13998L380.43 8.40998H361.1V1.97998H389.94V8.40998C386.65 11.65 382.65 15.54 379.41 23.69H379.4Z" fill="black"/>
<path d="M0 100.87V61.45H29.81V67.61H7.24V77.3799H28.08V83.05H7.24V94.7099H30.68V100.87H0Z" fill="black"/>
<path d="M61.0201 100.87L52.0001 85.32L42.9801 100.87H34.1201L47.4601 79.76L35.6301 61.45H44.2201L52.0001 74.5199L59.7801 61.45H68.3101L56.5401 79.76L69.8201 100.87H61.0201Z" fill="black"/>
<path d="M100.39 100.87V82.94H82.4101V100.87H75.1201V61.45H82.4101V76.79H100.39V61.45H107.68V100.87H100.39Z" fill="black"/>
<path d="M115.67 100.87V61.45H122.96V100.87H115.67Z" fill="black"/>
<path d="M149.09 100.87H130.68V61.45H147.96C155.95 61.45 160.65 65.1199 160.65 71.2799C160.65 73.7599 159.79 75.82 158.38 77.33C157.14 78.68 156.11 79.2199 153.2 79.7099C157.03 80.4099 158.33 81.2199 159.68 82.6299C161.41 84.4099 162.06 86.84 162.06 89C162.06 94.72 157.42 100.88 149.1 100.88L149.09 100.87ZM148.66 67.5999H137.97V77.2099H147.47C150.66 77.2099 153.36 75.59 153.36 72.19C153.36 69.44 151.47 67.5999 148.66 67.5999ZM149.25 83.2099H137.96V94.7099H148.38C151.3 94.7099 154.64 92.9799 154.64 88.7699C154.64 85.2099 152.1 83.2099 149.24 83.2099H149.25Z" fill="black"/>
<path d="M167.51 100.87V61.45H174.8V100.87H167.51Z" fill="black"/>
<path d="M200.72 67.5999V100.86H193.43V67.5999H179.39V61.4399H214.76V67.5999H200.72Z" fill="black"/>
<path d="M219.35 100.87V61.45H226.64V100.87H219.35Z" fill="black"/>
<path d="M252.39 102.16C240.73 102.16 232.68 93.8399 232.68 81.1499C232.68 68.4599 240.78 60.1399 252.39 60.1399C264 60.1399 272.15 68.3999 272.15 81.1499C272.15 93.8999 264.05 102.16 252.39 102.16ZM252.39 66.7399C245.64 66.7399 240.35 71.8199 240.35 81.1599C240.35 90.4999 245.59 95.6299 252.39 95.6299C259.19 95.6299 264.49 90.1199 264.49 81.1599C264.49 72.1999 259.47 66.7399 252.39 66.7399Z" fill="black"/>
<path d="M303.85 100.87L288.3 75.76L285.33 69.2799L286.09 78.08V100.87H279.07V61.45H286.85L302.4 86.5599L305.37 93.04L304.61 84.2399V61.45H311.63V100.87H303.85Z" fill="black"/>
<path d="M378.7 99.59C377.4 99.11 374.47 98.0801 371.27 95.6201C366.91 92.2901 365.14 88.58 364.27 86.81H362.28L362.24 94.02C364.31 93.72 366.04 93.4601 368.16 92.9401L367.94 97.13C362.24 98.43 358.05 99.2 355.37 99.64C354.68 99.77 354.42 99.77 354.03 100.03C353.94 100.12 353.43 100.72 353.25 100.72C352.78 100.72 352.6 100.11 352.56 99.6L352.04 95.24C352.73 95.24 353.42 95.2001 357.22 94.7201V86.81H352.34C351.99 89.83 351.04 94.15 348.67 98.99L344.05 97.52C344.61 96.44 345.65 94.5 346.51 91.17C347.5 87.5 348.15 83.0901 348.15 77.8701C348.15 73.4601 347.89 67.89 347.63 63.05H381.28V73.1201H370.52L373.24 73.5501C373.84 73.6401 374.62 73.77 374.62 74.2C374.62 74.5 374.27 74.6301 373.97 74.7601V76.1901H381.01V79.9001H373.97V82.9701H382.22V86.81H377.51L380.14 89.1901C380.27 89.3201 380.4 89.49 380.4 89.67C380.4 90.02 380.14 90.02 379.71 90.02C379.1 90.02 378.93 90.15 378.67 90.28C377.94 90.88 376.81 91.75 375.3 93.13C377.59 94.51 379.75 95.33 382.38 95.85L378.67 99.6101L378.7 99.59ZM358.4 79.89H353.95V76.18H358.4V73.1101H352.78V78.03C352.78 78.98 352.78 80.88 352.69 82.95H358.39V79.88L358.4 79.89ZM376.5 66.8001H352.79V69.35H376.5V66.8001ZM369.15 73.1101H359.73L362.41 73.5401C362.5 73.5401 363.62 73.7101 363.62 74.1901C363.62 74.4101 363.36 74.58 363.15 74.71V76.18H369.15V73.1101ZM369.15 79.89H363.15V82.96H369.15V79.89ZM369.2 86.8001C370.37 88.8701 371.49 89.9101 372.14 90.4701C373.74 89.3001 374.77 88.0901 375.77 86.8001H369.2Z" fill="black"/>
<path d="M364.1 55.1299C378.63 55.1299 390.45 66.9299 390.45 81.4299C390.45 95.9299 378.63 107.73 364.1 107.73C349.57 107.73 337.75 95.9299 337.75 81.4299C337.75 66.9299 349.57 55.1299 364.1 55.1299ZM364.1 53.1299C348.44 53.1299 335.75 65.7999 335.75 81.4299C335.75 97.0599 348.44 109.73 364.1 109.73C379.76 109.73 392.45 97.0599 392.45 81.4299C392.45 65.7999 379.76 53.1299 364.1 53.1299Z" fill="black"/>
</g>
<defs>
<clipPath id="clip0_20_23">
<rect width="392.45" height="109.73" fill="white"/>
</clipPath>
</defs>
</svg>
