<svg width="168" height="26" viewBox="0 0 168 26" fill="none" xmlns="http://www.w3.org/2000/svg">
<g clip-path="url(#clip0_53_360)">
<path d="M5.40999 5.01C5.22999 5.15 5.16999 5.2 5.08999 5.26C6.30999 6.51 7.06999 8.15 7.06999 9.08C7.06999 10.21 6.08999 10.27 4.79999 10.27C4.71999 9.6 4.36999 9.19 4.25999 9.05C2.69999 9.96 1.44999 10.27 0.99999 10.39C0.80999 9.94 0.59999 9.7 0.18999 9.4C2.22999 9.09 4.14999 8.08 5.16999 7.25C5.14999 7.22 5.01999 7.02 4.97999 6.98C4.12999 7.57 2.60999 8.4 0.79999 8.79C0.49999 8.31 0.42999 8.23 -0.0100098 7.8C1.54999 7.6 3.02999 7.02 4.34999 6.17C4.28999 6.09 4.22999 6.03 4.09999 5.91C3.10999 6.49 2.16999 6.89 0.90999 7.23C0.69999 6.82 0.45999 6.54 0.0399902 6.25C2.16999 5.89 3.41999 5.18 3.73999 5.01H1.28999V3.54C1.20999 3.6 1.15999 3.64 1.05999 3.69C0.85999 3.42 0.59999 3.06 0.0499902 2.7C1.60999 1.89 2.67999 0.9 3.36999 0L4.76999 0.24C4.90999 0.26 5.00999 0.31 5.00999 0.39C5.00999 0.5 4.86999 0.53 4.66999 0.56C4.62999 0.6 4.54999 0.7 4.48999 0.77H7.03999L7.57999 1.17C7.21999 1.7 6.85999 2.07 6.62999 2.31H9.39999V5.01H6.80999C6.91999 5.43 7.06999 5.81 7.25999 6.18C7.77999 5.91 8.20999 5.61 8.80999 5.09L9.97999 5.9C10.03 5.93 10.09 5.98 10.09 6.03C10.09 6.22 9.91999 6.2 9.70999 6.17C8.89999 6.74 8.06999 7.13 7.92999 7.2C8.63999 8.09 9.52999 8.84 10.59 9.28C9.82999 9.68 9.61999 9.95 9.46999 10.22C8.28999 9.57 6.43999 7.81 5.65999 5.01H5.40999ZM4.64999 3.29H2.64999V4.05H4.64999V3.29ZM4.96999 2.31C5.07999 2.18 5.17999 2.06 5.38999 1.76H3.53999C3.31999 1.96 3.09999 2.16 2.91999 2.31H4.96999ZM4.27999 9.03C4.56999 9.09 4.94999 9.12 5.23999 9.12C5.68999 9.12 5.77999 8.98 5.77999 8.75C5.77999 8.73 5.77999 8.48 5.63999 8.1C5.46999 8.24 5.11999 8.56 4.28999 9.03H4.27999ZM8.09999 3.29H6.02999V4.05H8.09999V3.29Z" fill="black"/>
<path d="M16.8699 8.53021C19.4699 8.03021 20.1399 6.10022 20.1399 4.94022C20.1399 3.66022 19.3099 2.17021 17.3399 2.07021C16.9699 6.17021 15.3799 9.12021 14.2499 9.12021C13.3999 9.12021 11.9199 7.73021 11.9199 5.76021C11.9199 3.42021 14.0399 0.720215 17.1799 0.720215C19.5199 0.720215 21.6199 2.30021 21.6199 4.93021C21.6199 6.57021 20.8799 7.64021 20.3199 8.26021C19.5699 9.11021 18.6599 9.50021 17.8399 9.82021C17.5099 9.27021 17.2999 8.98021 16.8699 8.51021V8.53021ZM13.3099 5.67021C13.3099 6.61021 13.8099 7.34021 14.1499 7.34021C14.4699 7.34021 14.7799 6.59022 14.9499 6.15022C15.7299 4.27022 15.7499 2.84021 15.7799 2.33021C14.2799 2.79021 13.3199 4.50021 13.3199 5.66021L13.3099 5.67021Z" fill="black"/>
<path d="M30.75 7.6798H33.29V8.5998H30.75V10.2798H29.46V8.5998H27.15C26.91 9.1098 26.36 9.9498 24.55 10.3598C24.47 10.1798 24.25 9.7198 23.77 9.2898C24.89 9.1698 25.34 8.8898 25.63 8.5998H23.26V7.6798H26.11C26.16 7.5098 26.19 7.3898 26.21 7.2398H24.01V4.6398H32.56V7.2398H30.98C30.98 7.3398 30.84 7.3898 30.75 7.4098V7.6898V7.6798ZM31.86 0.879805V4.3198H24.72V0.879805H26.84C27.06 0.359805 27.09 0.229805 27.14 0.0498047L28.59 0.159805C28.68 0.169805 28.8 0.199805 28.8 0.309805C28.8 0.439805 28.66 0.479805 28.49 0.509805C28.39 0.729805 28.37 0.769805 28.31 0.869805H31.85L31.86 0.879805ZM27.65 5.6398V5.2898H25.25V5.6398H27.65ZM25.26 6.2098V6.6098H27.66V6.2098H25.26ZM26.02 1.9298H30.55V1.5698H26.02V1.9298ZM30.55 2.4298H26.02V2.7798H30.55V2.4298ZM30.55 3.2898H26.02V3.6598H30.55V3.2898ZM29.46 7.2398H27.84C27.82 7.3598 27.6 7.3898 27.5 7.4198C27.49 7.4898 27.48 7.5498 27.46 7.6798H29.46V7.2398ZM31.32 5.6398V5.2898H28.87V5.6398H31.32ZM28.86 6.2098V6.6098H31.31V6.2098H28.86Z" fill="black"/>
<path d="M35.05 4.96023V3.62023H44.4001V4.96023H40.7001C40.6701 6.87023 40.03 7.91024 39.46 8.52024C39.04 8.97024 38.3001 9.66023 37.0201 10.0802C36.6701 9.55023 36.23 9.16023 35.91 8.91023C38.88 8.08023 39.1901 6.27023 39.2201 4.95023H35.05V4.96023ZM42.89 0.740234V2.09023H36.6101V0.740234H42.89Z" fill="black"/>
<path d="M53.65 3.29996C54.15 3.29996 54.39 3.25996 54.59 3.19996L55.5099 3.84996C55.3199 4.19996 54.5399 5.75996 54.3699 6.06996C53.0499 8.40996 51.63 9.39996 49.45 10.26C49.16 9.79996 48.8 9.39996 48.43 9.04996C50.11 8.50996 52.24 7.58996 53.36 4.65996H46.45V3.29996H53.66H53.65ZM54.1699 0.709961V2.04996H47.81V0.709961H54.1699Z" fill="black"/>
<path d="M57.9299 2.3899V0.989902H63.5199C63.6999 0.989902 64.0999 0.969902 64.2799 0.899902L65.0299 1.6999C64.8099 1.9899 64.6899 2.2399 64.6099 2.3999C64.1499 3.4799 63.8999 4.0599 63.1899 5.2099C64.0299 5.8399 65.7499 7.3299 66.6199 8.3899C66.2299 8.8099 65.6199 9.4899 65.4899 9.6399C64.8999 8.8099 63.9799 7.6199 62.3699 6.3599C61.6099 7.3199 59.8299 8.9999 57.9699 9.7899C57.6299 9.1999 57.4399 8.9399 56.9199 8.4999C57.5799 8.2699 59.1899 7.6699 60.8099 5.9299C61.9999 4.6599 62.4199 3.6299 62.8899 2.3799H57.9299V2.3899Z" fill="black"/>
<path d="M7.45005 16.73V18.01L2.54005 24.13H7.60005V25.41H0.300049V24.13L5.21005 18.01H0.530049V16.73H7.45005Z" fill="black"/>
<path d="M17.7201 21.06C17.7201 23.76 15.9501 25.64 13.4001 25.64C10.8501 25.64 9.08008 23.76 9.08008 21.06C9.08008 18.36 10.7601 16.48 13.4001 16.48C16.0401 16.48 17.7201 18.46 17.7201 21.06ZM10.7701 21.06C10.7701 23.46 12.1901 24.24 13.4001 24.24C14.5001 24.24 16.0401 23.58 16.0401 21.06C16.0401 18.54 14.6001 17.88 13.4001 17.88C12.2001 17.88 10.7701 18.61 10.7701 21.06Z" fill="black"/>
<path d="M21.1 16.7302V22.2202C21.1 23.4902 21.99 24.2402 23.43 24.2402C24.78 24.2402 25.84 23.6202 25.84 22.2002V16.7202H27.4799V22.0702C27.4799 24.5702 25.8 25.6302 23.51 25.6302C21.08 25.6302 19.45 24.5602 19.45 21.9902V16.7202H21.1V16.7302Z" fill="black"/>
<path d="M32.8599 20.52V21.91H30.1299V20.52H32.8599Z" fill="black"/>
<path d="M37.16 16.73L41.9 23.06V16.73H43.54V25.4H41.9L37.16 19.07V25.4H35.51V16.73H37.16Z" fill="black"/>
<path d="M53.91 21.06C53.91 23.76 52.14 25.64 49.59 25.64C47.04 25.64 45.27 23.76 45.27 21.06C45.27 18.36 46.95 16.48 49.59 16.48C52.23 16.48 53.91 18.46 53.91 21.06ZM46.96 21.06C46.96 23.46 48.38 24.24 49.59 24.24C50.69 24.24 52.23 23.58 52.23 21.06C52.23 18.54 50.79 17.88 49.59 17.88C48.39 17.88 46.96 18.61 46.96 21.06Z" fill="black"/>
<path d="M58.98 20.52V21.91H56.25V20.52H58.98Z" fill="black"/>
<path d="M63.2799 16.73V20.23H68.0199V16.73H69.6599V25.4H68.0199V21.51H63.2799V25.4H61.6299V16.73H63.2799Z" fill="black"/>
<path d="M76.3399 16.73L79.6299 25.4H77.9099L77.2999 23.66H73.4799L72.8599 25.4H71.1499L74.4299 16.73H76.3199H76.3399ZM75.3999 18.28L73.9099 22.47H76.8799L75.3899 18.28H75.3999Z" fill="black"/>
<path d="M82.8099 16.73L87.5499 23.06V16.73H89.1899V25.4H87.5499L82.8099 19.07V25.4H81.1599V16.73H82.8099Z" fill="black"/>
<path d="M95.8699 16.73L99.1599 25.4H97.4399L96.8299 23.66H93.0099L92.3899 25.4H90.6799L93.9599 16.73H95.8499H95.8699ZM94.9199 18.28L93.4299 22.47H96.3999L94.9099 18.28H94.9199Z" fill="black"/>
<path d="M112.14 16.73V18.01H109.07V25.4H107.43V18.01H104.37V16.73H112.14Z" fill="black"/>
<path d="M120.66 16.73V18.01H115.41V20.33H120.06V21.61H115.41V24.13H120.78V25.41H113.76V16.74H120.66V16.73Z" fill="black"/>
<path d="M127.29 16.73C129.73 16.73 130.22 18.17 130.22 19.06C130.22 20.71 128.96 21.14 128.5 21.3C129 21.4 129.35 21.49 129.71 21.96C130.03 22.38 130.08 22.92 130.08 23.14V23.96C130.08 24.97 130.28 25.1 130.46 25.24V25.39H128.67C128.53 25.06 128.44 24.86 128.44 24.17V23.33C128.44 21.98 127.26 21.94 126.89 21.94H124.21V25.38H122.57V16.71H127.29V16.73ZM124.21 18V20.67H127.11C127.88 20.67 128.53 20.17 128.53 19.31C128.53 18.4 127.86 18 127.11 18H124.21Z" fill="black"/>
<path d="M136.75 16.73C139.19 16.73 139.68 18.17 139.68 19.06C139.68 20.71 138.42 21.14 137.96 21.3C138.46 21.4 138.81 21.49 139.17 21.96C139.49 22.38 139.54 22.92 139.54 23.14V23.96C139.54 24.97 139.74 25.1 139.92 25.24V25.39H138.13C137.99 25.06 137.9 24.86 137.9 24.17V23.33C137.9 21.98 136.72 21.94 136.35 21.94H133.67V25.38H132.03V16.71H136.75V16.73ZM133.67 18V20.67H136.57C137.34 20.67 137.99 20.17 137.99 19.31C137.99 18.4 137.32 18 136.57 18H133.67Z" fill="black"/>
<path d="M146.09 16.73L149.38 25.4H147.66L147.05 23.66H143.23L142.61 25.4H140.9L144.18 16.73H146.07H146.09ZM145.15 18.28L143.66 22.47H146.63L145.14 18.28H145.15Z" fill="black"/>
<path d="M156.92 19.7202C156.86 18.9502 156.45 17.8802 154.86 17.8802C154.13 17.8802 153.43 18.0902 152.97 18.7402C152.45 19.4902 152.33 20.4002 152.33 21.0902C152.33 22.1002 152.6 23.2102 153.33 23.8002C153.87 24.2302 154.55 24.2402 154.82 24.2402C156.26 24.2402 156.81 23.4602 156.94 22.2502H158.6C158.46 23.0402 158 25.6402 154.89 25.6402C151.57 25.6402 150.64 23.0902 150.64 21.1002C150.64 18.7102 151.87 16.4902 154.85 16.4902C156.16 16.4902 158.1 16.9602 158.54 19.7202H156.91H156.92Z" fill="black"/>
<path d="M167.34 16.73V18.01H162.09V20.33H166.74V21.61H162.09V24.13H167.46V25.41H160.44V16.74H167.34V16.73Z" fill="black"/>
</g>
<defs>
<clipPath id="clip0_53_360">
<rect width="167.46" height="25.64" fill="white"/>
</clipPath>
</defs>
</svg>
